<?xml version="1.0" encoding="UTF-8" standalone="no"?>
<!DOCTYPE svg PUBLIC "-//W3C//DTD SVG 1.1//EN" "http://www.w3.org/Graphics/SVG/1.1/DTD/svg11.dtd">
<svg version="1.1" xmlns="http://www.w3.org/2000/svg" xmlns:xlink="http://www.w3.org/1999/xlink" preserveAspectRatio="xMidYMid meet" viewBox="371.22441398423945 216.46066515293174 147.77133698410574 136.2142380125551" width="143.77" height="132.21"><defs><path d="M375.46 271.03C377.61 271.03 378.69 272.11 378.69 274.26C378.69 284.52 378.69 290.22 378.69 291.36C378.69 293.51 377.61 294.59 375.46 294.59C375.46 294.59 375.46 294.59 375.46 294.59C373.3 294.59 372.22 293.51 372.22 291.36C372.22 281.1 372.22 275.4 372.22 274.26C372.22 272.11 373.3 271.03 375.46 271.03C375.46 271.03 375.46 271.03 375.46 271.03Z" id="d6u7PLWLjb"></path><path d="M390.67 221.17C392.83 221.17 393.9 222.25 393.9 224.4C393.9 294.49 393.9 333.43 393.9 341.22C393.9 343.37 392.83 344.45 390.67 344.45C390.67 344.45 390.67 344.45 390.67 344.45C388.52 344.45 387.44 343.37 387.44 341.22C387.44 271.13 387.44 232.19 387.44 224.4C387.44 222.25 388.52 221.17 390.67 221.17C390.67 221.17 390.67 221.17 390.67 221.17Z" id="c2XRopRNPx"></path><path d="M405.89 217.46C408.04 217.46 409.12 218.54 409.12 220.69C409.12 296.14 409.12 338.06 409.12 346.44C409.12 348.6 408.04 349.67 405.89 349.67C405.89 349.67 405.89 349.67 405.89 349.67C403.73 349.67 402.66 348.6 402.66 346.44C402.66 270.99 402.66 229.08 402.66 220.69C402.66 218.54 403.73 217.46 405.89 217.46C405.89 217.46 405.89 217.46 405.89 217.46Z" id="b1yoj2OAwN"></path><path d="M421.11 239.91C423.27 239.91 424.34 240.99 424.34 243.14C424.34 291.2 424.34 317.9 424.34 323.24C424.34 325.39 423.27 326.47 421.11 326.47C421.11 326.47 421.11 326.47 421.11 326.47C418.96 326.47 417.88 325.39 417.88 323.24C417.88 275.18 417.88 248.48 417.88 243.14C417.88 240.99 418.96 239.91 421.11 239.91C421.11 239.91 421.11 239.91 421.11 239.91Z" id="bOOpC4sj7"></path><path d="M436.33 249.48C438.48 249.48 439.56 250.56 439.56 252.71C439.56 289.29 439.56 309.61 439.56 313.67C439.56 315.82 438.48 316.9 436.33 316.9C436.33 316.9 436.33 316.9 436.33 316.9C434.17 316.9 433.1 315.82 433.1 313.67C433.1 277.1 433.1 256.78 433.1 252.71C433.1 250.56 434.17 249.48 436.33 249.48C436.33 249.48 436.33 249.48 436.33 249.48Z" id="g14pNvZpvV"></path><path d="M451.54 224.59C453.7 224.59 454.77 225.67 454.77 227.82C454.77 294.27 454.77 331.18 454.77 338.56C454.77 340.72 453.7 341.79 451.54 341.79C451.54 341.79 451.54 341.79 451.54 341.79C449.39 341.79 448.31 340.72 448.31 338.56C448.31 272.12 448.31 235.2 448.31 227.82C448.31 225.67 449.39 224.59 451.54 224.59C451.54 224.59 451.54 224.59 451.54 224.59Z" id="cealuOSnW"></path><path d="M466.76 244.25C468.91 244.25 469.99 245.33 469.99 247.48C469.99 291.25 469.99 315.56 469.99 320.42C469.99 322.58 468.91 323.65 466.76 323.65C466.76 323.65 466.76 323.65 466.76 323.65C464.6 323.65 463.53 322.58 463.53 320.42C463.53 276.66 463.53 252.34 463.53 247.48C463.53 245.33 464.6 244.25 466.76 244.25C466.76 244.25 466.76 244.25 466.76 244.25Z" id="a6twHNW02"></path><path d="M479.94 295.58C479.94 303.85 479.94 308.44 479.94 309.36C479.94 318.96 488.05 326.82 497.97 326.82C497.97 326.82 497.97 326.82 497.97 326.82C507.88 326.82 516 318.96 516 309.36C516 308.44 516 303.85 516 295.58" id="b5lfdmSDBz"></path><path d="M497.96 270.74C505.74 270.74 509.63 274.63 509.63 282.41C509.63 298.21 509.63 306.99 509.63 308.75C509.63 316.53 505.74 320.41 497.96 320.41C497.96 320.41 497.96 320.41 497.96 320.41C490.19 320.41 486.3 316.53 486.3 308.75C486.3 292.94 486.3 284.17 486.3 282.41C486.3 274.63 490.19 270.74 497.96 270.74C497.96 270.74 497.96 270.74 497.96 270.74Z" id="c2771qp0Ea"></path><path d="M497.97 334.99L497.97 327.66" id="b8L1MXpvK"></path><path d="M508.92 335.02L487.03 335.02" id="b5YVluS2c"></path><path d="M497.97 232.12C489.67 232.12 482.95 238.85 482.95 247.14C482.95 255.43 489.67 262.16 497.97 262.16C506.26 262.16 512.99 255.43 512.99 247.14C512.99 238.85 506.26 232.12 497.97 232.12Z" id="b1PimAyRKN"></path><path d="M497.97 239.67C494.12 239.67 491.01 242.78 491.01 246.63C491.01 250.47 494.12 253.59 497.97 253.59C501.81 253.59 504.93 250.47 504.93 246.63C504.93 242.78 501.81 239.67 497.97 239.67Z" id="a3EpwMfwZA"></path><path d="M496.04 242.01C495.08 242.01 494.3 242.79 494.3 243.75C494.3 244.7 495.08 245.48 496.04 245.48C496.99 245.48 497.77 244.7 497.77 243.75C497.77 242.79 496.99 242.01 496.04 242.01Z" id="dq5fCTdER"></path></defs><g><g><use xlink:href="#d6u7PLWLjb" opacity="1" fill="#33322a" fill-opacity="1"></use><g><use xlink:href="#d6u7PLWLjb" opacity="1" fill-opacity="0" stroke="#33322a" stroke-width="0.75" stroke-opacity="1"></use></g></g><g><use xlink:href="#c2XRopRNPx" opacity="1" fill="#33322a" fill-opacity="1"></use><g><use xlink:href="#c2XRopRNPx" opacity="1" fill-opacity="0" stroke="#33322a" stroke-width="0.75" stroke-opacity="1"></use></g></g><g><use xlink:href="#b1yoj2OAwN" opacity="1" fill="#33322a" fill-opacity="1"></use><g><use xlink:href="#b1yoj2OAwN" opacity="1" fill-opacity="0" stroke="#33322a" stroke-width="0.75" stroke-opacity="1"></use></g></g><g><use xlink:href="#bOOpC4sj7" opacity="1" fill="#33322a" fill-opacity="1"></use><g><use xlink:href="#bOOpC4sj7" opacity="1" fill-opacity="0" stroke="#33322a" stroke-width="0.75" stroke-opacity="1"></use></g></g><g><use xlink:href="#g14pNvZpvV" opacity="1" fill="#33322a" fill-opacity="1"></use><g><use xlink:href="#g14pNvZpvV" opacity="1" fill-opacity="0" stroke="#33322a" stroke-width="0.75" stroke-opacity="1"></use></g></g><g><use xlink:href="#cealuOSnW" opacity="1" fill="#33322a" fill-opacity="1"></use><g><use xlink:href="#cealuOSnW" opacity="1" fill-opacity="0" stroke="#33322a" stroke-width="0.75" stroke-opacity="1"></use></g></g><g><use xlink:href="#a6twHNW02" opacity="1" fill="#33322a" fill-opacity="1"></use><g><use xlink:href="#a6twHNW02" opacity="1" fill-opacity="0" stroke="#33322a" stroke-width="0.75" stroke-opacity="1"></use></g></g><g><use xlink:href="#b5lfdmSDBz" opacity="1" fill="#000000" fill-opacity="0"></use><g><use xlink:href="#b5lfdmSDBz" opacity="1" fill-opacity="0" stroke="#33322a" stroke-width="6" stroke-opacity="1"></use></g></g><g><use xlink:href="#c2771qp0Ea" opacity="1" fill="#4c4c4b" fill-opacity="1"></use><g><use xlink:href="#c2771qp0Ea" opacity="1" fill-opacity="0" stroke="#000000" stroke-width="1" stroke-opacity="0"></use></g></g><g><use xlink:href="#b8L1MXpvK" opacity="1" fill="#4c4c4b" fill-opacity="1"></use><g><use xlink:href="#b8L1MXpvK" opacity="1" fill-opacity="0" stroke="#33322a" stroke-width="6" stroke-opacity="1"></use></g></g><g><use xlink:href="#b5YVluS2c" opacity="1" fill="#4c4c4b" fill-opacity="1"></use><g><use xlink:href="#b5YVluS2c" opacity="1" fill-opacity="0" stroke="#33322a" stroke-width="6" stroke-opacity="1"></use></g></g><g><use xlink:href="#b1PimAyRKN" opacity="1" fill="#ffffff" fill-opacity="1"></use><g><use xlink:href="#b1PimAyRKN" opacity="1" fill-opacity="0" stroke="#33322a" stroke-width="6" stroke-opacity="1"></use></g></g><g><use xlink:href="#a3EpwMfwZA" opacity="1" fill="#33322a" fill-opacity="1"></use><g><use xlink:href="#a3EpwMfwZA" opacity="1" fill-opacity="0" stroke="#00a758" stroke-width="6" stroke-opacity="1"></use></g></g><g><use xlink:href="#dq5fCTdER" opacity="1" fill="#ffffff" fill-opacity="1"></use><g><use xlink:href="#dq5fCTdER" opacity="1" fill-opacity="0" stroke="#ffffff" stroke-width="1" stroke-opacity="1"></use></g></g></g></svg>