<svg width="48" height="48" xmlns="http://www.w3.org/2000/svg">

 <g>
  <title>background</title>
  <rect fill="none" id="canvas_background" height="50" width="50" y="-1" x="-1"/>
 </g>
 <g>
  <title>Layer 1</title>
  <path fill="#ffffff" id="svg_3" d="m26,48l-4,0c-1.653999,0 -3,-1.346001 -3,-3l0,-3.723999c-1.280001,-0.370003 -2.511999,-0.881001 -3.681,-1.527l-2.634,2.634998c-1.134001,1.134003 -3.109,1.132 -4.243,0l-2.829,-2.827999c-0.567,-0.565998 -0.879,-1.32 -0.879,-2.120998s0.312,-1.555 0.879,-2.121002l2.635,-2.635998c-0.645,-1.166002 -1.156,-2.398001 -1.525,-3.679001l-3.723,0c-1.654,0 -3,-1.346001 -3,-3l0,-4c0,-0.802 0.312,-1.555 0.878,-2.121c0.567,-0.566 1.32,-0.879 2.122,-0.879l3.724,0c0.37,-1.278 0.88,-2.511 1.526,-3.679001l-2.634,-2.634999c-1.17,-1.17 -1.17,-3.072001 0,-4.242001l2.828,-2.829c1.132999,-1.132 3.109,-1.134 4.243,0l2.634999,2.635c1.168,-0.645 2.400001,-1.156 3.678,-1.525l0,-3.724c0,-1.654 1.346001,-3 3,-3l4,0c1.653999,0 3,1.346 3,3l0,3.724c1.280001,0.37 2.511999,0.881 3.678001,1.525l2.634998,-2.635c1.133999,-1.132 3.109001,-1.134 4.243,0l2.828999,2.828001c0.567001,0.566 0.879002,1.32 0.879002,2.120999s-0.312,1.555 -0.879002,2.121l-2.633999,2.635c0.646,1.167999 1.157001,2.4 1.526001,3.68l3.723,0c1.653999,0 3,1.345999 3,3l0,4c0,0.802 -0.312,1.555 -0.877998,2.121s-1.320004,0.879 -2.122002,0.879l-3.723999,0c-0.370003,1.279999 -0.881001,2.512999 -1.526001,3.68l2.633999,2.634998c1.170002,1.170002 1.170002,3.072002 0,4.242001l-2.827999,2.828999c-1.133999,1.133003 -3.109001,1.133003 -4.243,0l-2.632999,-2.634998c-1.168001,0.646 -2.401001,1.155998 -3.679001,1.526001l0,3.723999c-0.000999,1.653999 -1.345999,3 -3.000999,3zm-10.843,-10.501999c0.179001,0 0.360001,0.048 0.521001,0.146c1.415999,0.865997 2.949,1.501999 4.557,1.890999c0.448999,0.109001 0.764999,0.509998 0.764999,0.972l0,4.493c0,0.551998 0.448999,1 1,1l4,0c0.551001,0 1,-0.448002 1,-1l0,-4.493c0,-0.462002 0.316,-0.862999 0.764999,-0.972c1.606001,-0.389 3.139,-1.022999 4.556,-1.889999c0.396,-0.241001 0.902,-0.18 1.229,0.146l3.178001,3.179001c0.375,0.374001 1.038998,0.375999 1.415001,0l2.827999,-2.829002c0.389999,-0.389999 0.389999,-1.023998 0,-1.413998l-3.179001,-3.179001c-0.327,-0.326 -0.387001,-0.834999 -0.146,-1.229c0.865002,-1.414 1.5,-2.947001 1.889,-4.556c0.108002,-0.449001 0.509998,-0.766001 0.972,-0.766001l4.493,0c0.266998,0 0.519001,-0.104 0.708,-0.292999c0.188,-0.186001 0.292,-0.437 0.292,-0.705l0,-4c0,-0.552 -0.449001,-1 -1,-1l-4.493,0c-0.462002,0 -0.863998,-0.316 -0.972,-0.766001c-0.388,-1.607 -1.022999,-3.139999 -1.889,-4.556c-0.241001,-0.394 -0.181,-0.901 0.146,-1.229l3.179001,-3.179c0.186001,-0.187 0.292999,-0.444 0.292999,-0.707s-0.106998,-0.521 -0.292999,-0.707001l-2.829002,-2.828c-0.377998,-0.377 -1.036999,-0.377 -1.414997,0l-3.179001,3.179c-0.326,0.328 -0.833,0.389 -1.229,0.146c-1.413,-0.864 -2.945,-1.5 -4.554001,-1.889c-0.448,-0.107 -0.764999,-0.508 -0.764999,-0.97l0,-4.493c0,-0.552 -0.448999,-1 -1,-1l-4,0c-0.551001,0 -1,0.448 -1,1l0,4.493c0,0.462 -0.316,0.863 -0.764999,0.972c-1.606001,0.388 -3.139,1.023 -4.556001,1.889c-0.395,0.241 -0.901999,0.181 -1.228,-0.146l-3.179,-3.179c-0.378,-0.377 -1.037001,-0.377 -1.415,0l-2.827,2.828001c-0.39,0.389999 -0.39,1.023999 0,1.414l3.178999,3.179c0.327001,0.326 0.387,0.835 0.146,1.229c-0.865999,1.415999 -1.500999,2.949 -1.889,4.554999c-0.108,0.449001 -0.51,0.766001 -0.972,0.766001l-4.494,0c-0.267,0 -0.519,0.104 -0.708,0.292999c-0.188,0.187 -0.292,0.438002 -0.292,0.706001l0,4c0,0.552 0.449,1 1,1l4.493,0c0.462,0 0.864,0.316 0.972,0.765999c0.389,1.608 1.024,3.141001 1.889,4.555c0.241,0.394001 0.181,0.901001 -0.146,1.229l-3.179,3.18c-0.186,0.187 -0.293,0.444 -0.293,0.707001s0.107,0.521 0.293,0.707001l2.829,2.827999c0.377,0.376999 1.037001,0.376999 1.415,0l3.178,-3.179001c0.191999,-0.194 0.447,-0.293999 0.705999,-0.293999z"/>
  <path fill="#ffffff" id="svg_5" d="m24,34c-5.514,0 -10,-4.486 -10,-10s4.486,-10 10,-10s10,4.486 10,10s-4.485001,10 -10,10zm0,-18c-4.410999,0 -8,3.589001 -8,8s3.589001,8 8,8s8,-3.589001 8,-8s-3.587999,-8 -8,-8z"/>
 </g>
</svg>