<svg xmlns="http://www.w3.org/2000/svg" viewBox="0 0 748.7 155.42"><defs><style>.cls-1,.cls-8{fill:#33322a;}.cls-1,.cls-3,.cls-5,.cls-6,.cls-7{stroke:#33322a;}.cls-1,.cls-3,.cls-5,.cls-6,.cls-7,.cls-8,.cls-9{stroke-miterlimit:10;}.cls-1{stroke-width:0.75px;}.cls-2{fill:#016735;}.cls-3{fill:none;}.cls-3,.cls-6{stroke-linecap:round;}.cls-3,.cls-5,.cls-6,.cls-7,.cls-8{stroke-width:6px;}.cls-4,.cls-5,.cls-6{fill:#4c4c4b;}.cls-7,.cls-9{fill:#fff;}.cls-8{stroke:#00a758;}.cls-9{stroke:#fff;}</style></defs><title>Asset 4</title><g id="Layer_2" data-name="Layer 2"><g id="Layer_1-2" data-name="Layer 1"><rect class="cls-1" x="71.59" y="29.11" width="7.56" height="95.41" rx="3.78"/><rect class="cls-1" x="89.39" y="63.04" width="7.56" height="27.56" rx="3.78"/><rect class="cls-1" x="107.19" y="4.71" width="7.56" height="144.22" rx="3.78"/><rect class="cls-1" x="124.99" y="0.37" width="7.56" height="154.67" rx="3.78"/><rect class="cls-1" x="142.8" y="26.63" width="7.56" height="101.26" rx="3.78"/><rect class="cls-1" x="160.6" y="37.83" width="7.56" height="78.87" rx="3.78"/><rect class="cls-1" x="178.4" y="8.71" width="7.56" height="137.11" rx="3.78"/><rect class="cls-1" x="196.2" y="31.71" width="7.56" height="92.89" rx="3.78"/><rect class="cls-1" x="0.38" y="49.9" width="7.56" height="55.62" rx="3.78"/><rect class="cls-1" x="18.18" y="24.04" width="7.56" height="107.33" rx="3.78"/><rect class="cls-1" x="35.98" y="29.04" width="7.56" height="97.33" rx="3.78"/><rect class="cls-1" x="53.78" y="15.37" width="7.56" height="126.44" rx="3.78"/><path class="cls-2" d="M269.22,43.34a4,4,0,0,1,3.5-4,94,94,0,0,1,12-.77c8.55,0,14.18,1.63,18.07,5.14a15.57,15.57,0,0,1,4.89,11.84c0,8.19-5.23,13.64-11.75,15.89v.23c4.75,1.66,7.62,6.16,9.14,12.62,1.17,5,2.15,9,3,12.06a4,4,0,0,1-3.84,5h0a4,4,0,0,1-3.79-2.75c-.84-2.68-1.87-6.85-3-12.18-1.85-8.53-5.22-11.84-12.51-12.09h-3.64a4,4,0,0,0-4,4v19a4,4,0,0,1-4,4h-.07a4,4,0,0,1-4-4Zm8,21a4,4,0,0,0,4,4h4.24c8.62,0,14.08-4.69,14.08-11.84,0-8.09-5.84-11.61-14.33-11.62-1.69,0-3.16.06-4.39.17a4,4,0,0,0-3.58,4Z"/><path class="cls-2" d="M326.94,80.54a3,3,0,0,0-3,3.38c1.41,8.55,7.74,12.15,15,12.15a32.2,32.2,0,0,0,9.46-1.24A3,3,0,0,1,352.16,97h0a3,3,0,0,1-1.94,3.56,38.94,38.94,0,0,1-12.35,1.85c-13.75,0-22-9.16-22-22.58s8-24.14,21-24.14c14.6,0,18.41,12.8,18.41,21,0,.3,0,.58,0,.85a3,3,0,0,1-3,3Zm17.29-5.85a3,3,0,0,0,3-3.45c-.84-4.65-3.7-9.72-10.94-9.72-6.42,0-10,4.48-11.58,9.13a3,3,0,0,0,2.82,4Z"/><path class="cls-2" d="M365.46,68.79c0-3.36-.08-6.22-.21-8.94a3,3,0,0,1,3-3.14h1.2a3,3,0,0,1,3,2.82l.27,4.53H373a16.51,16.51,0,0,1,14.79-8.37c6.14,0,15.76,3.7,15.76,19.06V98.44a3,3,0,0,1-3,3h-2.09a3,3,0,0,1-3-3V75.65c0-7.23-2.73-13.29-10.34-13.29a11.72,11.72,0,0,0-11,8.35,12.52,12.52,0,0,0-.56,3.77v24a3,3,0,0,1-3,3h-2.09a3,3,0,0,1-3-3Z"/><path class="cls-2" d="M452.39,35.77a3,3,0,0,1,3,3V89.9c0,2.78.08,5.8.2,8.42a3,3,0,0,1-3,3.12h-1.21a3,3,0,0,1-3-2.84l-.26-4.9h-.22c-2.49,5-7.87,8.75-15.17,8.75-10.84,0-19.2-9.16-19.2-22.72-.07-15,9.21-24,20.1-24,6.87,0,11.49,3.22,13.49,6.79h.19V38.77a3,3,0,0,1,3-3Zm-5.08,39.14a17.17,17.17,0,0,0-.34-3.48,12,12,0,0,0-11.78-9.36c-8.43,0-13.46,7.39-13.46,17.22,0,9.08,4.52,16.62,13.29,16.62a12.27,12.27,0,0,0,11.89-9.76,13.27,13.27,0,0,0,.4-3.49Z"/><path class="cls-2" d="M476.78,80.54a3,3,0,0,0-3,3.38c1.41,8.55,7.74,12.15,15,12.15a32.2,32.2,0,0,0,9.46-1.24A3,3,0,0,1,502,97h0a3,3,0,0,1-1.94,3.56,38.94,38.94,0,0,1-12.35,1.85c-13.75,0-22-9.16-22-22.58s8-24.14,21-24.14c14.6,0,18.41,12.8,18.41,21,0,.3,0,.58,0,.85a3,3,0,0,1-3,3Zm17.29-5.85a3,3,0,0,0,3-3.45c-.84-4.65-3.7-9.72-10.94-9.72-6.42,0-10,4.48-11.58,9.13a3,3,0,0,0,2.82,4Z"/><path class="cls-2" d="M510,97.72a3,3,0,0,1,.62-1.83L530.25,70.4c2-2.49,3.8-4.61,5.88-7v-.19H514.82a3,3,0,0,1-3-3v-.5a3,3,0,0,1,3-3H543a3,3,0,0,1,3,3v1a3.08,3.08,0,0,1-.62,1.8L526,87.79c-1.92,2.41-3.76,4.71-5.75,6.95v.19h23.13a3,3,0,0,1,3,3v.51a3,3,0,0,1-3,3H513a3,3,0,0,1-3-3Z"/><path class="cls-2" d="M568,99.37,549.56,43a3,3,0,0,1,2.85-3.93h2.41a3,3,0,0,1,2.86,2.1l9,28.63c2.68,8.41,5,16,6.67,23.26h.22c1.74-7.2,4.3-15,7.09-23.16l9.85-28.8a3,3,0,0,1,2.84-2h2.21a3,3,0,0,1,2.82,4L578.28,99.45a3,3,0,0,1-2.83,2h-4.59A3,3,0,0,1,568,99.37Z"/><path class="cls-2" d="M643.75,78.64c0,16.57-11.5,23.81-22.25,23.81-12.13,0-21.5-8.84-21.5-23,0-15,9.84-23.72,22.21-23.72C635.07,55.69,643.75,65,643.75,78.64Zm-35.47.52c0,9.81,5.62,17.2,13.56,17.2s13.63-7.29,13.63-17.44c0-7.57-3.82-17.13-13.48-17.13S608.28,70.68,608.28,79.16Z"/><path class="cls-2" d="M659.34,39.1a3,3,0,0,1,3,3V76c0,13.91,6.17,19.81,14.58,19.81,9.18,0,15.16-6.11,15.16-19.81V42.1a3,3,0,0,1,3-3h2.09a3,3,0,0,1,3,3V75.47c0,19.16-10.07,27-23.59,27-12.72,0-22.33-7.26-22.33-26.63V42.1a3,3,0,0,1,3-3Z"/><path class="cls-2" d="M712,95a3,3,0,0,1,4.07-1.83,28.5,28.5,0,0,0,11.39,2.45c8.24,0,13.08-4.3,13.08-10.61,0-5.78-3.38-9.18-11.79-12.33-10.18-3.61-16.49-9-16.49-17.69,0-9.7,8.07-16.9,20.21-16.9a32,32,0,0,1,11.13,1.81,3,3,0,0,1,1.75,3.77l-.29.86a3,3,0,0,1-3.9,1.83,25,25,0,0,0-9-1.62c-8.56,0-11.79,5.08-11.79,9.32,0,5.79,3.79,8.65,12.39,12,10.58,4.15,15.9,9.22,15.9,18.36,0,9.57-7,18-21.81,18a35.05,35.05,0,0,1-13.56-2.78A3,3,0,0,1,711.7,96Z"/><path class="cls-3" d="M215.4,91.76v16.12c0,11.23,9.49,20.42,21.09,20.42h0c11.6,0,21.09-9.19,21.09-20.42V91.76"/><rect class="cls-4" x="222.84" y="62.7" width="27.29" height="58.11" rx="13.65"/><line class="cls-5" x1="236.49" y1="137.86" x2="236.49" y2="129.29"/><line class="cls-6" x1="249.3" y1="137.9" x2="223.69" y2="137.9"/><circle class="cls-7" cx="236.49" cy="35.09" r="17.57"/><circle class="cls-8" cx="236.49" cy="34.49" r="8.14"/><circle class="cls-9" cx="234.23" cy="31.12" r="2.03"/></g></g></svg>