<?xml version="1.0" standalone="no"?>
<!DOCTYPE svg PUBLIC "-//W3C//DTD SVG 20010904//EN"
 "http://www.w3.org/TR/2001/REC-SVG-20010904/DTD/svg10.dtd">
<svg version="1.0" xmlns="http://www.w3.org/2000/svg"
 width="1794.000000pt" height="1080.000000pt" viewBox="0 0 1794.000000 1080.000000"
 preserveAspectRatio="xMidYMid meet">
<metadata>
Created by potrace 1.15, written by Peter Selinger 2001-2017
</metadata>
<g transform="translate(0.000000,1080.000000) scale(0.100000,-0.100000)"
fill="#000000" stroke="none">
<path d="M1305 10603 c3 -109 10 -442 16 -740 8 -436 8 -549 -2 -578 l-13 -35
-381 5 c-209 3 -503 7 -652 11 l-273 6 0 -316 0 -316 643 -2 c1034 -5 943 -6
1013 20 119 45 148 107 139 291 -2 47 -7 412 -10 811 -4 399 -9 752 -11 785
-2 33 -4 104 -4 158 l0 97 -236 0 -235 0 6 -197z"/>
<path d="M13693 10785 c-7 -8 -13 -18 -13 -23 0 -5 -9 -17 -20 -27 -11 -10
-20 -23 -20 -30 0 -7 -9 -20 -19 -29 -15 -13 -20 -14 -24 -4 -3 9 -7 7 -13 -6
-5 -13 -3 -21 4 -24 8 -2 3 -14 -13 -34 -14 -16 -25 -35 -25 -43 0 -7 -7 -18
-15 -25 -8 -7 -15 -21 -15 -31 0 -11 -7 -19 -15 -19 -8 0 -15 -7 -15 -15 0 -8
-4 -15 -10 -15 -5 0 -10 -9 -10 -20 0 -11 -5 -20 -11 -20 -17 0 -39 -27 -39
-48 0 -11 -7 -25 -15 -32 -8 -7 -15 -20 -15 -29 0 -10 -7 -26 -15 -37 -8 -10
-15 -26 -15 -35 0 -9 -9 -19 -20 -22 -13 -3 -20 -14 -20 -28 0 -35 -40 -109
-58 -109 -13 0 -14 -2 -4 -9 10 -6 10 -10 -3 -21 -17 -14 -20 -40 -5 -40 6 0
10 -4 10 -9 0 -5 -9 -7 -20 -4 -16 4 -20 0 -20 -18 0 -34 -22 -89 -36 -89 -7
0 -25 -5 -39 -10 -23 -9 -25 -13 -15 -25 8 -10 9 -15 1 -15 -7 0 -8 -11 -4
-32 4 -21 3 -29 -5 -24 -15 9 -32 -26 -32 -68 l0 -36 60 0 60 0 -1 -42 c-1
-28 -3 -34 -6 -17 -4 24 -9 27 -65 33 -92 9 -98 8 -98 -14 0 -17 7 -20 40 -20
22 0 40 -4 40 -10 0 -5 15 -10 33 -11 l32 0 -32 -16 c-41 -21 -41 -27 -2 -43
25 -11 28 -15 15 -22 -10 -6 -16 -22 -16 -43 0 -32 -2 -35 -30 -35 -28 0 -30
-3 -30 -35 0 -30 3 -35 25 -36 14 -1 33 -2 43 -3 13 -1 18 8 20 37 4 47 22 49
22 1 0 -28 8 -43 40 -74 22 -21 40 -48 40 -59 0 -18 6 -21 40 -21 29 0 40 4
40 15 0 8 7 15 15 15 12 0 15 -16 15 -80 0 -79 0 -80 -25 -80 -22 0 -25 4 -25
40 0 33 -3 40 -20 40 -17 0 -20 -7 -20 -40 0 -22 -4 -40 -10 -40 -5 0 -10 -18
-10 -40 l0 -40 48 0 c26 -1 58 -7 72 -15 36 -20 40 -19 40 15 0 20 5 30 15 30
8 0 15 -7 15 -15 0 -8 7 -15 16 -15 12 0 15 -8 11 -36 -4 -25 -1 -37 9 -41 8
-3 14 -18 14 -34 0 -27 -3 -29 -40 -29 -33 0 -40 -3 -40 -20 0 -17 7 -20 40
-20 22 0 40 5 40 10 0 6 18 10 40 10 36 0 40 -2 40 -25 0 -23 -4 -25 -41 -25
-22 0 -38 3 -36 8 3 4 -15 5 -39 3 -55 -4 -58 -21 -4 -21 22 0 40 -4 40 -10 0
-6 33 -10 80 -10 l80 0 0 -40 0 -40 -40 0 -40 0 0 -40 0 -40 40 0 c29 0 40 -4
40 -15 0 -11 -11 -15 -40 -15 l-40 0 0 -45 c0 -35 4 -45 16 -45 9 0 18 9 21
20 3 11 12 20 20 20 12 0 14 -9 10 -40 -3 -23 -1 -40 6 -43 6 -2 -4 -9 -21
-16 -18 -8 -32 -17 -32 -21 0 -13 53 -32 59 -21 4 5 28 11 55 12 37 2 50 -1
58 -14 11 -20 44 -23 51 -4 4 10 7 10 18 0 11 -11 10 -13 -4 -13 -13 0 -17 -9
-17 -40 0 -29 4 -40 15 -40 11 0 15 -11 15 -40 0 -36 3 -40 25 -40 14 0 25 -4
25 -10 0 -5 -18 -10 -40 -10 -29 0 -40 -4 -40 -15 0 -11 -11 -15 -40 -15 -29
0 -40 -4 -40 -15 0 -11 11 -15 40 -15 22 0 40 5 40 10 0 6 18 10 40 10 22 0
40 -4 40 -9 0 -5 14 -14 30 -21 17 -7 30 -17 30 -22 0 -5 6 -6 13 -2 8 5 8 2
-2 -9 -7 -9 -22 -17 -32 -17 -11 0 -19 -4 -19 -10 0 -17 -18 -11 -23 8 -4 15
-5 15 -6 0 -1 -10 -11 -18 -27 -20 l-26 -3 19 -24 c17 -21 28 -24 72 -22 44 2
51 -1 51 -17 0 -15 -7 -18 -32 -18 -23 1 -33 -4 -33 -14 0 -11 14 -15 58 -15
48 -1 61 3 73 19 14 20 14 20 14 -7 0 -19 -5 -27 -17 -27 -21 -1 -63 -33 -63
-48 0 -6 -8 -13 -17 -15 -17 -4 -17 -5 0 -6 35 -2 15 -21 -23 -21 -29 0 -40 4
-40 15 0 10 -10 15 -30 15 -36 0 -38 -7 -7 -20 15 -6 -7 -9 -75 -9 -82 -1 -98
1 -98 15 0 8 -5 12 -10 9 -6 -4 -8 -11 -5 -16 4 -5 -27 -9 -72 -10 -43 -1
-109 -2 -148 -3 -38 -2 -446 -6 -905 -10 -459 -4 -896 -11 -970 -16 -74 -6
-141 -10 -147 -10 -7 0 -13 -7 -13 -15 0 -9 -9 -15 -25 -15 -14 0 -28 -7 -31
-15 -4 -8 -16 -15 -28 -15 -11 0 -30 -7 -40 -15 -11 -8 -27 -15 -36 -15 -10 0
-39 -11 -65 -25 -26 -14 -50 -24 -52 -21 -3 2 -13 -4 -22 -13 -10 -10 -40 -21
-67 -25 -71 -10 -114 -26 -114 -41 0 -8 -7 -11 -18 -8 -11 2 -37 -4 -58 -14
-36 -17 -85 -18 -729 -21 -440 -1 -685 1 -675 7 27 18 2 23 -31 7 -26 -13 -68
-16 -229 -16 -347 0 -680 12 -680 25 0 6 17 12 37 13 20 2 42 7 48 12 6 5 30
12 54 16 23 4 48 12 54 19 18 18 9 109 -12 120 -10 6 -45 29 -80 52 -86 58
-166 83 -266 83 -140 0 -255 -43 -342 -127 -24 -24 -48 -43 -52 -43 -13 0 -18
-20 -16 -62 2 -51 19 -68 69 -68 22 0 50 -8 61 -16 18 -15 -56 -16 -835 -10
-470 4 -961 10 -1090 14 -129 4 -276 7 -327 7 -79 0 -90 2 -83 15 8 15 0 17
-52 11 -5 -1 -8 -8 -8 -16 0 -8 -4 -15 -10 -15 -5 0 -10 9 -10 20 0 16 -7 20
-37 20 -42 0 -123 28 -123 42 0 6 -21 8 -47 6 -32 -2 -61 3 -86 15 -21 10 -59
19 -85 20 -26 1 -50 5 -53 9 -3 5 -31 13 -62 18 -31 5 -66 14 -78 21 -12 6
-36 13 -53 15 -17 2 -69 8 -116 13 -163 19 -186 22 -290 27 -121 6 -145 12
-115 25 17 8 15 8 -7 4 -14 -3 -28 -1 -30 4 -2 5 -66 12 -143 16 -77 3 -156 8
-175 9 -62 6 -663 16 -1175 21 -275 2 -691 7 -925 10 -234 3 -663 8 -954 10
-466 3 -531 6 -538 19 -11 20 -44 21 -55 2 -7 -13 -51 -15 -271 -13 l-262 2 0
-1511 c0 -1074 3 -1513 11 -1521 8 -8 8 -13 0 -17 -8 -5 -11 -97 -11 -291 l0
-284 33 4 c88 12 116 9 136 -16 11 -13 21 -28 21 -34 0 -5 11 -22 24 -37 18
-20 42 -30 96 -42 39 -8 74 -17 76 -19 3 -3 -53 -35 -123 -72 -70 -37 -158
-88 -195 -114 l-68 -46 0 -177 c0 -136 3 -178 13 -178 8 0 7 -4 -3 -11 -11 -8
-6 -9 20 -5 114 20 130 19 218 -9 48 -16 92 -29 99 -31 28 -7 111 -233 123
-338 7 -55 20 -103 42 -148 l31 -66 -37 -39 c-82 -84 -106 -155 -83 -236 9
-28 21 -99 27 -157 16 -155 18 -162 57 -205 65 -74 81 -123 99 -311 23 -226
12 -265 -54 -190 -36 41 -48 78 -56 171 -10 114 -16 148 -31 190 -13 36 -14
37 -15 12 0 -16 -4 -26 -10 -22 -5 3 -10 0 -10 -7 0 -8 -5 -19 -12 -26 -10
-10 -31 -59 -43 -102 -10 -33 -27 -96 -32 -118 -3 -12 -9 -25 -14 -28 -5 -3
-9 -19 -9 -35 0 -17 -4 -28 -9 -25 -4 3 -6 -6 -3 -19 2 -15 0 -25 -7 -25 -6 0
-11 -10 -11 -22 0 -14 -4 -18 -9 -12 -19 18 -153 441 -182 574 -106 474 -97
488 -98 -150 l-1 -545 29 -62 c17 -34 48 -89 70 -122 23 -33 41 -62 41 -65 0
-2 -27 -31 -61 -62 -56 -55 -59 -59 -38 -66 24 -9 55 -2 76 16 28 24 40 34 61
45 20 10 23 9 31 -11 5 -13 7 -26 4 -31 -2 -4 3 -7 11 -7 9 0 35 -17 57 -38
23 -20 45 -36 48 -36 3 1 16 -2 29 -7 13 -5 28 -9 33 -9 5 0 9 -4 9 -9 0 -5
28 -19 63 -31 34 -13 66 -27 72 -32 5 -4 17 -8 26 -8 9 0 22 -7 30 -16 7 -9
22 -14 36 -11 13 2 26 0 29 -4 3 -5 14 -9 25 -9 10 0 19 -4 19 -10 0 -5 15
-10 33 -10 18 0 50 -9 71 -20 30 -15 59 -19 135 -19 223 0 261 -1 261 -11 0
-5 -9 -10 -20 -10 -11 0 -20 -4 -20 -10 0 -5 9 -10 20 -10 11 0 20 4 20 9 0
14 44 21 55 9 7 -7 6 -12 -2 -15 -7 -3 -13 -16 -13 -29 0 -18 -5 -25 -17 -23
-25 4 -144 -12 -168 -22 -28 -11 506 -11 585 1 36 5 102 10 147 11 46 1 83 6
83 10 0 5 11 7 24 3 14 -3 64 -1 113 5 142 17 167 19 388 31 350 18 708 40
735 46 48 11 61 16 56 21 -12 12 25 33 58 33 20 0 36 5 36 10 0 6 -18 10 -40
10 -22 0 -40 5 -40 10 0 6 35 11 83 11 l82 2 -115 9 c-63 5 -119 9 -125 10 -5
0 -82 -2 -170 -4 -96 -4 -146 -2 -125 3 24 5 6 7 -60 5 -52 -2 -104 0 -115 5
-15 6 -9 8 23 8 25 1 42 6 42 13 0 6 3 9 6 5 3 -3 23 1 45 8 22 8 46 12 53 9
8 -3 36 4 63 15 26 11 73 25 103 32 30 6 82 20 114 30 33 11 68 19 78 19 10 0
18 5 18 10 0 6 10 10 23 10 13 0 29 6 36 13 11 9 14 9 18 0 4 -10 10 -9 26 2
12 8 34 15 49 15 14 0 33 6 40 13 23 23 55 37 86 37 16 0 37 9 46 19 9 10 29
21 44 24 47 9 56 13 120 45 34 18 67 30 72 27 5 -3 11 -1 15 5 3 5 16 10 29
10 13 0 31 12 45 31 12 16 33 34 47 39 13 5 24 14 24 20 0 5 7 10 15 10 8 0
19 9 25 20 6 11 17 20 25 20 8 0 15 7 15 15 0 9 9 15 23 15 12 0 40 9 61 21
21 11 48 18 59 15 20 -5 67 33 67 54 0 5 8 10 18 10 12 0 8 5 -10 14 -16 8
-33 18 -40 22 -26 17 -178 -7 -178 -28 0 -4 -11 -8 -25 -8 -14 0 -25 -4 -25
-8 0 -11 -71 -42 -82 -36 -12 8 -10 42 4 46 7 3 4 11 -9 24 -12 10 -23 30 -25
44 -3 21 1 25 27 28 l30 2 -25 -16 c-14 -9 -17 -13 -7 -10 10 3 23 6 28 6 5 0
9 9 9 19 0 15 12 22 50 31 28 7 50 16 50 21 0 5 7 9 16 9 16 0 148 43 199 65
50 22 169 60 182 59 7 -1 10 2 7 7 -3 5 9 9 26 9 18 0 29 -4 25 -10 -3 -5 1
-10 9 -10 9 0 16 -4 16 -10 0 -5 -9 -10 -21 -10 -39 0 8 -32 53 -36 23 -1 44
-6 47 -11 3 -5 18 -14 34 -21 19 -8 29 -22 34 -43 3 -17 12 -33 19 -36 8 -3
11 -10 7 -16 -10 -16 -3 -91 8 -98 6 -3 3 -11 -6 -19 -8 -7 -15 -19 -15 -27 0
-13 10 -15 51 -11 35 4 55 1 64 -8 7 -8 23 -14 35 -14 19 0 22 4 17 32 -3 18
-2 56 3 83 l7 50 2 -50 c1 -46 13 -75 32 -75 10 0 19 58 12 77 -6 15 -7 15
-14 -3 -6 -14 -8 -10 -8 16 -1 26 2 31 9 20 8 -12 10 -11 8 5 -2 11 4 44 11
72 15 53 15 53 55 54 23 1 54 0 70 -1 16 -1 33 4 37 12 7 10 9 10 9 1 0 -25
195 -2 195 23 0 19 17 34 39 34 27 0 76 35 76 54 0 7 20 21 45 30 42 16 62 46
31 46 -20 0 -107 51 -113 66 -3 8 -11 14 -19 14 -8 0 -14 9 -14 20 0 37 -22
70 -47 70 -12 0 -23 4 -23 10 0 11 53 40 73 40 8 0 47 16 86 35 39 19 74 35
78 35 5 0 25 9 46 20 23 13 47 18 60 15 17 -5 19 -4 7 4 -17 12 -19 12 150 16
109 3 149 9 188 28 12 6 44 11 71 11 27 1 44 4 38 8 -18 12 2 10 88 -8 71 -15
127 -14 169 2 9 3 16 1 16 -5 0 -6 -8 -11 -17 -11 -24 -1 -84 -50 -61 -50 9 0
18 5 20 11 2 6 16 13 30 14 15 2 33 7 40 12 13 8 111 33 138 35 8 1 40 0 70
-2 62 -3 142 6 183 22 19 7 31 7 40 0 7 -6 55 -18 107 -26 83 -14 97 -14 123
-1 17 8 38 15 49 15 22 0 24 18 2 27 -15 6 -15 8 2 20 11 8 46 13 96 13 51 0
78 4 78 11 0 8 6 7 17 -2 11 -10 17 -10 20 -3 3 8 77 10 256 7 139 -2 258 -6
265 -8 7 -3 12 -21 12 -44 l0 -40 53 -5 c28 -3 70 -8 92 -9 22 -2 -2 -4 -52
-5 -86 -2 -93 -4 -93 -22 0 -19 7 -20 115 -20 93 0 115 -3 115 -14 0 -9 9 -14
24 -13 46 4 31 -15 -29 -38 -39 -14 -54 -24 -45 -28 8 -4 -10 -5 -40 -2 -58 5
-141 -13 -148 -33 -3 -11 60 -18 123 -14 11 0 128 2 260 2 132 1 274 6 315 11
41 5 217 18 390 29 213 14 341 26 395 39 44 11 141 27 215 36 74 9 143 21 152
26 22 12 88 8 88 -4 0 -5 7 -3 16 4 20 17 31 18 134 23 47 2 92 7 100 10 9 4
63 11 120 16 58 5 116 11 130 13 14 2 66 7 115 11 50 4 101 12 115 17 27 10
121 19 238 22 39 1 72 6 72 10 0 5 39 6 88 2 48 -3 101 -5 117 -5 20 0 41 -10
62 -30 35 -33 49 -37 56 -17 3 7 6 5 6 -5 1 -25 21 -23 21 2 0 10 9 24 21 30
30 17 46 -2 54 -65 4 -32 15 -64 26 -77 l20 -23 -6 38 c-3 22 -2 37 4 37 15 0
31 -34 31 -64 0 -31 20 -34 27 -5 6 21 6 21 19 -2 l13 -24 1 23 c0 13 6 22 15
22 19 0 35 40 35 90 0 61 22 78 113 85 l77 6 0 -45 c0 -37 5 -49 24 -61 13 -8
31 -13 40 -9 11 4 16 1 16 -10 0 -9 6 -16 14 -16 18 0 10 68 -11 88 -18 18
-17 21 10 15 12 -3 43 -29 69 -57 28 -31 55 -51 68 -51 13 0 28 -9 34 -20 28
-49 94 -120 147 -156 33 -22 59 -44 59 -49 0 -6 7 -10 15 -10 8 0 15 -4 15 -9
0 -5 12 -11 28 -13 19 -2 28 -9 30 -26 3 -20 9 -23 50 -23 26 0 68 -2 93 -5
45 -6 47 -5 58 27 6 17 11 40 11 50 0 11 7 19 15 19 8 0 15 -3 15 -8 0 -4 18
-18 40 -32 22 -14 40 -28 40 -32 0 -5 8 -8 18 -8 10 0 31 -14 47 -30 21 -22
38 -30 62 -30 18 0 33 5 33 11 0 6 9 8 20 4 13 -4 22 -1 26 9 3 9 15 16 25 16
10 0 19 4 19 9 0 5 20 19 44 31 33 16 54 20 83 15 62 -11 183 -55 183 -67 0
-4 21 -8 47 -10 39 -2 49 -7 51 -23 3 -11 1 -17 -3 -13 -4 4 -16 3 -26 -3 -14
-7 -19 -21 -19 -54 0 -41 2 -45 25 -45 16 0 25 -6 25 -16 0 -8 11 -32 25 -52
23 -33 33 -39 103 -55 42 -9 84 -19 92 -21 8 -2 29 -8 45 -12 17 -4 36 -16 43
-26 8 -10 21 -17 30 -16 10 2 21 -7 27 -19 8 -19 18 -23 52 -23 31 0 43 -4 43
-14 0 -8 8 -14 19 -13 23 1 101 -23 120 -37 10 -8 15 -8 18 2 3 6 9 12 14 12
6 0 6 -7 0 -19 -10 -17 -5 -19 65 -23 42 -3 79 -10 83 -15 3 -5 29 -13 56 -16
28 -4 91 -13 140 -22 50 -8 144 -22 210 -30 66 -8 136 -17 155 -21 47 -8 94
-12 228 -20 62 -4 115 -11 118 -15 8 -14 6 -14 -371 -23 -369 -8 -554 -14
-710 -22 -114 -6 -220 -9 -490 -13 -66 -1 -112 -6 -102 -10 16 -6 17 -9 4 -19
-18 -15 -48 -6 -41 13 6 13 -326 14 -968 1 -161 -3 -432 -8 -603 -11 -170 -3
-481 -10 -690 -15 -742 -20 -1132 -30 -1265 -35 -74 -3 -286 -10 -470 -16
-184 -5 -436 -15 -560 -20 -124 -6 -310 -12 -415 -14 -104 -2 -233 -7 -285
-10 -52 -3 -151 -7 -220 -10 -135 -6 -421 -20 -730 -35 -107 -5 -249 -12 -315
-15 -66 -3 -205 -10 -310 -15 -104 -5 -293 -14 -420 -20 -126 -6 -288 -15
-360 -20 -71 -5 -206 -12 -300 -15 -93 -3 -197 -8 -230 -10 -33 -3 -155 -10
-272 -15 -239 -12 -317 -22 -339 -45 -14 -13 -11 -15 25 -15 29 0 41 -4 41
-14 0 -8 -8 -17 -17 -19 -62 -16 242 -9 467 11 181 16 316 22 472 21 43 0 82
2 88 6 6 4 88 8 183 10 188 3 450 20 537 35 79 13 118 18 98 13 -10 -2 -18 -9
-18 -14 0 -6 5 -7 11 -4 8 6 135 12 282 15 15 0 27 3 27 8 0 4 -19 6 -42 5
-42 -2 -41 -2 12 11 30 7 62 9 70 6 8 -4 21 -5 29 -2 8 2 11 1 8 -4 -6 -10
190 -9 238 1 18 4 25 3 18 -2 -19 -13 138 -5 165 9 17 9 28 8 47 -2 17 -9 41
-11 82 -6 32 4 119 9 193 12 77 3 137 10 141 16 5 7 8 7 10 0 3 -7 71 -8 219
-2 216 10 895 36 1175 45 83 3 269 10 415 15 146 5 324 11 395 14 256 10 1323
36 2085 51 426 8 863 18 970 21 107 4 201 7 208 7 6 0 12 4 12 9 0 10 23 6 31
-6 8 -10 69 14 69 27 0 5 -4 6 -9 2 -5 -3 -12 -1 -16 5 -3 5 3 10 14 10 14 0
21 -6 21 -20 0 -15 7 -20 26 -20 14 0 23 4 19 10 -3 5 3 10 14 10 12 0 21 -4
21 -10 0 -6 32 -9 80 -7 71 2 80 4 91 24 14 26 29 30 29 8 0 -8 7 -15 15 -15
8 0 15 7 15 15 0 9 9 15 23 14 21 0 21 -1 2 -9 -14 -6 7 -9 65 -11 l85 -2 -80
-12 -80 -12 135 0 c74 -1 127 1 118 4 -10 2 -18 9 -18 14 0 12 37 12 42 -1 6
-19 323 -22 918 -11 808 15 1016 20 1145 27 61 3 198 7 305 9 650 15 1035 31
1002 42 -19 7 -3 23 24 23 19 0 24 5 24 24 0 13 -6 26 -12 29 -16 5 -179 2
-558 -12 -157 -6 -472 -11 -701 -11 -228 1 -424 -3 -435 -7 -18 -6 -18 -6 -2
10 9 9 32 17 50 17 18 0 64 7 103 15 38 8 93 15 122 15 28 0 55 5 58 10 3 6
22 10 41 10 19 0 34 4 34 10 0 5 18 13 40 16 22 4 40 10 40 14 0 4 18 10 40
14 21 3 43 12 47 20 12 19 48 36 79 36 33 0 94 20 112 38 7 6 20 12 28 12 8 0
14 6 14 13 0 8 18 19 40 26 22 6 40 16 40 21 0 13 37 50 50 50 5 0 14 -8 20
-18 10 -15 11 -15 7 5 -3 15 -1 20 9 16 8 -3 14 -11 14 -19 0 -10 12 -14 40
-14 22 0 40 5 40 11 0 6 -8 8 -19 4 -10 -3 -23 1 -30 9 -9 11 -6 15 16 19 15
3 30 2 33 -3 3 -4 32 -21 65 -36 33 -15 77 -38 98 -51 21 -13 42 -21 47 -18 6
4 10 2 10 -3 0 -6 10 -8 23 -5 17 4 19 2 7 -6 -12 -9 -12 -11 3 -16 9 -4 23
-1 31 7 12 13 10 17 -17 33 -18 10 -43 27 -57 37 -34 26 -223 149 -348 228
-57 36 -128 82 -158 103 l-55 39 6 43 c4 23 7 60 8 81 0 22 6 46 13 54 10 12
15 81 18 270 6 297 9 338 24 367 7 12 12 42 12 66 0 65 -45 120 -148 183 -2 1
12 27 31 57 51 80 54 105 18 163 -38 63 -46 108 -31 180 16 77 34 110 62 117
151 32 281 79 337 120 13 9 41 17 65 17 65 0 308 30 328 41 31 17 21 45 -32
83 -28 20 -57 36 -65 36 -13 0 -13 3 -3 20 11 17 21 19 72 16 32 -3 64 -10 69
-15 14 -14 107 -14 107 -1 0 5 21 10 48 9 53 0 77 0 142 2 25 1 54 1 65 1 11
-1 47 -1 80 -1 80 1 71 1 147 -5 37 -2 72 -7 78 -11 12 -8 80 15 80 27 0 5 9
4 20 -2 42 -22 79 11 45 40 -8 7 -15 19 -15 26 0 8 -11 14 -26 14 l-27 0 24
23 c27 26 70 42 63 23 -3 -8 33 -12 126 -14 l130 -3 0 1003 c-1 890 -2 1001
-16 983 -8 -11 -21 -28 -29 -38 -25 -29 -33 -87 -19 -135 11 -35 11 -49 -1
-83 -8 -23 -15 -67 -15 -99 0 -57 -15 -159 -25 -169 -3 -2 -13 2 -21 11 -12
11 -28 14 -58 11 -77 -10 -79 -40 -9 -140 43 -61 43 -62 16 -50 -15 7 -75 44
-132 82 -57 39 -111 75 -120 80 -73 44 -302 228 -389 311 -37 35 -70 64 -74
64 -5 0 -8 4 -8 10 0 5 -15 24 -34 42 -49 48 -188 237 -240 327 -29 48 -50 99
-56 132 -23 136 -39 655 -21 719 l7 24 39 -39 c22 -22 74 -81 115 -130 41 -50
94 -110 117 -135 24 -25 43 -48 43 -51 0 -6 98 -98 280 -263 101 -91 301 -237
430 -314 120 -71 211 -122 216 -122 2 0 4 28 4 63 l0 63 -57 28 c-254 124
-708 507 -910 766 -66 86 -78 109 -63 124 12 12 39 13 623 15 l407 2 0 114 c0
111 -1 115 -21 115 -18 0 -19 2 -9 15 11 13 8 15 -15 15 -20 0 -26 -4 -21 -15
4 -10 -1 -15 -14 -15 -11 0 -20 4 -20 10 0 5 -6 8 -12 6 -52 -16 -68 -16 -68
1 -1 16 -2 16 -13 2 -11 -14 -58 -16 -445 -13 -269 1 -438 6 -445 12 -8 7 -17
7 -28 -1 -20 -15 -122 -10 -113 5 4 6 1 14 -6 18 -16 10 20 91 86 198 36 57
50 72 70 72 13 0 41 15 61 34 27 23 51 35 83 39 40 5 52 13 112 78 l67 72 373
47 373 46 3 1317 2 1317 -2117 0 c-1817 -1 -2120 -3 -2130 -15z m1591 -1717
c3 -13 12 -63 20 -113 30 -179 46 -281 51 -315 3 -19 8 -42 10 -50 2 -8 31
-177 64 -375 79 -472 91 -584 67 -623 -4 -7 -1 -15 8 -18 30 -11 16 -24 -25
-24 -37 0 -41 2 -36 21 3 12 0 22 -8 25 -8 3 -19 22 -26 42 -7 21 -20 52 -31
70 -10 18 -18 41 -18 51 0 25 -38 56 -89 70 -60 17 -79 36 -62 63 10 16 10 22
1 28 -7 4 -8 10 -3 13 13 8 8 140 -6 145 -6 2 -11 11 -10 20 0 11 2 12 6 4 2
-6 9 -9 14 -6 6 3 5 11 -2 20 -10 12 -9 18 4 31 15 16 15 18 0 35 -13 14 -13
20 -3 33 8 10 14 59 17 138 3 67 5 129 5 137 0 8 5 20 10 27 5 7 6 17 2 24 -9
15 -5 173 4 176 7 3 6 143 -2 223 -5 50 12 150 25 150 5 0 11 -10 13 -22z
m273 -1790 c22 -37 42 -199 80 -638 21 -249 20 -225 24 -755 l3 -430 -304 3
c-343 3 -619 15 -855 37 -172 16 -377 48 -422 66 -25 10 -26 12 -9 18 13 5 16
10 8 15 -18 11 -11 86 8 86 9 0 29 13 45 29 23 25 27 36 22 65 -3 20 -3 35 1
35 20 -3 32 2 32 14 0 19 43 63 48 49 6 -20 22 -3 22 24 0 17 5 24 20 24 14 0
20 7 20 24 0 34 10 56 25 56 8 0 11 8 8 20 -7 25 13 51 32 43 9 -3 19 6 26 24
6 15 15 36 20 45 13 25 11 31 -5 25 -10 -4 -13 -1 -9 9 3 7 14 14 24 14 10 0
25 13 34 30 9 17 22 30 30 30 11 0 15 11 15 40 0 22 5 40 10 40 6 0 10 -4 10
-10 0 -5 5 -10 11 -10 6 0 8 8 4 20 -4 13 2 26 19 41 15 13 26 28 26 35 0 7
20 33 45 58 25 26 45 56 45 69 0 12 13 34 29 49 15 16 34 40 42 55 25 49 57
93 61 86 3 -5 3 -2 1 5 -1 8 4 23 12 35 8 12 15 29 15 38 0 9 7 19 15 23 17 6
39 53 36 77 -1 9 8 34 19 54 12 21 22 58 23 84 1 33 6 46 17 46 18 0 33 21 25
34 -3 5 5 13 17 17 13 3 41 22 63 41 47 40 46 40 105 80 25 17 54 33 65 35 44
10 335 6 342 -4z m-9727 -52 c0 -12 7 -12 43 -2 23 6 53 11 67 10 70 -2 72 -3
67 -24 -5 -18 0 -20 54 -20 37 0 59 -4 59 -11 0 -12 -154 -7 -214 7 l-28 7 3
-54 c2 -30 9 -61 17 -71 12 -14 11 -18 -5 -27 -15 -8 -10 -10 25 -11 42 0 58
14 25 23 -10 3 -3 5 16 6 21 1 39 -5 47 -16 11 -15 15 -16 23 -4 11 17 41 7
41 -14 0 -12 -12 -15 -57 -14 -64 1 -198 15 -171 17 9 1 19 6 22 11 3 4 -6 7
-20 5 -24 -2 -25 0 -23 44 3 42 1 47 -21 52 -20 5 -25 12 -24 35 4 61 4 61 19
41 15 -19 15 -19 15 2 0 12 5 22 10 22 6 0 10 -6 10 -14z m477 1 c3 -3 3 -14
-1 -23 -5 -12 -15 -15 -41 -12 -19 2 -35 0 -35 -4 0 -4 28 -8 63 -8 44 0 58 3
47 10 -12 8 -11 10 8 10 12 0 22 4 22 9 0 5 12 12 28 15 15 4 35 9 45 12 9 3
17 1 17 -5 0 -6 -7 -11 -15 -11 -8 0 -15 -4 -15 -8 0 -5 29 -9 64 -9 44 0 63
3 60 11 -3 8 70 11 266 11 l270 0 17 -25 c23 -34 33 -40 67 -40 25 0 28 3 24
25 -3 14 -1 28 4 31 4 3 6 10 3 15 -10 15 15 10 31 -6 20 -19 48 -20 41 0 -5
11 0 11 28 -3 19 -9 35 -23 35 -31 0 -9 7 -11 23 -7 12 3 28 6 35 6 7 0 11 4
8 8 -2 4 -1 14 4 21 6 11 10 9 19 -8 10 -18 21 -21 77 -21 45 0 70 5 80 15 12
11 37 15 102 14 48 -1 98 -5 112 -9 l25 -8 -27 -1 c-30 -1 -32 -6 -29 -63 2
-33 0 -37 -26 -40 -22 -2 -29 -9 -31 -30 -2 -16 -7 -28 -12 -28 -21 0 -38 13
-34 25 3 7 -4 15 -15 18 -15 4 -21 13 -21 35 0 34 -18 52 -30 31 -6 -9 -30
-13 -78 -12 l-70 2 -6 -34 c-4 -18 -12 -36 -19 -38 -9 -3 -9 -9 0 -25 10 -17
9 -19 -5 -15 -11 2 -18 16 -19 36 -6 77 3 72 -124 68 -63 -1 -118 -5 -122 -8
-4 -3 -5 -12 -3 -21 3 -10 7 -32 8 -49 2 -32 4 -35 31 -37 6 -1 15 -5 18 -10
13 -17 30 4 19 25 -8 13 -7 19 1 19 6 0 13 -9 16 -20 4 -16 14 -20 47 -20 30
0 37 -3 26 -10 -8 -5 -27 -10 -42 -10 -16 0 -28 -4 -28 -10 0 -5 -18 -10 -40
-10 -22 0 -40 4 -40 9 0 6 -19 14 -42 19 -24 6 -33 10 -20 11 18 1 22 6 18 26
-3 13 -7 29 -10 34 -4 5 -2 11 3 13 4 1 11 13 15 24 6 19 2 22 -40 29 -28 4
-49 3 -53 -3 -3 -6 -22 -12 -41 -14 -22 -2 -34 -8 -32 -16 2 -10 -18 -12 -85
-10 l-88 3 -5 45 -5 45 -47 3 -48 3 0 -43 0 -44 -52 6 c-53 5 -53 5 -56 43
l-3 38 -52 -7 c-29 -4 -56 -10 -61 -15 -12 -11 -27 -12 -23 -1 3 9 -7 12 -35
11 -22 0 -22 -1 -3 -9 19 -8 19 -8 -5 -18 -14 -6 -19 -11 -12 -11 14 -1 16
-37 2 -46 -5 -3 -7 -12 -4 -19 3 -7 -2 -20 -10 -29 -14 -13 -13 -16 11 -22 42
-10 7 -26 -42 -18 -48 7 -54 11 -35 24 12 7 12 11 2 17 -7 5 -12 13 -11 18 5
20 -13 40 -34 39 -40 -4 -59 13 -55 50 4 54 -16 64 -92 50 -34 -7 -34 -6 -18
12 15 16 31 18 108 17 50 -1 93 -4 97 -7z m1613 -22 c38 0 58 -35 20 -35 -17
0 -20 -7 -20 -39 0 -32 5 -43 28 -59 33 -23 70 -33 78 -21 3 5 -2 9 -10 9 -13
0 -14 3 -4 19 10 17 14 18 34 5 19 -13 22 -13 28 1 13 35 6 74 -14 80 -21 7
-27 39 -10 50 6 3 10 2 10 -3 0 -5 21 -8 48 -6 l47 2 -3 -53 c-3 -46 -7 -54
-25 -57 -18 -2 -21 -9 -19 -32 2 -17 9 -35 16 -40 23 -20 46 -65 45 -88 0 -13
-3 -17 -6 -10 -2 6 -10 12 -16 12 -6 0 -19 7 -29 17 -17 15 -18 14 -18 -15 0
-17 4 -33 10 -37 18 -11 99 -14 415 -16 176 -1 329 -5 340 -9 26 -11 12 -12
-232 -14 -105 0 -195 -4 -199 -8 -4 -4 -13 -3 -20 3 -9 8 -18 5 -33 -10 l-21
-21 0 21 c0 18 -4 20 -27 14 -15 -3 -31 -11 -34 -17 -4 -6 -14 -8 -22 -5 -8 3
-20 0 -26 -6 -10 -9 -15 -8 -25 6 -17 22 -52 22 -65 0 -9 -17 -10 -17 -28 0
-11 9 -35 17 -54 17 -19 0 -40 5 -47 12 -19 19 -51 -30 -52 -78 l0 -42 43 2
c36 1 42 -2 42 -19 0 -16 -8 -21 -39 -23 -27 -2 -36 0 -31 8 5 9 1 10 -15 5
-21 -7 -22 -5 -17 23 7 34 -1 46 -19 31 -11 -9 -15 -2 -20 31 -4 25 -13 44
-23 47 -9 3 -25 9 -36 14 -11 5 -36 8 -55 8 -19 -1 -57 2 -83 6 -41 7 -48 5
-45 -8 2 -9 -1 -16 -7 -16 -5 -1 -10 5 -10 12 0 7 -15 13 -35 14 -31 2 -33 2
-11 -7 14 -6 21 -16 17 -25 -3 -8 -1 -17 4 -20 17 -11 11 -24 -19 -39 l-29
-15 8 33 c7 33 6 34 -26 41 -19 3 -38 3 -43 0 -6 -3 -12 -1 -16 5 -3 5 -88 9
-213 10 -131 0 -208 3 -210 10 -5 13 -49 13 -57 0 -8 -12 -143 -12 -205 0 -25
4 -49 6 -53 3 -18 -11 -196 -13 -203 -2 -5 8 -9 8 -14 -1 -6 -10 -48 -10 -196
-2 -185 11 -274 8 -274 -9 0 -5 -7 -9 -15 -9 -8 0 -15 -5 -15 -10 0 -6 6 -10
13 -9 56 7 66 -25 10 -34 -20 -4 -39 -4 -42 -2 -4 5 -8 28 -10 63 -1 15 -73
16 -88 1 -15 -15 -221 -20 -230 -6 -4 6 -1 13 5 15 21 7 13 32 -13 42 -29 11
-33 27 -7 33 9 3 3 5 -14 6 -27 1 -32 -3 -40 -31 -10 -34 -44 -52 -44 -24 0 9
4 16 9 16 14 0 20 38 7 49 -20 16 -151 18 -141 1 12 -19 -32 -47 -86 -54 -76
-10 -45 -22 51 -19 44 1 86 0 94 -3 10 -4 14 -20 13 -52 l-2 -47 80 -1 c59 0
83 3 91 14 8 11 21 13 50 8 21 -3 57 -8 79 -11 22 -2 56 -8 75 -11 19 -4 42
-8 50 -9 8 -1 29 -3 45 -5 17 -2 -12 -6 -64 -9 l-94 -6 2 -77 c3 -87 14 -76
-97 -98 -29 -5 -67 -17 -83 -26 -17 -8 -32 -14 -34 -12 -2 2 -5 50 -7 108 l-3
105 -75 6 c-41 3 -79 3 -83 1 -4 -2 -7 -76 -6 -163 l1 -160 -65 -64 c-85 -83
-155 -168 -202 -244 -36 -58 -39 -60 -94 -71 -31 -6 -74 -17 -96 -23 -22 -6
-47 -12 -55 -14 -8 -1 -36 -7 -63 -13 -32 -8 -56 -8 -75 -2 l-27 10 25 2 25 2
-25 7 c-32 10 -58 2 -38 -10 9 -6 7 -9 -9 -9 -17 0 -21 5 -19 30 1 16 -1 31
-5 32 -6 3 -20 292 -32 638 l-2 65 -114 3 c-62 1 -118 -2 -125 -7 -7 -6 -9
-44 -6 -123 7 -148 5 -457 -2 -483 -4 -11 -7 -37 -7 -57 -1 -34 -4 -38 -28
-39 l-28 -1 30 -7 c25 -5 27 -8 12 -14 -33 -13 -47 -8 -47 16 0 12 -9 28 -19
34 -16 10 -22 8 -36 -7 -9 -10 -37 -26 -61 -34 -38 -13 -44 -13 -44 0 0 11
-17 14 -80 14 -73 0 -80 2 -80 20 0 11 -4 20 -9 20 -21 0 -41 -13 -41 -26 0
-8 -7 -14 -15 -14 -10 0 -15 10 -15 30 0 22 5 30 18 30 14 0 15 2 2 10 -8 5
-24 10 -35 10 -11 0 -28 9 -38 20 -11 14 -29 20 -56 20 -42 0 -91 17 -91 32 0
4 9 8 20 8 11 0 20 7 20 15 0 11 -11 15 -40 15 l-40 0 0 50 c0 42 -3 50 -19
50 -10 0 -46 3 -80 6 -58 7 -61 6 -61 -15 0 -18 6 -21 40 -21 22 0 40 -4 40
-10 0 -6 -33 -10 -80 -10 l-80 0 0 40 c0 22 -4 40 -8 40 -5 0 -13 10 -19 23
-6 12 -27 31 -48 41 -31 17 -38 18 -45 5 -5 -7 -7 -22 -4 -31 9 -30 -6 -41
-27 -22 -11 9 -22 14 -26 11 -3 -4 -1 -7 5 -7 7 0 12 -4 12 -10 0 -5 -21 -10
-47 -10 -46 1 -47 1 -28 16 14 11 16 18 8 21 -22 8 -15 43 7 43 11 0 20 -4 20
-10 0 -5 9 -10 20 -10 11 0 20 -5 20 -11 0 -5 5 -7 11 -3 8 4 8 9 0 17 -6 6
-11 30 -11 54 l0 43 -40 0 c-29 0 -40 4 -40 15 0 11 -11 15 -40 15 -44 0 -58
-26 -18 -32 22 -3 22 -3 2 -22 -19 -20 -19 -20 -22 2 -3 18 -10 22 -43 22 -39
0 -39 0 -39 40 l0 39 71 3 71 3 -42 28 c-23 15 -54 27 -69 27 -23 0 -31 7 -46
40 -10 22 -21 40 -25 40 -4 0 -13 -13 -20 -30 -8 -18 -20 -30 -31 -30 -15 0
-19 8 -19 40 0 35 -3 40 -24 40 -13 0 -42 -7 -65 -15 -36 -12 -41 -12 -41 0 0
10 10 15 30 15 l30 0 -21 40 c-12 22 -25 40 -30 40 -5 0 -9 20 -9 45 l0 46 38
-3 c20 -2 39 -6 42 -9 9 -11 100 -17 100 -7 0 6 15 8 34 6 19 -2 33 -1 31 2
-2 3 44 3 101 2 87 -3 104 -1 104 11 0 18 27 30 32 15 3 -9 30 -8 99 2 57 9
149 13 233 11 106 -2 141 1 147 10 6 11 17 11 54 1 61 -16 75 -15 152 9 60 20
67 20 75 5 7 -12 14 -14 27 -6 10 5 35 7 55 3 24 -4 36 -2 36 6 0 15 138 13
147 -2 3 -5 9 -3 14 4 7 12 9 12 9 0 0 -11 3 -11 15 -1 13 11 15 5 15 -43 l0
-56 -103 0 c-56 0 -114 -4 -127 -10 -19 -7 5 -10 95 -10 66 -1 137 -4 158 -8
36 -6 38 -7 35 -40 -3 -40 12 -53 64 -53 47 0 70 22 63 61 -5 29 -5 29 47 29
126 1 389 -2 458 -6 41 -2 92 -4 113 -4 20 0 37 -4 37 -10 0 -5 -13 -10 -30
-10 -25 0 -30 -4 -30 -25 0 -26 2 -26 70 -27 66 -2 91 3 97 17 7 20 2 25 -33
29 -16 2 -33 4 -37 5 -5 0 -6 9 -2 20 5 17 -1 19 -61 20 -36 1 -86 6 -111 11
-24 6 -129 11 -231 11 -132 0 -189 4 -194 12 -10 16 -10 69 1 85 6 10 26 13
69 10 35 -2 60 1 59 7 -2 9 66 18 233 28 76 5 82 4 60 -9 -25 -13 -24 -13 10
-8 19 3 55 16 79 27 32 16 45 19 48 10 8 -22 50 -15 56 8 5 20 11 21 56 16 41
-5 50 -3 54 11 3 9 5 -2 6 -25 1 -49 6 -51 106 -51 47 0 69 -4 67 -12 -1 -6 2
-20 8 -30 8 -16 21 -20 60 -20 27 0 51 -4 54 -8 3 -5 43 -12 88 -16 46 -4 97
-9 113 -11 17 -2 165 -7 330 -10 194 -5 314 -12 340 -20 25 -8 105 -13 210
-14 497 -3 688 -10 697 -23 7 -10 11 -9 19 5 8 13 18 17 34 13 12 -3 69 1 126
10 57 9 125 19 152 21 48 5 54 11 37 43 -7 13 -6 19 5 24 10 4 15 20 15 50 0
39 -3 45 -22 48 -19 2 -24 10 -26 43 -2 22 -8 44 -13 50 -17 17 -9 25 19 18
15 -4 38 -7 52 -8z m2221 -5 c14 -4 32 -4 40 1 22 14 65 10 79 -6 7 -8 20 -16
29 -16 27 -3 -81 -17 -131 -18 -27 -1 -47 -4 -45 -8 1 -5 -1 -9 -5 -10 -5 -2
-8 0 -7 4 1 11 -32 22 -68 22 -27 1 -31 -2 -28 -19 3 -16 -4 -22 -38 -31 -23
-6 -67 -12 -97 -14 -76 -3 -80 -4 -79 -12 3 -21 -2 -33 -16 -33 -8 0 -15 8
-15 19 0 20 -25 31 -74 31 -16 0 -26 3 -22 7 9 9 74 15 153 13 34 0 64 4 68
10 4 6 -5 10 -23 10 -20 0 -31 6 -34 18 -4 15 4 17 84 16 66 -1 88 2 88 11 0
8 6 15 13 18 15 6 93 -2 128 -13z m-751 -1 c0 -7 9 -9 22 -6 13 4 32 -2 49
-14 35 -24 94 -25 108 -1 10 15 10 15 11 -3 0 -29 -19 -45 -52 -45 -15 0 -36
-10 -48 -22 -18 -20 -22 -20 -19 -1 0 3 -7 11 -17 16 -13 8 -21 4 -36 -17 -24
-32 -46 -33 -57 -2 -13 33 -101 47 -101 15 0 -5 -7 -9 -16 -9 -11 0 -15 6 -11
20 4 15 0 20 -14 20 -10 0 -18 -5 -16 -11 1 -6 -4 -14 -12 -17 -10 -3 -12 0
-8 11 4 11 -3 17 -28 21 -41 8 -56 26 -22 26 14 0 30 7 37 15 16 19 230 22
230 4z m-760 -11 c0 -9 2 -10 8 -2 5 8 73 11 224 10 119 0 209 -4 200 -8 -13
-5 -11 -7 8 -8 14 -1 19 -4 13 -7 -7 -2 -13 -20 -13 -39 0 -29 -3 -34 -24 -34
-19 0 -23 -4 -19 -20 3 -11 1 -20 -5 -20 -6 0 -12 21 -14 47 -2 39 -7 49 -23
52 -11 2 -23 8 -27 15 -6 8 -8 7 -8 -2 0 -8 -9 -12 -22 -10 -20 3 -23 -2 -26
-37 -2 -22 -8 -45 -13 -51 -14 -17 -62 -24 -76 -12 -10 8 -13 5 -13 -11 0 -16
6 -21 24 -21 21 0 24 -6 28 -40 3 -39 3 -40 -27 -40 -27 1 -28 2 -12 14 25 20
21 26 -18 26 -19 0 -35 -4 -35 -10 0 -5 -4 -10 -8 -10 -4 0 -8 15 -7 33 0 26
3 31 20 29 l20 -4 -20 16 c-22 16 -14 32 19 38 11 1 18 7 15 13 -2 5 -10 9
-16 7 -8 -2 -10 3 -7 13 3 8 2 15 -2 16 -80 5 -105 6 -84 2 105 -20 -69 -35
-242 -22 -46 4 -48 10 -7 28 25 11 33 11 39 1 6 -9 10 -8 17 5 9 15 13 15 32
4 18 -12 23 -12 31 1 8 13 10 12 10 -2 0 -13 8 -18 28 -18 16 0 22 3 15 8 -7
4 -10 16 -8 27 2 11 4 23 4 28 2 12 21 8 21 -5z m1745 -18 c5 8 11 7 23 -2 12
-10 14 -10 8 0 -5 8 1 12 23 12 16 0 31 -6 34 -12 3 -10 9 -10 28 1 16 10 24
10 27 2 2 -6 25 -11 53 -11 42 0 48 2 42 18 -6 15 -5 15 10 3 9 -7 35 -13 57
-13 45 1 46 0 24 -22 -9 -10 -33 -16 -60 -16 -25 0 -55 -5 -66 -11 -15 -8 -19
-8 -14 0 5 7 -2 11 -17 11 -20 0 -24 -4 -20 -20 4 -16 2 -19 -11 -14 -10 4
-15 12 -12 19 6 17 -15 25 -63 25 -36 0 -37 -1 -33 -35 4 -33 3 -35 -27 -35
-30 0 -31 1 -31 44 0 24 -3 53 -6 63 -5 17 -5 17 9 0 10 -12 17 -15 22 -7z
m575 -42 c0 -10 2 -10 8 -1 6 10 15 10 40 1 27 -11 34 -10 42 1 7 12 12 12 23
3 8 -7 45 -13 83 -13 38 -1 77 -7 89 -14 15 -10 37 -12 85 -6 36 5 69 6 73 4
18 -11 247 -13 247 -3 0 6 48 7 140 3 104 -4 140 -3 140 6 0 7 10 5 27 -6 19
-13 55 -19 125 -23 90 -5 97 -4 92 13 -6 20 4 21 29 3 16 -12 18 -27 15 -120
l-3 -106 57 0 57 0 -2 -52 -2 -53 -52 -3 -53 -3 0 -57 c0 -31 -5 -194 -12
-360 l-12 -304 -36 6 c-159 29 -220 37 -325 43 -105 5 -295 -7 -361 -23 -20
-5 -21 0 -28 78 -13 162 -72 280 -166 328 -65 33 -174 53 -255 47 l-75 -5 0
93 c0 143 3 152 59 161 25 4 54 6 64 5 31 -4 22 52 -13 78 -31 22 -50 21 -50
-3 0 -7 -9 -25 -21 -40 -19 -24 -22 -25 -36 -10 -14 13 -14 17 -2 25 8 5 20 9
27 9 22 0 8 23 -19 30 -13 4 -58 8 -99 9 -41 1 -79 6 -84 12 -6 6 -6 9 2 9 7
0 12 3 12 8 0 10 -152 15 -234 6 -92 -9 -66 -24 42 -24 48 0 81 -4 77 -9 -3
-5 -42 -10 -88 -10 -159 -1 -176 -2 -183 -13 -4 -5 0 -14 7 -19 10 -6 11 -9 2
-9 -7 0 -13 -9 -13 -20 0 -24 -45 -28 -54 -5 -3 8 -13 15 -23 15 -13 1 -10 5
10 16 15 8 25 19 22 24 -4 6 -81 10 -182 10 -166 0 -175 -1 -180 -20 -6 -23
-23 -27 -23 -5 0 9 -9 15 -24 15 -13 0 -24 -6 -23 -12 2 -62 -13 -71 -78 -52
-35 10 -40 15 -40 40 -1 27 -4 29 -44 32 -24 2 -58 -2 -75 -10 -17 -7 -44 -11
-59 -9 -20 2 -27 -1 -22 -9 14 -23 -15 -39 -70 -38 -30 1 -52 5 -50 8 8 13
-36 50 -63 52 -67 5 -412 2 -412 -3 0 -12 -29 -18 -35 -8 -6 9 43 32 56 27 9
-5 39 30 39 45 0 20 64 28 120 16 25 -5 65 -12 90 -16 25 -3 51 -10 58 -16 9
-7 16 -7 20 -1 4 6 34 9 67 8 192 -6 737 -2 895 6 102 6 237 13 300 15 281 12
328 16 382 32 53 17 75 34 64 52 -3 4 -46 1 -97 -6 -75 -11 -94 -11 -101 -1
-12 19 -10 44 2 32 6 -6 24 -9 40 -6 24 3 31 10 36 38 4 20 2 40 -5 48 -6 7
-8 16 -4 19 10 11 23 8 23 -5z m1623 -58 c15 -7 27 -17 27 -22 0 -17 40 -8 40
10 1 15 2 15 13 2 12 -15 51 -40 62 -40 3 0 5 9 5 20 0 17 7 20 40 20 22 0 40
-4 40 -10 0 -6 45 -10 116 -10 l116 0 39 -41 c22 -23 41 -40 42 -38 2 2 9 17
15 33 12 27 14 28 31 12 18 -16 20 -16 30 1 8 14 10 9 11 -29 l0 -48 40 0 c29
0 40 -4 40 -15 0 -11 11 -15 40 -15 22 0 40 -4 40 -10 0 -5 -7 -10 -15 -10
-10 0 -15 -10 -15 -30 0 -20 5 -30 15 -30 11 0 15 -12 15 -50 0 -50 0 -50 33
-50 l32 -1 -30 -16 c-16 -9 -32 -19 -35 -23 -3 -3 -22 -6 -42 -5 -31 1 -38 -2
-38 -17 0 -14 8 -18 39 -18 22 0 41 4 43 9 2 6 18 5 41 -2 28 -9 37 -17 37
-34 0 -20 -5 -23 -40 -23 -29 0 -40 -4 -40 -15 0 -10 -10 -15 -30 -15 -28 0
-30 -2 -30 -40 l0 -40 55 0 c48 0 55 -3 55 -19 0 -11 -4 -23 -10 -26 -20 -12
-10 -35 15 -35 14 0 25 -4 25 -10 0 -6 -33 -10 -80 -10 -73 0 -80 -2 -80 -20
0 -17 7 -20 40 -20 38 0 40 -2 40 -29 0 -17 -4 -33 -10 -36 -6 -4 -10 5 -10
19 0 19 -5 26 -20 26 -13 0 -20 -7 -20 -19 0 -11 -4 -23 -10 -26 -17 -11 -11
-35 9 -35 28 0 15 -48 -15 -56 -13 -3 -24 -10 -24 -15 0 -5 -13 -9 -29 -9 -26
0 -29 -4 -33 -38 -6 -64 -1 -72 43 -72 l39 0 0 55 0 55 40 0 c22 0 40 -3 40
-6 0 -3 -15 -20 -32 -37 l-33 -32 85 -6 c47 -3 79 -6 73 -7 -8 -1 -13 -18 -13
-42 0 -40 0 -40 -37 -40 -26 0 -34 -3 -24 -9 7 -5 10 -14 7 -20 -12 -19 -26
-12 -26 14 0 24 -2 26 -37 19 -21 -4 -39 -11 -41 -15 -2 -5 -21 -9 -43 -9 -28
0 -39 4 -39 15 0 13 -4 14 -34 1 -19 -8 -37 -12 -40 -8 -3 3 -6 0 -6 -7 0 -10
10 -11 34 -7 38 7 95 -12 74 -25 -7 -5 -23 -6 -34 -3 -12 3 -32 0 -44 -6 -18
-9 -24 -9 -30 0 -6 10 -13 9 -31 -4 -22 -15 -22 -16 -4 -16 17 0 17 -2 5 -10
-19 -12 -43 -13 -36 -1 3 5 -1 12 -10 15 -8 3 -12 2 -9 -4 8 -13 -11 -13 -52
2 -25 9 -36 9 -41 1 -4 -6 -16 -12 -26 -14 -11 -2 -21 -10 -24 -18 -4 -11 3
-12 31 -7 23 4 38 2 43 -5 4 -8 3 -9 -4 -5 -6 4 -21 2 -32 -4 -11 -6 -48 -14
-83 -17 -37 -3 -66 -12 -73 -21 -12 -17 -76 -11 -102 10 -16 13 -132 71 -199
99 l-31 13 3 71 c8 201 20 600 20 670 l0 80 -35 5 c-26 4 -31 7 -17 12 12 5
17 19 17 47 0 48 5 51 123 53 l92 1 -88 10 -88 10 2 86 c1 47 4 90 6 94 6 11
60 3 96 -13z m-4043 -30 c13 -9 13 -10 0 -10 -35 -1 33 -40 70 -40 26 0 40 -5
44 -16 4 -10 12 -14 22 -10 9 4 26 4 37 0 46 -14 -12 -21 -161 -18 -86 2 -190
4 -229 4 -42 1 -73 5 -73 11 0 6 -7 3 -16 -6 -13 -12 -20 -13 -28 -5 -8 8 -6
15 8 25 21 16 40 15 73 -3 18 -10 27 -10 43 0 17 11 22 11 30 -1 7 -12 11 -12
23 -2 12 9 16 9 20 -1 4 -10 8 -10 17 2 9 11 13 12 17 3 7 -19 54 -17 47 2 -4
10 0 15 15 15 22 0 30 19 9 21 -10 0 -10 2 -1 5 7 3 9 12 6 20 -6 16 5 18 27
4z m-598 -303 c-2 -11 4 -25 14 -31 11 -8 18 -28 18 -52 l2 -39 46 -3 c31 -2
50 2 61 13 19 18 23 13 31 -45 4 -25 11 -52 17 -60 8 -11 9 -6 5 22 -5 38 9
63 17 31 4 -15 6 -15 12 5 8 25 17 27 46 12 13 -7 19 -7 19 0 0 5 5 10 10 10
14 0 12 -47 -2 -54 -10 -5 -10 -7 0 -12 6 -3 9 -10 6 -16 -4 -6 -2 -13 5 -17
13 -9 27 -73 15 -70 -5 1 -28 1 -51 0 l-42 -1 -6 -47 c-11 -74 -34 -164 -56
-209 -22 -47 -52 -64 -112 -64 -57 0 -101 -29 -134 -90 -30 -54 -53 -65 -53
-26 0 22 -6 26 -44 31 -50 8 -70 0 -62 -22 3 -8 -3 -27 -14 -43 -11 -15 -20
-32 -20 -37 0 -5 -18 -8 -40 -8 -22 0 -40 3 -40 7 0 12 -58 10 -65 -2 -3 -5
-25 -10 -48 -9 -33 0 -38 2 -22 9 11 5 31 9 45 9 24 1 25 4 22 47 -4 44 -5 45
-23 28 -24 -21 -24 -14 2 61 22 67 59 234 59 271 0 13 9 28 20 34 11 6 18 15
15 21 -4 5 14 9 43 9 l49 0 7 61 c3 34 6 106 6 160 l0 99 35 0 c19 0 35 -4 35
-10 0 -5 15 -10 34 -10 29 0 34 4 40 31 6 29 7 30 53 27 40 -3 47 -6 45 -21z
m-1117 -147 c3 -5 26 -10 51 -10 l44 0 0 -54 0 -54 40 -7 c39 -7 40 -7 40 -50
0 -48 9 -55 70 -55 21 0 41 -4 44 -9 10 -15 -66 -118 -117 -160 -60 -50 -96
-58 -145 -35 -39 18 -105 64 -110 77 -2 4 -8 7 -14 7 -6 0 -24 11 -40 26 -38
31 -109 68 -165 84 -24 7 -43 14 -43 15 0 1 18 37 41 80 22 43 50 84 62 90 31
16 67 25 67 16 0 -19 27 -42 42 -36 14 6 15 10 5 25 -13 23 -3 37 16 22 8 -7
18 -7 27 -2 8 6 25 10 38 10 13 0 22 6 22 15 0 17 16 20 25 5z m2115 -56 c0
-15 9 -16 65 -11 35 3 67 2 69 -2 3 -5 -6 -59 -20 -120 -16 -72 -24 -134 -22
-174 3 -57 5 -63 32 -75 15 -8 54 -16 86 -19 54 -5 58 -7 64 -34 9 -44 -22
-105 -36 -71 -1 5 -27 25 -55 45 l-53 37 -120 0 c-114 0 -120 -1 -120 -21 0
-41 -20 -6 -50 86 -16 53 -30 102 -30 110 0 10 15 15 53 17 l52 3 1 115 c1 63
2 118 3 123 1 4 19 7 41 7 30 0 40 -4 40 -16z m2223 -115 c43 -36 78 -87 96
-140 16 -49 32 -197 24 -227 -9 -37 -43 -44 -71 -14 -24 25 -25 25 -140 19
-99 -5 -183 1 -197 15 -2 2 -13 49 -24 105 -12 56 -23 108 -26 115 -9 26 172
132 255 149 19 4 37 7 40 8 3 0 23 -13 43 -30z m-769 5 c9 -3 16 -18 16 -33 0
-14 7 -48 15 -75 20 -66 19 -86 -4 -86 -29 0 -115 67 -159 124 -26 34 -28 46
-7 46 8 0 14 3 14 8 -1 4 -1 10 0 15 1 8 103 10 125 1z m-766 -36 c2 -16 6
-28 10 -29 4 0 47 -6 96 -12 l89 -12 23 -91 c13 -50 34 -121 48 -158 l26 -67
-23 7 c-54 16 -128 58 -171 95 -36 31 -59 67 -96 143 -27 55 -52 114 -56 129
-6 27 -5 28 22 25 23 -2 30 -9 32 -30z m-3628 2 c0 -5 15 -14 33 -19 17 -5 24
-10 14 -10 -9 -1 -51 -33 -93 -71 -102 -94 -105 -96 -256 -115 l-38 -5 0 40
c0 36 5 43 48 74 43 32 127 77 192 104 32 14 100 15 100 2z m4004 -77 c11 -11
80 -10 87 0 3 5 32 -16 63 -47 68 -66 129 -91 246 -103 l82 -8 29 -55 29 -55
-35 -3 c-21 -2 -41 -12 -53 -26 -17 -22 -26 -23 -188 -30 -93 -4 -182 -4 -197
-1 -50 13 -87 119 -87 253 0 76 5 93 24 75z m-4580 -11 c6 -10 -30 -197 -45
-234 -18 -44 -36 -34 -45 25 -10 59 -9 75 7 134 16 61 65 104 83 75z m3129
-124 c22 -48 75 -140 121 -211 16 -24 16 -26 2 -21 -10 4 -18 0 -22 -10 -8
-21 -54 -21 -54 -1 0 8 -4 15 -10 15 -5 0 -10 8 -10 18 -1 10 -6 5 -14 -13 -9
-21 -10 -32 -2 -37 6 -4 -2 -8 -17 -8 -17 0 -26 4 -22 11 4 5 4 21 1 35 -5 20
-13 24 -41 24 -19 0 -35 -5 -35 -11 0 -5 -4 -7 -10 -4 -11 7 -5 48 17 120 16
50 60 145 67 145 3 0 15 -24 29 -52z m8272 -36 c77 -99 255 -279 369 -373 l90
-74 -58 -5 c-62 -6 -82 -21 -92 -70 -8 -38 -22 -61 -60 -104 -41 -46 -42 -79
-4 -84 35 -4 80 -23 80 -33 0 -11 -247 -11 -305 -1 l-40 7 -16 190 c-39 454
-47 626 -31 624 4 0 34 -35 67 -77z m-7366 6 c28 -42 44 -61 103 -124 l30 -32
-26 5 c-26 5 -31 -2 -26 -36 1 -11 -12 -13 -59 -9 -46 3 -61 1 -61 -9 0 -26
-18 -12 -24 18 -13 68 5 229 26 229 4 0 20 -19 37 -42z m-3098 -168 c39 0 49
-3 49 -16 0 -15 12 -16 103 -10 56 4 121 9 145 13 28 3 42 1 42 -6 0 -6 -6
-10 -12 -8 -8 1 -14 -12 -16 -35 -2 -21 -7 -38 -13 -38 -8 0 -13 22 -10 43 2
12 -27 8 -31 -5 -3 -9 -12 -9 -36 1 -40 17 -64 8 -60 -21 3 -21 -1 -23 -37
-23 -22 0 -40 5 -40 10 0 17 -29 50 -47 53 -10 2 -18 -2 -18 -8 0 -7 -26 -10
-76 -8 -81 3 -104 17 -90 53 5 15 14 17 53 11 25 -3 68 -6 94 -6z m5660 -11
c63 -11 127 -23 142 -26 l29 -6 -4 -102 c-1 -57 -6 -106 -9 -109 -3 -4 -55 5
-115 19 -255 59 -329 73 -533 100 -63 8 -116 17 -119 20 -3 2 1 24 8 49 l12
44 77 15 c122 23 375 21 512 -4z m-4533 -139 c20 0 42 -4 49 -8 17 -11 23
-102 6 -102 -9 0 -13 15 -13 51 0 35 -4 49 -12 47 -8 -3 -11 -22 -9 -55 l2
-50 -42 -11 c-24 -6 -47 -8 -52 -5 -6 4 -5 110 2 142 1 2 8 0 17 -3 9 -3 32
-6 52 -6z m-150 -32 c21 -21 13 -30 -18 -23 -27 6 -30 4 -30 -19 0 -29 14 -34
28 -10 10 18 32 11 32 -10 0 -8 9 -16 19 -19 11 -3 22 -18 26 -38 7 -30 9 -31
20 -15 13 17 13 17 17 -1 7 -37 -4 -73 -23 -73 -10 0 -20 -4 -24 -9 -7 -13
-57 -5 -95 14 -18 9 -34 14 -37 12 -2 -3 -18 -1 -34 5 -25 9 -29 15 -29 49 0
21 5 39 10 39 6 0 10 -7 10 -16 0 -8 5 -12 10 -9 6 3 13 -1 16 -9 9 -23 24
-20 24 4 0 11 6 23 14 26 11 4 12 11 3 35 -6 16 -15 29 -19 29 -20 0 -5 21 25
34 41 18 41 18 55 4z m451 -170 c0 -24 -3 -37 -6 -30 -8 19 -23 4 -23 -24 0
-14 -4 -23 -9 -19 -5 3 -12 1 -16 -5 -3 -5 0 -10 7 -10 9 0 9 -3 -2 -10 -10
-6 -11 -10 -2 -10 6 0 12 -5 12 -11 0 -6 34 -48 76 -92 42 -44 81 -92 86 -106
22 -55 37 -111 28 -106 -6 4 -10 -1 -10 -10 0 -10 5 -13 11 -9 9 5 10 -1 4
-22 -4 -16 -9 -40 -10 -54 -1 -14 -21 -55 -44 -92 -31 -49 -47 -65 -58 -61
-13 5 -15 2 -10 -11 10 -25 -4 -44 -15 -20 -6 14 -7 12 -3 -9 6 -28 -16 -73
-28 -60 -4 3 -7 -2 -7 -13 0 -11 -9 -25 -20 -32 -12 -7 -18 -17 -15 -22 4 -6
-1 -13 -9 -16 -9 -3 -16 -11 -17 -18 0 -10 -124 -121 -155 -139 -9 -5 -27 -1
-48 12 -59 37 -113 23 -171 -44 -14 -17 -30 -45 -36 -62 l-11 -33 -156 -1
c-86 0 -207 -1 -267 -2 l-110 -2 1 48 c1 27 4 50 5 52 2 1 130 5 283 8 278 5
280 5 298 29 10 12 21 32 24 44 4 17 63 63 71 56 2 -1 15 10 29 23 24 22 26
30 21 74 -9 72 -67 181 -114 214 -65 45 -130 30 -158 -37 l-14 -31 -16 38
c-14 33 -14 43 -2 80 25 75 27 93 12 113 -23 30 -19 47 9 40 25 -6 86 11 86
24 0 5 -6 11 -12 13 -7 3 -3 6 8 6 12 1 28 11 37 24 8 12 40 48 71 80 31 32
56 62 56 67 0 6 15 10 33 10 60 0 252 59 196 60 -9 0 -25 11 -35 25 -13 18
-28 25 -51 25 -30 0 -33 3 -33 31 0 20 4 29 13 27 6 -3 12 -10 12 -16 0 -7 3
-12 8 -12 4 0 16 0 26 0 11 0 21 9 25 24 4 16 15 25 36 29 38 8 57 1 63 -25 8
-28 31 -17 35 15 5 42 12 32 11 -15z m-2107 -5 l116 -26 4 -39 c3 -29 0 -37
-10 -33 -9 3 -9 -1 3 -17 8 -13 15 -39 15 -60 0 -20 4 -39 9 -42 15 -10 24
-135 11 -151 -7 -8 -9 -15 -5 -15 5 0 0 -9 -10 -20 -10 -11 -23 -20 -28 -20
-6 0 -34 -16 -64 -37 -45 -31 -62 -37 -120 -40 -38 -2 -104 -8 -148 -13 -131
-16 -139 -15 -158 24 -9 19 -24 72 -33 118 -18 90 -15 227 8 331 l12 57 61 1
c33 0 78 4 100 9 51 11 92 6 237 -27z m5785 -39 c-4 -21 -1 -24 29 -24 78 0
332 -70 372 -102 7 -6 22 -33 35 -59 20 -45 25 -49 57 -49 l35 -1 -27 -12
c-24 -11 -26 -16 -24 -75 2 -70 8 -65 -93 -82 -154 -27 -259 -40 -327 -40
l-73 0 -34 53 c-49 75 -103 120 -212 173 -53 26 -99 53 -102 60 -3 8 -14 14
-24 14 -22 0 -25 18 -4 26 9 4 14 18 13 40 -1 31 -4 34 -31 34 -17 0 -27 3
-23 7 4 4 75 6 159 4 152 -3 212 3 201 20 -6 11 56 50 69 42 5 -3 7 -16 4 -29z
m5832 9 c17 -15 31 -32 31 -38 0 -6 -19 -30 -42 -54 -40 -40 -45 -42 -83 -36
-22 3 -44 10 -48 14 -5 5 6 30 22 57 17 26 31 56 31 66 0 28 52 23 89 -9z
m239 -77 c39 -27 72 -52 72 -56 0 -8 -238 -25 -245 -18 -3 2 6 20 20 38 18 24
25 47 25 77 l0 43 28 -18 c15 -9 60 -39 100 -66z m-7775 -23 c44 -14 93 -33
110 -44 l32 -19 -40 -1 c-36 0 -38 -1 -17 -11 34 -17 26 -27 -15 -21 -73 10
-258 55 -268 65 -7 7 -3 8 10 5 11 -3 36 -9 55 -13 31 -6 33 -5 22 9 -12 14
-9 16 20 19 l33 3 -40 23 c-37 20 -38 21 -10 16 17 -4 65 -18 108 -31z m4589
-97 c95 -14 236 -30 313 -36 76 -6 141 -13 143 -15 2 -2 -12 -18 -31 -35 -20
-17 -39 -44 -42 -61 -6 -28 -9 -30 -43 -25 -21 3 -100 8 -177 12 -145 6 -225
25 -195 45 12 8 10 9 -9 7 -13 -2 -26 3 -28 10 -3 6 3 12 12 12 10 0 5 10 -18
30 -19 17 -46 30 -59 30 -23 0 -68 29 -68 44 0 9 16 8 202 -18z m-7834 -45
c18 -51 -12 -231 -38 -231 -12 0 -20 -42 -14 -67 5 -20 13 -23 53 -23 39 0 52
-5 74 -28 15 -15 27 -38 27 -50 0 -23 -10 -27 -155 -58 -44 -10 -94 -25 -111
-35 -40 -22 -122 -39 -191 -39 -35 0 -72 -7 -97 -19 -23 -11 -65 -24 -93 -29
-51 -9 -53 -9 -53 14 0 72 -76 141 -156 142 -44 1 -74 15 -74 33 0 19 153 160
197 182 61 31 204 90 268 112 28 9 59 22 70 28 25 14 256 96 272 96 6 1 16
-12 21 -28z m-1461 -91 c19 -11 35 -31 39 -47 4 -15 20 -52 36 -81 16 -30 28
-55 26 -56 -7 -4 -75 -26 -81 -26 -4 0 -7 6 -7 13 0 6 -12 20 -25 30 -22 16
-33 17 -133 5 -59 -6 -116 -9 -125 -5 -14 5 -17 20 -17 76 0 80 -12 71 125 95
109 19 125 19 162 -4z m5823 -40 c140 -23 270 -56 296 -74 16 -12 16 -15 -1
-49 -15 -31 -15 -47 -5 -128 8 -70 8 -95 -1 -103 -7 -7 -13 -7 -15 -1 -2 6
-26 8 -54 7 -32 -3 -50 0 -50 7 0 7 -10 9 -25 5 -21 -5 -32 1 -64 35 -21 22
-47 41 -58 41 -12 0 -23 8 -25 18 -3 9 -18 24 -34 32 -16 8 -37 22 -47 32 -20
21 -96 25 -115 6 -8 -8 -15 -8 -26 2 -22 18 -49 5 -41 -20 7 -22 -13 -28 -33
-8 -8 8 -15 8 -26 -1 -10 -8 -21 -9 -31 -3 -9 5 -38 5 -63 1 -31 -4 -50 -3
-55 5 -5 6 -7 2 -4 -12 4 -19 3 -21 -8 -12 -23 19 -35 72 -30 140 2 36 4 73 4
82 2 42 18 45 207 31 98 -7 235 -22 304 -33z m-1550 -146 l0 -84 35 0 c45 0
111 -33 126 -63 19 -37 51 -67 72 -67 33 0 116 54 242 157 147 121 173 131
276 110 171 -36 172 -36 281 -130 21 -18 38 -37 38 -44 0 -13 0 -12 101 -103
107 -96 152 -143 172 -180 l17 -32 186 4 c102 2 187 1 189 -2 4 -6 -68 -65
-102 -84 -6 -3 -98 -9 -203 -12 -334 -10 -477 -27 -756 -90 -68 -16 -72 -16
-112 5 -23 11 -60 39 -84 62 -63 60 -92 75 -124 64 -15 -6 -32 -19 -38 -30 -6
-11 -15 -23 -21 -27 -5 -4 -86 -8 -178 -8 l-168 0 3 -52 c3 -51 4 -53 33 -56
47 -5 51 -19 14 -41 -49 -30 -59 -27 -59 17 0 103 -16 126 -72 111 -15 -4 -68
-11 -118 -15 -79 -6 -90 -5 -90 10 0 10 -8 16 -23 16 -21 0 -22 -3 -21 -74 0
-40 4 -78 8 -85 5 -7 -1 -11 -13 -11 -16 0 -21 6 -21 26 0 14 -5 35 -12 47 -6
12 -14 38 -18 57 l-5 35 -480 1 c-264 1 -497 2 -518 2 l-38 2 23 43 c12 23 23
43 24 45 2 5 940 25 1269 27 182 1 339 3 349 4 20 1 3 20 -156 180 -27 26 -48
51 -48 56 0 4 -11 18 -25 31 -31 29 -32 47 -2 76 19 20 23 36 25 110 5 111 22
105 22 -8z m5219 71 c159 -7 185 -11 175 -26 -3 -6 -1 -15 4 -22 5 -7 12 -22
15 -34 4 -19 1 -23 -19 -23 -27 0 -31 -12 -9 -30 21 -18 19 -48 -5 -55 -21 -7
-71 1 -100 15 -44 22 -92 40 -105 40 -8 0 -15 5 -15 10 0 6 -7 10 -15 10 -18
0 -20 19 -2 21 18 2 16 2 87 -5 88 -9 62 6 -80 43 -62 17 -116 34 -119 38 -3
5 -17 14 -31 21 -23 11 -21 11 20 7 25 -2 114 -7 199 -10z m-1710 -41 c-23
-13 -23 -13 14 -12 21 1 33 4 26 8 -8 6 -8 9 1 15 21 13 35 -12 22 -40 -15
-33 -15 -35 2 -35 7 0 16 9 19 21 10 38 27 9 27 -47 0 -51 11 -70 24 -41 3 6
4 3 1 -9 -4 -17 3 -24 35 -39 31 -14 40 -24 41 -44 0 -14 3 -20 6 -13 7 17 23
15 23 -4 0 -10 6 -14 15 -10 41 15 -9 -228 -56 -275 -14 -14 -34 -19 -76 -19
-69 0 -132 -16 -139 -35 -7 -18 18 -64 55 -99 17 -17 31 -35 31 -41 0 -12 -48
-58 -105 -100 -22 -17 -42 -32 -45 -35 -3 -3 -41 -23 -85 -44 -89 -43 -146
-61 -232 -71 l-58 -6 -2 213 c-1 182 -4 213 -17 216 -12 3 -14 14 -12 50 4 45
5 47 37 50 19 1 44 8 56 14 16 8 33 8 65 0 42 -11 228 -13 228 -2 0 3 -26 18
-57 33 -62 30 -151 74 -223 112 -41 22 -45 27 -48 66 -4 48 7 59 56 59 18 0
40 4 50 9 9 5 49 18 89 30 83 25 159 72 188 117 15 23 25 29 44 26 l24 -5 -24
-13z m-9369 -17 c0 -13 -9 -26 -22 -32 -13 -6 -28 -22 -35 -36 -15 -31 -50
-45 -218 -90 -105 -28 -130 -31 -200 -25 -106 8 -228 39 -348 89 -79 33 -95
44 -84 54 10 10 20 10 50 1 27 -8 34 -14 25 -21 -9 -6 -6 -6 7 -1 11 4 35 8
53 8 17 1 32 5 32 10 0 5 57 7 135 3 83 -4 135 -2 135 3 0 6 9 10 21 10 11 0
17 -4 14 -10 -3 -5 -1 -10 4 -10 6 0 11 5 11 10 0 6 32 10 75 10 42 0 91 6
112 15 21 8 62 16 91 18 29 2 55 7 59 11 3 3 24 6 45 6 33 0 38 -3 38 -23z
m-1095 -54 c11 -6 36 -18 55 -26 19 -9 71 -31 115 -50 90 -39 265 -97 295 -97
34 0 30 -16 -8 -29 -97 -35 -222 -86 -281 -116 -100 -50 -248 -110 -326 -133
-116 -33 -124 -34 -142 -17 -20 20 -59 16 -55 -6 2 -12 -8 -19 -34 -23 -20 -4
-38 -5 -41 -3 -2 3 3 20 12 38 11 20 17 54 16 92 -1 95 -47 142 -238 243 -54
28 -99 56 -101 62 -2 7 7 6 24 -3 32 -16 43 -12 25 9 -11 12 -6 14 34 12 25
-1 48 1 50 4 3 4 33 10 67 14 102 11 132 17 145 28 8 6 18 6 31 -1 11 -6 22
-7 26 -4 20 20 297 24 331 6z m12055 -52 c0 -5 -6 -12 -12 -15 -7 -3 5 -3 27
0 33 4 174 -16 210 -30 6 -2 19 -7 31 -11 18 -6 20 -15 22 -93 1 -48 6 -111
11 -139 l8 -53 -36 -6 c-29 -6 -32 -8 -16 -14 17 -6 16 -7 -7 -12 -15 -3 -25
-1 -22 3 3 5 0 9 -6 9 -6 0 -8 5 -5 10 4 6 -7 10 -25 10 -18 0 -29 4 -25 10 3
6 1 10 -4 10 -6 0 -11 8 -11 19 0 14 -10 20 -42 26 -38 7 -40 8 -18 15 25 6
25 7 3 14 -12 4 -33 20 -47 37 -14 16 -29 29 -35 29 -6 0 -11 9 -11 20 0 11
-4 20 -8 20 -5 0 -19 9 -32 20 -13 11 -29 20 -37 20 -18 0 -16 27 3 38 9 5 14
18 12 28 -3 14 5 22 27 31 38 15 45 15 45 4z m-13331 -12 l116 -1 -115 -33
c-63 -19 -133 -41 -155 -49 -22 -8 -52 -15 -67 -16 -36 0 -58 -10 -58 -24 0
-20 -229 -119 -270 -117 -38 1 -181 19 -217 27 -23 4 -22 29 2 49 6 6 17 19
23 30 8 15 35 27 101 44 50 13 96 30 102 37 6 8 17 14 24 14 7 0 26 7 41 15
18 9 59 15 104 16 41 1 102 5 135 9 33 4 73 6 89 4 16 -2 81 -4 145 -5z m440
-50 c19 -7 75 -32 123 -56 49 -23 91 -43 93 -43 11 0 112 -70 130 -90 26 -29
26 -92 0 -145 -29 -59 -44 -59 -440 0 -55 8 -104 15 -110 15 -5 0 5 12 23 26
23 18 32 34 32 55 0 25 -4 29 -29 29 -16 0 -70 -16 -120 -35 -49 -19 -105 -35
-124 -35 -18 0 -101 12 -183 26 -82 14 -170 28 -196 31 -27 3 -48 9 -48 13 0
7 73 41 234 110 108 46 151 57 371 95 83 15 151 28 153 30 4 3 37 -6 91 -26z
m3592 14 c20 -20 12 -130 -13 -170 l-21 -36 -140 7 c-91 4 -144 3 -152 -4 -16
-13 -28 98 -17 150 6 29 13 36 42 43 101 24 281 30 301 10z m3682 -41 c33 -32
93 -48 68 -18 -9 11 -8 15 4 20 9 3 13 2 10 -4 -3 -6 -2 -10 4 -10 6 0 8 -6 5
-14 -7 -19 15 -31 29 -17 9 9 9 14 -1 20 -16 10 -5 41 15 41 8 0 12 -4 9 -9
-12 -19 25 -20 41 -1 25 29 129 29 138 0 7 -22 35 -28 35 -7 0 7 -6 19 -12 26
-7 7 12 1 42 -13 30 -14 62 -26 70 -26 13 0 13 -1 0 -10 -8 -5 -58 -10 -110
-11 -107 -1 -225 -14 -175 -19 36 -4 46 -4 64 1 7 2 15 -5 17 -15 1 -10 9 -23
16 -27 8 -5 -13 -9 -51 -9 -35 0 -61 -3 -57 -7 4 -5 74 -8 154 -8 l147 0 3
-41 c3 -38 1 -41 -30 -51 -18 -6 -25 -11 -15 -12 9 -1 17 -7 17 -14 0 -10 -18
-13 -68 -11 -73 1 -112 10 -112 25 0 5 -11 7 -25 3 -29 -7 -115 21 -115 38 0
6 -14 8 -34 5 -28 -4 -34 -3 -29 9 6 16 -23 54 -42 54 -7 0 -23 10 -36 23 -14
12 -78 39 -152 62 -70 22 -127 45 -127 52 0 14 110 21 207 13 53 -5 67 -10 96
-38z m-4304 -28 c29 -6 31 -9 31 -51 0 -33 -3 -44 -13 -40 -15 6 -41 -29 -32
-43 3 -5 -10 -16 -30 -24 -20 -9 -34 -20 -30 -26 3 -6 -3 -10 -15 -10 -13 0
-24 -8 -27 -19 -6 -22 -49 -34 -75 -20 -29 15 -44 10 -89 -29 l-43 -39 155 3
c85 1 176 0 202 -3 44 -5 48 -8 44 -29 -2 -14 2 -25 9 -28 8 -3 14 -15 14 -26
0 -17 -6 -20 -40 -20 l-40 0 0 -124 0 -123 -45 -46 c-25 -26 -45 -54 -45 -62
0 -9 -7 -18 -15 -21 -8 -4 -15 -16 -15 -28 0 -12 -8 -31 -18 -42 -24 -25 -38
-121 -15 -103 9 8 12 22 8 40 -7 29 11 51 21 25 5 -13 9 -12 27 5 12 11 28 17
39 13 13 -4 18 0 19 13 0 10 3 13 6 6 7 -19 23 -16 24 5 0 12 2 13 6 3 5 -11
7 -11 14 0 5 9 9 -19 9 -71 2 -149 7 -257 14 -268 3 -6 2 -13 -4 -17 -13 -8
-13 -65 -1 -65 6 0 10 -100 10 -251 1 -137 5 -258 10 -268 6 -10 13 -74 17
-144 7 -126 7 -126 -15 -120 -15 4 -28 -2 -42 -18 -22 -26 -22 -27 40 -61 30
-17 31 -19 31 -93 l0 -77 -65 7 c-63 7 -65 7 -76 -19 -7 -14 -10 -28 -7 -31 3
-3 36 -11 74 -18 37 -7 69 -18 72 -25 2 -7 -2 -12 -10 -13 -59 -3 -94 -22
-133 -74 -18 -23 -41 -39 -69 -47 -22 -6 -45 -14 -51 -18 -5 -4 -84 -30 -175
-59 -91 -30 -196 -64 -233 -77 -50 -18 -69 -21 -71 -11 -2 6 -11 131 -20 277
-10 146 -20 294 -23 329 -5 57 -4 64 10 58 32 -12 27 -6 -70 96 -24 25 -43 48
-43 52 0 11 -88 95 -100 95 -5 0 -10 14 -10 30 0 38 26 41 40 4 10 -24 12 -25
32 -12 35 23 66 96 73 170 7 66 6 69 -19 89 -45 36 -73 109 -42 109 8 0 16 6
19 13 3 8 15 2 33 -18 159 -171 228 -249 263 -299 22 -33 82 -102 132 -155 51
-53 112 -127 137 -164 25 -38 52 -71 61 -74 9 -4 24 -13 34 -21 9 -8 17 -11
17 -6 0 5 -9 15 -20 22 -11 7 -20 19 -20 27 0 8 -9 20 -20 27 -11 7 -20 18
-20 24 0 7 -37 55 -82 108 -119 138 -138 162 -138 174 0 6 -3 12 -7 14 -5 2
-25 37 -46 80 -21 42 -47 87 -58 100 -11 12 -41 50 -66 83 -26 33 -51 62 -55
63 -4 2 -8 7 -8 12 0 5 -14 23 -32 41 -29 28 -35 31 -60 21 -34 -13 -36 -3 -5
27 15 13 30 19 41 15 24 -9 56 24 56 58 0 16 10 42 22 58 12 17 23 49 25 73 8
97 7 150 -2 154 -14 4 -41 -52 -55 -112 -6 -27 -12 -55 -13 -61 -2 -6 -10 -23
-20 -37 -9 -15 -17 -32 -17 -39 0 -9 -3 -9 -11 -1 -9 9 -6 19 10 39 11 15 21
38 21 51 0 40 -24 21 -33 -25 -8 -43 -20 -54 -31 -27 -10 27 -34 16 -79 -36
-28 -32 -48 -66 -52 -88 -9 -53 -44 -171 -61 -208 -11 -23 -22 -33 -38 -33
-19 0 -22 4 -18 30 2 17 13 37 24 44 15 11 18 21 14 43 -4 18 0 41 12 65 21
40 31 164 12 153 -5 -3 -10 -15 -10 -26 0 -12 -7 -19 -19 -19 -26 0 -161 26
-189 37 -21 8 -21 9 15 22 21 7 81 34 133 58 101 47 119 48 131 2 7 -28 15
-28 61 3 75 51 104 79 123 115 11 21 48 65 83 98 64 62 68 72 63 153 -2 18 5
44 13 57 24 37 48 141 41 178 -7 37 -25 76 -43 95 -23 25 -137 32 -582 33
-403 1 -438 2 -367 14 83 14 90 18 219 118 l75 57 209 35 c427 72 561 96 645
115 128 30 135 29 143 -22 10 -64 28 -118 39 -118 5 0 15 8 22 17 9 12 26 17
56 16 44 -2 44 -2 22 16 -22 18 -22 19 -3 36 17 16 18 20 5 38 -31 44 -12 56
64 41z m8738 -49 c-6 -40 4 -52 26 -30 21 21 97 20 97 -1 0 -10 6 -13 19 -9
13 4 26 -3 44 -25 14 -16 34 -29 44 -28 37 3 53 -2 53 -17 0 -13 30 -18 85
-15 3 1 13 -6 21 -15 9 -8 33 -15 54 -15 21 0 42 -4 45 -10 10 -15 35 -12 35
5 0 8 7 15 15 15 8 0 15 -7 15 -15 0 -8 8 -15 18 -15 13 -1 11 -4 -8 -15 -23
-13 -17 -14 73 -13 53 1 100 -1 103 -4 3 -3 -45 -6 -106 -7 -87 -1 -110 2
-110 13 0 9 -8 12 -27 8 l-28 -6 25 -7 25 -7 -25 -1 c-14 -1 -77 -4 -140 -7
-63 -3 -187 -9 -275 -13 -88 -5 -161 -7 -163 -6 -1 1 8 31 22 66 13 35 32 97
42 137 19 76 30 96 21 37z m-1726 -92 c11 3 32 1 47 -4 25 -9 136 0 220 17 29
6 33 4 30 -12 -3 -16 6 -20 61 -26 36 -4 68 -13 75 -22 8 -11 46 -16 161 -20
83 -3 151 -5 153 -6 2 0 0 -6 -5 -12 -9 -15 -10 -20 -12 -53 -1 -23 -5 -25
-45 -25 l-43 0 -9 -92 c-9 -91 -9 -93 -34 -90 -14 1 -137 5 -275 7 -253 6
-316 10 -314 23 5 30 -4 41 -38 46 -145 20 -203 30 -203 36 0 3 14 19 31 36
17 16 54 62 82 102 31 44 58 72 69 72 10 0 18 5 18 10 0 6 -4 10 -10 10 -5 0
-10 5 -10 11 0 8 5 8 15 -1 8 -7 24 -10 36 -7z m-5726 -50 c26 -26 35 -44 33
-63 -3 -25 -2 -25 62 -22 36 1 79 8 95 16 17 8 48 18 69 22 35 6 38 5 33 -10
-4 -10 -7 -24 -7 -31 0 -9 -14 -15 -37 -17 -32 -2 -37 -6 -35 -23 6 -34 20
-40 110 -45 112 -6 132 -3 132 20 0 10 5 22 11 26 22 13 -10 26 -70 27 -34 0
-61 4 -61 9 0 4 5 8 10 8 19 0 10 21 -12 29 -27 10 -16 16 47 26 46 7 61 7
165 6 94 -2 117 -8 123 -33 4 -13 13 -19 29 -18 51 5 56 1 60 -42 7 -71 2 -78
-54 -78 -46 0 -51 -2 -61 -30 -9 -25 -18 -30 -55 -36 -31 -5 -46 -12 -51 -27
-6 -16 -9 -7 -14 33 -4 29 -8 54 -9 55 -2 1 -23 0 -47 -4 -36 -5 -48 -12 -61
-36 -9 -16 -16 -42 -16 -57 2 -27 0 -28 -55 -28 -53 0 -57 2 -69 30 -7 16 -10
37 -6 46 3 9 3 20 0 26 -9 14 -24 -11 -24 -39 0 -13 -5 -23 -11 -23 -15 0 -79
-62 -73 -71 2 -4 0 -10 -6 -14 -13 -8 -13 25 0 45 6 9 5 19 -3 29 -10 12 -8
14 11 9 12 -4 22 -2 22 3 0 15 -32 10 -51 -7 -29 -26 -49 -11 -49 36 0 38 -2
40 -30 40 -24 0 -30 -5 -32 -22 0 -13 -1 -30 -2 -38 -1 -11 -14 -15 -51 -15
l-50 0 -3 42 c-3 46 -14 53 -70 49 -41 -3 -58 10 -70 54 -13 50 -8 56 43 52
50 -4 102 3 124 17 12 8 12 13 3 24 -10 12 -9 16 4 21 9 3 20 4 25 0 5 -3 9 6
9 20 0 16 -6 26 -15 26 -8 0 -15 5 -15 10 0 19 19 10 55 -27z m-3004 -17 c-31
-32 -33 -39 -28 -78 3 -24 9 -52 13 -61 6 -15 -5 -17 -117 -17 -68 0 -178 -3
-244 -7 -66 -3 -118 -3 -115 0 10 11 488 192 519 196 3 1 -10 -15 -28 -33z
m-2166 -43 c155 -22 129 -28 -151 -39 -121 -5 -222 -8 -226 -9 -5 0 -8 5 -7
10 0 6 42 18 92 28 50 9 93 19 95 22 10 9 76 5 197 -12z m4777 -87 l3 -54
-224 -1 c-123 -1 -263 -4 -310 -7 -95 -6 -191 2 -191 17 0 5 11 9 25 9 14 0
25 5 25 10 0 6 -6 10 -14 10 -16 0 -32 37 -21 48 7 8 259 17 532 20 l171 2 4
-54z m-4343 10 c-2 -2 -32 -27 -67 -54 -34 -28 -89 -74 -121 -104 -46 -42 -82
-63 -155 -92 l-95 -37 -103 12 c-110 12 -195 38 -190 57 1 7 -5 12 -13 12 -65
0 91 108 224 155 24 8 134 21 254 30 117 9 217 18 222 20 14 5 49 6 44 1z
m321 -34 c25 -6 105 -18 178 -28 72 -10 132 -21 132 -25 0 -4 -51 -10 -112
-14 -142 -8 -447 -33 -513 -41 l-50 -6 20 22 c11 13 52 44 91 70 l71 46 69 -7
c38 -4 89 -12 114 -17z m-895 -11 c-6 -5 -44 -23 -86 -40 -42 -18 -98 -45
-124 -62 l-49 -31 -17 24 c-10 12 -22 40 -27 61 -12 45 -11 46 133 50 55 2
118 4 140 5 23 1 35 -2 30 -7z m12524 -183 c-4 -35 3 -59 28 -88 27 -33 87
-76 135 -97 25 -11 48 -56 35 -69 -5 -6 -56 27 -85 54 -7 6 -21 12 -30 12 -21
0 38 -63 93 -98 55 -35 161 -87 210 -102 22 -6 62 -21 88 -33 44 -19 48 -24
45 -49 -3 -15 -2 -29 2 -30 7 -3 38 -154 47 -225 4 -35 2 -42 -16 -48 -27 -8
-37 -1 -58 43 -12 25 -17 56 -16 97 3 71 -12 124 -41 145 -29 21 -66 40 -78
40 -13 0 -1 -199 13 -217 19 -22 1 -15 -65 27 -35 22 -66 40 -70 40 -14 0 -4
-30 15 -43 21 -15 48 -76 49 -111 0 -22 47 -76 65 -76 7 0 20 17 29 39 16 35
20 37 42 27 29 -13 31 -32 4 -48 -11 -7 -20 -21 -20 -30 0 -12 -8 -18 -22 -18
-19 0 -20 -2 -6 -17 21 -25 30 -53 15 -47 -7 2 -26 -13 -42 -36 -17 -22 -33
-40 -37 -40 -5 0 -48 -40 -96 -88 -104 -104 -96 -75 -114 -402 -6 -118 -12
-237 -14 -265 -2 -27 -3 -81 -4 -120 -1 -64 -2 -68 -15 -51 -15 19 -15 19 -15
-2 0 -19 -4 -21 -27 -16 -16 4 -36 15 -46 25 -19 21 -37 25 -37 9 0 -5 -8 -10
-17 -10 -12 0 -14 3 -6 8 17 11 29 92 13 92 -6 0 -16 -12 -22 -28 -12 -31
-102 -102 -130 -102 -11 0 -23 -11 -29 -27 -17 -45 -59 -82 -136 -120 -81 -40
-129 -40 -135 0 -2 17 -12 23 -40 27 -26 4 -52 20 -95 60 -33 30 -63 64 -67
75 -4 11 -4 64 0 119 l7 98 33 14 c19 8 34 19 34 24 0 6 8 10 19 10 10 0 25 7
32 17 13 15 12 15 -8 5 -12 -7 -25 -12 -29 -12 -5 0 36 27 91 61 55 33 102 62
104 65 3 2 -7 16 -21 30 l-25 26 -79 -46 c-44 -25 -91 -48 -106 -52 -26 -6
-28 -4 -28 28 0 31 7 41 60 82 33 26 60 50 60 53 0 11 -33 43 -43 43 -6 0 -21
-9 -33 -21 -12 -12 -26 -19 -31 -16 -12 8 15 635 28 643 5 3 16 -4 25 -15 9
-10 22 -17 28 -15 6 2 35 -7 63 -20 28 -14 63 -28 77 -32 14 -3 26 -10 26 -15
0 -5 11 -9 25 -9 14 0 28 -7 31 -15 4 -8 17 -15 31 -15 19 0 24 -4 19 -16 -3
-9 -1 -14 5 -12 6 2 10 6 9 8 -10 46 -14 51 -36 46 -21 -6 -24 -3 -24 22 0 15
-6 34 -12 41 -10 11 -10 14 0 18 6 3 12 13 12 24 0 16 -7 19 -44 19 -45 0 -71
24 -44 42 8 5 2 8 -17 8 -21 0 -26 -3 -16 -9 9 -6 10 -11 2 -15 -9 -6 -41 14
-41 27 0 3 53 30 110 55 l25 11 -25 0 c-31 1 -110 42 -110 57 0 6 -17 19 -37
30 -74 38 -78 47 -75 158 1 55 4 101 6 104 3 2 36 8 74 12 87 11 186 42 273
86 64 32 193 128 233 172 21 24 48 29 45 10z m-973 -73 c56 -32 111 -85 99
-97 -3 -2 -46 1 -97 8 -80 11 -96 16 -113 39 -11 14 -34 43 -52 64 l-32 37 66
-8 c46 -5 84 -18 129 -43z m-1094 -26 c66 -13 109 -29 103 -39 -8 -12 38 -28
100 -35 33 -4 73 -14 89 -22 19 -10 45 -13 74 -10 25 3 58 -1 75 -8 27 -11 21
-13 -69 -17 -164 -9 -387 -3 -392 10 -2 7 -10 12 -18 12 -8 0 -14 6 -14 13 0
8 -4 7 -10 -3 -7 -11 -10 -2 -10 33 0 26 5 47 10 47 6 0 10 5 10 11 0 5 -4 7
-10 4 -5 -3 -10 -1 -10 4 0 14 6 14 72 0z m-8347 -180 c0 -13 -8 -36 -17 -51
-10 -14 -18 -31 -18 -37 0 -6 -9 -11 -19 -11 -11 0 -21 -5 -23 -10 -2 -6 -21
-13 -42 -17 -35 -5 -38 -4 -32 14 4 14 1 23 -9 27 -19 7 -20 26 0 26 18 0 20
16 3 23 -8 3 -1 9 15 16 15 6 27 15 27 20 0 6 6 8 13 5 7 -2 29 2 48 10 43 19
54 16 54 -15z m2569 -2 c-4 -12 -13 -26 -20 -30 -8 -4 -14 -17 -14 -27 0 -13
-9 -22 -25 -26 -14 -3 -25 -10 -25 -15 0 -5 -7 -9 -15 -9 -8 0 -15 -4 -15 -8
0 -5 -18 -15 -40 -22 -22 -7 -40 -19 -40 -26 0 -8 -6 -11 -15 -7 -9 3 -24 -2
-35 -12 -17 -16 -20 -15 -39 4 -12 12 -21 23 -21 26 0 2 17 13 38 24 30 17 33
20 15 21 -40 0 -25 19 21 25 28 5 53 16 67 31 12 13 28 24 36 24 7 0 13 4 13
9 0 5 8 11 18 15 9 3 33 12 52 19 42 16 53 12 44 -16z m346 -17 c-12 -8 -11
-10 6 -10 21 0 22 -6 29 -145 4 -79 4 -164 1 -189 -5 -32 -3 -48 7 -58 11 -10
12 -20 5 -38 -5 -14 -6 -51 -3 -82 5 -45 2 -69 -14 -113 -19 -50 -126 -281
-151 -327 -6 -10 -10 -35 -10 -57 0 -45 9 -51 81 -51 l49 0 0 -72 c0 -71 -1
-74 -34 -100 -19 -16 -38 -28 -42 -28 -4 0 -28 -10 -53 -22 -43 -22 -56 -23
-231 -20 -174 3 -295 13 -309 27 -5 6 -19 775 -14 784 2 2 7 -7 12 -20 10 -23
10 -23 11 6 1 29 2 28 20 -15 10 -25 19 -53 19 -63 1 -21 25 -49 35 -40 3 4 6
1 6 -5 0 -7 14 -12 30 -12 28 0 30 2 24 28 -4 15 -10 29 -14 32 -9 6 -11 30
-11 109 1 52 5 69 23 88 20 22 20 24 4 42 -16 18 -15 19 24 25 34 5 40 10 40
30 0 17 9 28 29 37 17 8 36 25 43 39 7 14 16 27 19 30 3 3 14 20 23 38 11 21
31 39 54 49 20 8 64 28 97 43 57 27 105 43 132 45 7 0 18 6 25 13 6 6 21 12
33 12 16 0 17 -2 5 -10z m1545 -388 c-123 -118 -257 -238 -339 -302 -10 -8
-35 -29 -55 -46 -48 -40 -193 -137 -311 -206 -99 -58 -331 -178 -345 -178 -23
0 27 34 113 75 53 26 162 86 240 134 208 125 234 143 352 241 43 36 93 76 112
90 18 14 56 48 84 75 116 114 228 215 233 209 3 -3 -35 -44 -84 -92z m5035
-135 c0 -24 -9 -42 -34 -66 -32 -31 -40 -33 -120 -38 -62 -4 -86 -3 -86 6 0 6
-12 17 -27 23 l-28 12 29 4 c18 2 25 7 18 11 -7 4 29 5 78 3 79 -4 90 -2 90
12 0 28 33 65 58 66 18 0 22 -5 22 -33z m-365 -137 c37 -18 136 -39 163 -35
15 3 53 7 84 9 34 2 69 11 85 22 52 34 54 32 49 -94 -3 -65 -8 -217 -12 -339
l-7 -223 -31 0 c-39 0 -117 29 -186 70 -29 17 -84 47 -121 66 -92 46 -139 88
-139 125 0 31 -22 49 -51 42 -19 -5 -23 6 -19 55 1 12 -5 25 -13 27 -8 4 -14
21 -15 42 -1 34 -19 59 -112 158 -15 16 -18 29 -12 65 l6 45 7 -35 6 -35 8 34
c8 34 8 34 17 11 6 -15 12 -20 16 -14 4 6 36 14 72 18 36 4 72 11 79 15 13 8
85 -9 126 -29z m1875 -531 c107 -30 150 -52 150 -77 0 -6 5 -12 11 -14 8 -3 8
-42 0 -148 -6 -80 -15 -201 -20 -269 -9 -147 -16 -158 -84 -137 -23 7 -60 23
-82 35 l-40 22 40 -6 c29 -4 36 -3 25 4 -24 17 10 13 40 -4 42 -24 60 -19 60
16 0 42 -17 69 -43 69 -33 0 -49 14 -42 36 6 18 6 18 -10 -1 -17 -20 -17 -20
-10 3 4 14 2 22 -6 22 -16 0 -49 30 -49 43 0 6 6 3 13 -7 7 -9 24 -18 37 -20
14 -2 38 -8 53 -15 42 -16 45 -15 52 29 7 43 -5 70 -32 70 -9 0 -11 5 -7 13 4
6 -2 3 -14 -7 -19 -17 -22 -17 -22 -3 0 10 -4 17 -10 17 -5 0 -10 4 -10 9 0
10 40 8 83 -4 21 -5 27 -4 27 8 0 10 -20 21 -55 33 -31 9 -53 20 -49 23 5 6 9
7 34 10 6 0 15 11 21 24 l10 22 -5 -23 c-4 -22 16 -52 35 -52 11 0 22 41 17
71 -2 18 -9 24 -28 24 -32 0 -49 11 -60 40 -9 24 -56 39 -65 21 -3 -8 -7 -7
-11 2 -11 23 -21 12 -18 -20 5 -40 -11 -25 -21 19 -6 29 -4 32 11 26 12 -4 15
-3 10 5 -4 7 -2 12 3 12 23 0 4 71 -24 92 -17 13 6 9 85 -13z m-1631 -174 c24
-7 24 -8 5 -22 -10 -8 -47 -28 -82 -45 -53 -26 -65 -29 -73 -17 -13 21 -12 23
20 37 l30 13 -27 38 c-15 21 -39 44 -55 50 -15 7 -25 16 -22 21 3 5 -13 17
-35 27 -22 10 -40 21 -40 26 0 4 57 -22 128 -57 70 -35 138 -67 151 -71z
m2018 51 c313 -78 684 -132 1033 -151 134 -7 168 -18 177 -53 12 -51 -31 -536
-51 -567 -22 -33 -61 -36 -260 -24 -357 21 -793 99 -1012 180 -82 31 -84 40
-59 394 13 192 16 211 36 228 26 21 19 22 136 -7z m-3423 -8 c-4 -7 -3 -8 4
-4 7 4 21 1 32 -7 20 -14 20 -15 -7 -24 -67 -24 -107 -34 -253 -62 -85 -17
-180 -36 -210 -42 -31 -7 -160 -13 -295 -15 -160 -1 -300 -9 -420 -22 -189
-22 -357 -27 -333 -10 9 7 5 8 -14 5 -15 -2 -25 -1 -23 4 3 4 24 10 48 14 23
3 83 15 133 25 49 11 144 24 210 30 203 17 325 30 434 46 197 28 389 51 525
63 152 13 177 13 169 -1z m1521 -144 c-4 -27 -11 -44 -20 -44 -7 0 -15 4 -17
9 -1 5 -16 13 -32 17 -37 9 -32 -11 9 -34 39 -22 54 -42 55 -69 0 -13 5 -23
11 -23 7 0 8 -7 4 -17 -5 -10 -11 -36 -14 -57 -3 -22 -12 -41 -18 -43 -7 -3
-35 18 -61 46 -27 28 -54 51 -61 51 -6 0 -11 6 -11 14 0 8 -11 23 -23 33 -13
10 -29 28 -35 40 -11 19 -7 23 38 42 27 11 56 21 64 21 8 0 19 7 24 16 11 20
86 63 91 51 1 -4 0 -28 -4 -53z m-8631 -15 c-3 -6 0 -16 7 -21 11 -8 10 -9 -4
-4 -12 4 -30 -7 -56 -32 l-38 -37 5 -88 5 -89 36 7 36 6 -35 -19 c-20 -11 -36
-28 -38 -41 -4 -27 3 -26 56 1 37 20 44 21 52 8 5 -8 10 -19 10 -25 0 -5 -5
-3 -10 5 -9 13 -11 13 -20 0 -9 -13 -10 -13 -10 0 0 10 -3 11 -8 3 -4 -6 -20
-15 -35 -18 -15 -4 -28 -12 -28 -19 -5 -38 -3 -92 4 -97 5 -3 27 3 49 15 30
14 43 16 46 8 2 -7 8 -12 13 -12 4 0 6 6 3 14 -3 8 -1 17 4 20 5 3 12 -5 14
-19 4 -20 1 -25 -16 -25 -17 0 -18 -2 -6 -10 8 -5 12 -10 10 -12 -26 -17 -52
-28 -65 -28 -9 0 -33 -9 -55 -20 -22 -11 -41 -20 -43 -20 -3 0 -7 33 -11 73
-3 39 -11 135 -17 213 -15 178 -8 196 84 241 34 17 63 31 65 32 2 0 0 -4 -4
-10z m5459 -36 c-13 -2 -23 -11 -23 -19 0 -8 -10 -14 -22 -15 -13 0 -34 -2
-48 -4 -43 -7 -353 -13 -367 -8 -7 3 -13 11 -13 19 0 11 20 14 88 15 48 1 125
4 172 8 92 8 250 11 213 4z m-4623 -262 c-19 -16 -37 -29 -40 -29 -22 2 -42
-5 -72 -26 -19 -13 -59 -29 -89 -37 -30 -7 -70 -20 -89 -30 -19 -9 -87 -33
-150 -54 -63 -20 -130 -43 -148 -51 -43 -19 -142 -30 -142 -16 0 11 2 12 180
74 63 22 131 48 150 59 44 23 244 89 271 89 11 0 34 8 52 17 29 15 77 30 102
32 6 0 -6 -13 -25 -28z m-3731 -586 c5 -11 17 -42 26 -69 10 -26 31 -63 47
-82 17 -19 28 -34 25 -34 -11 0 -117 29 -126 34 -5 3 -18 24 -30 46 -16 32
-18 42 -8 52 7 7 16 21 20 31 3 9 11 17 17 17 5 0 10 7 10 16 0 14 -3 14 -15
4 -12 -10 -15 -10 -15 4 0 9 4 16 9 16 5 0 12 10 16 23 7 20 8 20 12 -8 2 -16
8 -39 12 -50z"/>
<path d="M11703 6909 c-19 -11 -35 -14 -38 -9 -10 15 -35 12 -35 -5 0 -12 34
-15 233 -15 328 -2 317 -2 317 12 0 4 -12 8 -27 8 -16 1 -89 5 -163 10 -91 6
-149 5 -178 -2 -35 -9 -46 -8 -60 4 -15 14 -20 14 -49 -3z"/>
<path d="M13034 4066 c-3 -7 6 -59 20 -114 30 -117 32 -144 10 -177 -21 -33
-15 -70 12 -71 12 -1 31 -8 43 -16 21 -15 21 -17 5 -32 -16 -16 -14 -20 22
-57 21 -21 42 -39 46 -39 16 0 7 27 -17 50 -28 27 -30 33 -12 52 26 29 49 86
42 108 -10 32 9 22 37 -19 31 -46 55 -61 68 -41 16 23 3 78 -34 150 -36 69
-68 90 -79 50 -7 -29 3 -90 15 -90 6 0 7 11 4 25 -4 14 -2 25 3 25 16 0 52
-43 47 -56 -3 -7 2 -18 10 -24 8 -7 14 -16 14 -21 0 -11 -30 0 -52 18 -10 9
-25 12 -37 8 -17 -5 -21 0 -26 32 -18 112 -36 164 -70 200 -19 21 -35 41 -35
45 0 14 -30 9 -36 -6z"/>
<path d="M4964 3329 c-3 -6 -1 -16 5 -22 18 -18 12 -30 -14 -25 -21 4 -23 3
-14 -13 5 -11 14 -19 19 -19 6 0 10 -11 10 -25 0 -14 5 -25 10 -25 6 0 10 10
10 23 1 20 2 20 11 4 13 -23 5 -47 -16 -47 -11 0 -15 -6 -11 -17 3 -10 10 -39
15 -64 13 -60 30 -103 37 -96 3 3 0 16 -7 28 l-12 23 27 -17 c33 -22 46 -15
46 27 0 58 -79 276 -101 276 -4 0 -11 -5 -15 -11z"/>
<path d="M14206 2548 c-5 -16 -26 -329 -26 -377 0 -19 3 -31 8 -27 4 4 15 94
24 199 12 133 15 158 12 82 -2 -60 -7 -149 -11 -197 -5 -78 -4 -88 11 -88 11
0 16 9 16 28 0 15 4 86 10 157 16 226 16 220 0 220 -8 0 -21 4 -28 8 -7 5 -14
3 -16 -5z"/>
<path d="M14446 2407 c-3 -56 -10 -136 -13 -177 l-8 -75 -6 50 -6 50 -1 -52
c-1 -30 2 -53 8 -53 6 0 10 -11 10 -24 0 -18 7 -25 26 -29 14 -2 27 0 29 7 4
11 24 264 28 350 2 48 1 49 -29 52 l-31 4 -7 -103z"/>
<path d="M14765 2347 c-4 -65 -5 -121 -2 -124 3 -2 8 45 12 107 4 61 10 108
13 106 2 -3 -2 -85 -9 -183 -13 -161 -15 -171 -20 -108 l-5 70 -2 -71 c-2 -54
2 -75 13 -84 29 -24 29 -24 44 172 6 78 14 164 17 190 l6 47 -30 -2 -30 -2 -7
-118z"/>
<path d="M14869 2436 l-1 -31 -8 30 c-4 17 -8 26 -9 20 -8 -54 -30 -339 -29
-370 l1 -40 7 35 7 35 2 -32 c1 -40 18 -44 24 -5 l4 27 2 -27 c0 -16 6 -28 11
-28 6 0 10 3 10 8 0 4 7 81 15 172 20 227 20 227 -10 232 -22 5 -25 2 -26 -26z"/>
<path d="M14945 2446 c-2 -6 -9 -78 -15 -161 -6 -82 -13 -168 -16 -191 -5 -37
-3 -42 17 -47 13 -4 26 -2 30 4 5 9 34 386 31 399 -3 10 -44 7 -47 -4z"/>
<path d="M15045 2451 c-3 -6 -10 -9 -14 -6 -11 6 -17 -38 -32 -228 -11 -137
-11 -160 1 -168 8 -5 20 -9 25 -9 7 0 17 78 27 203 15 182 13 240 -7 208z"/>
</g>
</svg>
