<?xml version="1.0" standalone="no"?>
<!DOCTYPE svg PUBLIC "-//W3C//DTD SVG 20010904//EN"
 "http://www.w3.org/TR/2001/REC-SVG-20010904/DTD/svg10.dtd">
<svg version="1.0" xmlns="http://www.w3.org/2000/svg"
 width="1080.000000pt" height="1794.000000pt" viewBox="0 0 1080.000000 1794.000000"
 preserveAspectRatio="xMidYMid meet">
<metadata>
Created by potrace 1.15, written by Peter Selinger 2001-2017
</metadata>
<g transform="translate(0.000000,1794.000000) scale(0.100000,-0.100000)"
fill="#000000" stroke="none">
<path d="M0 17184 l0 -755 23 7 c25 7 57 38 57 54 0 5 6 10 14 10 7 0 16 9 19
21 10 36 32 16 32 -29 0 -23 5 -42 10 -42 6 -1 13 -10 17 -21 4 -10 12 -19 18
-19 6 0 8 4 5 10 -3 6 1 7 9 4 10 -4 16 -1 16 7 0 8 8 4 20 -9 25 -27 26 -68
1 -108 -28 -46 -37 -127 -16 -148 12 -11 15 -25 10 -43 -12 -49 -78 -177 -106
-208 -16 -16 -29 -34 -29 -39 0 -5 -8 -16 -18 -25 -10 -9 -32 -35 -50 -57 -32
-41 -32 -43 -32 -150 l0 -109 38 42 c21 22 59 65 84 95 26 29 57 65 70 79 89
102 151 185 200 271 20 36 45 64 66 75 18 10 39 32 46 48 7 17 24 55 37 85 13
30 45 75 70 100 32 32 53 64 69 109 14 39 39 80 62 105 41 43 67 98 108 229
13 42 29 77 35 77 15 0 597 -179 650 -201 70 -27 411 -129 435 -129 17 0 41
12 63 31 19 17 38 31 41 30 13 -2 83 77 96 109 28 69 41 82 74 75 17 -3 43 -7
58 -8 14 -1 24 -5 21 -9 -2 -5 5 -8 16 -8 11 0 23 -4 26 -10 3 -5 15 -10 26
-10 20 0 80 -27 89 -40 3 -4 19 -10 35 -12 33 -6 178 -58 240 -86 22 -11 81
-32 130 -47 50 -16 95 -32 100 -35 11 -8 195 -64 405 -125 129 -37 482 -131
530 -142 14 -3 30 -12 37 -20 6 -8 20 -14 30 -12 19 2 109 -36 117 -50 3 -5
17 -6 31 -3 20 3 24 1 19 -12 -4 -11 0 -16 14 -16 11 0 23 -6 25 -12 4 -10 7
-10 14 -1 10 14 27 5 36 -20 4 -10 15 -17 24 -16 33 3 43 -1 43 -17 0 -8 4
-13 9 -10 5 3 14 -1 21 -9 7 -9 29 -23 49 -32 20 -9 40 -23 44 -30 5 -9 16
-11 29 -7 16 5 20 3 15 -9 -7 -19 8 -33 47 -43 16 -4 31 -15 34 -26 3 -15 7
-16 19 -7 10 9 17 9 25 1 9 -9 9 -12 0 -12 -7 0 -5 -7 5 -20 10 -11 23 -20 29
-20 6 0 17 -7 24 -15 7 -9 19 -14 27 -11 17 7 17 -20 1 -28 -7 -4 -3 -4 9 -2
17 3 42 -16 105 -79 129 -128 198 -202 198 -215 0 -14 28 -59 58 -92 14 -15
30 -37 36 -49 6 -12 19 -23 29 -25 11 -1 28 -11 38 -21 37 -34 64 -65 64 -71
0 -4 9 -16 20 -27 23 -24 44 -52 82 -112 15 -23 30 -40 35 -37 4 3 8 -2 8 -11
0 -22 17 -10 35 26 15 28 14 31 -9 54 -13 13 -27 34 -31 45 -3 11 -10 20 -15
20 -5 0 -19 17 -31 38 -13 20 -27 40 -32 43 -6 4 -7 14 -4 23 4 9 3 16 -1 16
-4 0 -18 16 -31 36 -15 21 -30 33 -38 29 -9 -3 -13 0 -10 7 2 8 -9 18 -27 24
-17 6 -35 20 -41 30 -5 11 -23 34 -40 50 -16 17 -41 46 -55 64 -14 18 -33 40
-44 49 -10 9 -43 37 -74 64 -30 26 -59 47 -64 47 -4 0 -7 6 -5 13 1 8 -8 11
-25 9 -16 -1 -28 2 -28 7 0 6 8 7 17 4 14 -6 14 -3 -3 20 -10 14 -24 27 -31
27 -13 0 -63 43 -63 54 0 31 284 -196 393 -313 31 -35 82 -93 111 -129 29 -37
66 -78 81 -92 34 -31 115 -137 115 -150 0 -6 5 -10 10 -10 6 0 10 -7 10 -15 0
-8 4 -15 10 -15 10 0 60 52 94 98 71 97 111 149 125 160 12 10 16 31 16 92 0
44 3 80 7 80 4 0 6 6 4 13 -16 51 -15 65 4 70 27 7 29 59 3 55 -15 -2 -19 6
-21 50 -2 40 0 52 12 52 16 0 46 78 46 120 0 28 24 85 41 95 14 9 11 25 -6 25
-8 0 -15 9 -15 19 0 11 -4 23 -10 26 -18 11 -11 35 10 35 23 0 25 13 9 59 -9
24 -8 35 2 47 9 11 9 18 1 26 -15 15 -16 48 -2 48 6 0 11 26 11 63 0 34 1 93
2 131 1 46 -2 71 -10 73 -6 2 -13 -8 -16 -24 -3 -20 -4 -16 -6 15 0 23 4 42 9
42 6 0 10 15 10 33 0 19 6 55 14 80 8 26 10 47 6 47 -9 0 -20 111 -23 230 -2
41 -5 80 -9 85 -4 6 -3 17 1 24 8 12 -4 79 -36 206 -8 33 -16 77 -18 97 -2 20
-6 42 -11 49 -4 8 -9 33 -10 57 -1 25 -6 47 -11 51 -5 3 -14 44 -20 91 -9 74
-28 135 -64 202 -5 10 -9 30 -9 45 -1 48 -21 63 -85 63 -56 0 -57 0 -36 -17
14 -12 22 -34 26 -68 4 -47 11 -84 16 -95 1 -3 3 -9 4 -15 1 -5 12 -30 23 -55
12 -25 22 -55 22 -66 0 -12 7 -38 15 -57 8 -20 15 -50 15 -66 0 -42 10 -67 21
-49 6 8 9 -3 9 -30 0 -32 -3 -41 -12 -35 -7 4 -5 -6 6 -22 10 -16 20 -49 22
-74 1 -25 6 -57 9 -71 4 -14 8 -41 10 -60 12 -107 19 -147 27 -162 6 -12 5
-18 -3 -18 -11 0 -10 -13 10 -175 26 -203 33 -299 22 -303 -14 -5 -15 -82 -1
-82 6 0 10 -18 10 -40 0 -22 -4 -40 -8 -40 -13 0 -32 -198 -26 -265 5 -49 3
-63 -10 -74 -18 -15 -21 -47 -5 -56 10 -7 9 -28 -7 -167 -5 -42 -9 -48 -30
-48 -18 0 -24 -5 -24 -23 0 -13 -5 -28 -12 -35 -14 -14 -11 -125 3 -130 13 -5
11 -36 -3 -50 -6 -6 -11 -25 -10 -42 0 -22 -6 -35 -23 -46 -21 -14 -26 -14
-47 0 -30 20 -68 63 -68 77 0 15 -59 89 -71 89 -6 0 -35 19 -66 43 -30 23 -65
49 -77 57 -11 8 -22 18 -24 23 -2 4 -12 7 -22 7 -10 0 -42 23 -71 50 -29 28
-53 50 -55 50 -8 0 -96 64 -124 90 -34 32 -64 50 -117 72 -18 7 -33 16 -33 19
0 4 -9 9 -21 12 -13 4 -18 10 -13 18 5 9 1 11 -14 7 -13 -4 -20 -1 -19 5 1 6
-7 13 -18 15 -11 2 -25 11 -32 19 -7 9 -17 12 -25 7 -7 -4 -10 -4 -6 1 7 8
-44 46 -67 49 -20 3 -145 71 -145 78 0 5 -6 8 -13 8 -8 0 -51 18 -97 41 -46
22 -101 47 -124 55 -97 36 -252 83 -338 104 -97 24 -312 78 -433 110 -38 10
-128 37 -200 60 -71 24 -140 45 -153 47 -12 3 -25 9 -28 14 -3 5 -13 9 -23 9
-10 0 -45 13 -77 30 -32 16 -65 30 -72 30 -7 0 -20 4 -30 9 -59 32 -105 51
-120 51 -10 0 -26 6 -37 14 -11 7 -38 19 -59 26 -21 7 -70 28 -108 47 -38 18
-82 36 -98 40 -17 3 -30 9 -30 14 0 5 -18 19 -40 31 -62 36 -63 68 -4 246 19
56 34 110 34 120 0 31 -89 98 -116 88 -8 -3 -14 -1 -14 5 0 6 -9 8 -19 4 -13
-4 -27 1 -40 14 -12 12 -21 17 -21 12 0 -6 -12 -3 -27 5 -16 7 -36 14 -46 14
-11 0 -15 4 -11 11 5 8 -1 10 -19 5 -14 -3 -27 -2 -29 4 -2 6 -18 13 -36 15
-17 2 -42 13 -54 25 -13 12 -29 18 -40 14 -11 -3 -26 0 -34 7 -9 7 -32 12 -51
11 -19 -2 -32 1 -29 6 11 18 -117 64 -177 65 -18 0 -24 3 -16 8 8 5 1 11 -22
17 -23 6 -39 5 -49 -2 -8 -6 -12 -6 -8 -2 9 11 -99 66 -128 66 -12 0 -38 7
-57 15 -20 8 -49 15 -64 16 -15 0 -22 3 -15 6 6 2 12 8 12 13 0 13 -43 20 -57
8 -9 -7 -14 -6 -19 6 -3 9 -17 16 -29 16 -13 0 -26 6 -28 13 -4 9 -6 8 -6 -2
-1 -9 -10 -4 -26 13 -13 14 -32 26 -42 26 -10 0 -29 7 -41 16 -13 9 -29 13
-37 10 -8 -3 -15 -1 -15 4 0 6 -8 10 -19 10 -10 0 -24 7 -31 15 -15 17 -101
45 -142 45 -15 0 -28 5 -28 10 0 6 -130 10 -370 10 l-370 0 0 -756z"/>
<path d="M6000 17931 c0 -5 11 -37 24 -72 71 -189 173 -544 221 -769 46 -216
50 -263 49 -570 -1 -296 -4 -335 -51 -614 -3 -22 -19 -60 -34 -85 -15 -26 -31
-59 -34 -76 -6 -28 -6 -29 9 -11 27 33 27 13 0 -85 -24 -87 -175 -549 -194
-594 -5 -11 -22 -60 -39 -108 -36 -102 -60 -152 -61 -124 0 9 -4 17 -10 17 -5
0 -10 8 -10 18 0 9 -20 40 -45 69 -25 28 -45 54 -45 58 0 3 -9 15 -20 27 -11
12 -29 45 -42 75 -12 29 -26 53 -32 53 -13 0 -146 -146 -146 -160 0 -5 -13
-24 -30 -42 -16 -18 -30 -38 -30 -44 0 -7 -6 -14 -14 -17 -7 -3 -16 -24 -20
-46 -6 -37 -23 -87 -48 -134 -5 -11 -7 -21 -4 -24 3 -3 -4 -14 -15 -26 -10
-11 -19 -29 -19 -39 0 -24 -46 -167 -76 -238 -13 -30 -26 -66 -29 -80 -12 -48
-59 -165 -72 -181 -7 -8 -13 -19 -13 -23 0 -4 -10 -16 -22 -26 -22 -17 -23
-17 -51 6 -16 14 -50 34 -75 45 -44 21 -46 21 -58 3 -8 -11 -17 -23 -22 -29
-4 -5 -24 -38 -42 -73 l-35 -64 40 -34 c44 -37 43 -42 -1 -19 -41 21 -49 19
-73 -17 -18 -29 -19 -34 -5 -44 13 -10 13 -12 -1 -18 -21 -8 -10 -26 16 -26
15 0 19 -7 19 -35 0 -22 -6 -38 -15 -41 -8 -4 -15 -14 -15 -23 0 -14 -2 -14
-10 -1 -8 12 -10 10 -10 -9 0 -13 -3 -22 -6 -18 -9 9 -74 -43 -74 -59 0 -8 -6
-11 -15 -8 -9 4 -15 0 -15 -10 0 -9 -9 -25 -20 -36 -11 -11 -20 -27 -20 -36 0
-10 -6 -14 -15 -10 -8 3 -15 2 -15 -3 0 -4 -25 -34 -55 -67 -30 -32 -55 -64
-55 -70 0 -6 -7 -17 -15 -24 -20 -17 -19 -30 3 -30 12 0 10 -4 -8 -13 -17 -9
-27 -10 -32 -3 -12 17 -11 19 42 90 28 37 50 71 50 75 0 5 7 14 15 21 20 17
19 30 -3 30 -24 0 -79 -77 -114 -158 -29 -66 -35 -88 -18 -62 9 13 11 13 20 0
16 -25 11 -50 -12 -60 -13 -5 -20 -9 -15 -9 4 -1 0 -12 -9 -26 -9 -14 -14 -32
-10 -40 3 -8 1 -15 -4 -15 -6 0 -10 -8 -10 -17 0 -15 -2 -14 -15 3 -14 18 -15
15 -10 -31 6 -45 5 -48 -8 -32 -10 12 -17 14 -22 8 -3 -6 -3 -11 2 -12 22 -2
-37 -18 -69 -18 -20 -1 -40 -5 -43 -11 -3 -5 0 -7 9 -4 8 3 40 0 72 -6 l57
-12 -33 -16 c-17 -8 -35 -23 -38 -31 -3 -9 -12 -26 -20 -39 -31 -48 -113 -325
-126 -427 -14 -98 -72 -213 -96 -189 -9 9 -9 21 0 50 6 22 15 82 20 134 12
130 48 362 67 435 8 33 15 70 15 83 0 12 7 22 14 22 8 0 14 8 14 18 0 9 14 60
30 112 31 95 33 137 8 168 -46 58 -54 163 -19 245 11 26 20 49 20 52 1 3 7 18
15 33 8 16 13 37 11 48 -2 10 -4 22 -4 27 -1 4 -29 7 -63 7 -59 0 -62 -1 -100
-42 -21 -23 -38 -47 -38 -53 0 -7 -7 -18 -15 -25 -8 -7 -17 -27 -21 -46 -3
-19 -10 -34 -14 -34 -13 0 -60 -101 -60 -131 0 -16 -4 -29 -10 -29 -5 0 -10
-10 -10 -23 0 -12 -18 -59 -40 -105 -22 -45 -40 -88 -40 -96 0 -8 -5 -18 -10
-21 -6 -4 -8 -11 -5 -16 4 -5 -1 -16 -9 -25 -9 -9 -14 -20 -11 -25 4 -5 1 -9
-5 -9 -6 0 -9 -4 -6 -8 5 -8 -148 -23 -293 -28 l-64 -2 -37 47 c-41 51 -136
143 -190 183 -102 76 -171 93 -241 58 -70 -35 -124 -73 -145 -100 -24 -31 -34
-181 -14 -205 7 -9 8 -15 2 -15 -12 0 28 -128 69 -223 38 -85 124 -230 194
-322 43 -58 51 -76 48 -102 -4 -24 -10 -31 -29 -32 -48 -3 -54 -5 -54 -15 0
-7 -3 -7 -8 1 -4 7 -27 13 -51 14 -36 3 -47 -1 -63 -21 l-20 -25 33 -5 c33 -5
33 -6 12 -18 -12 -6 -31 -12 -42 -12 -12 0 -21 -7 -21 -15 0 -8 9 -15 19 -15
11 0 23 -4 26 -10 4 -6 -5 -10 -19 -10 -14 0 -26 -4 -26 -10 0 -15 -80 -13
-81 3 0 6 -5 2 -11 -11 -13 -27 -32 -24 -36 6 -2 16 3 23 22 28 14 3 26 10 26
15 0 6 -7 6 -17 1 -10 -6 -38 -13 -62 -17 -38 -6 -43 -5 -38 9 4 9 -1 19 -11
25 -12 7 -5 11 33 16 28 4 60 8 72 10 12 2 27 -3 34 -11 18 -21 57 -18 64 7 9
28 -35 64 -50 40 -3 -5 -82 -10 -178 -10 l-172 1 -21 32 c-12 18 -33 58 -48
89 -14 31 -42 90 -61 131 -38 79 -41 96 -24 113 8 8 8 13 0 17 -6 4 -11 17
-11 29 0 13 3 17 8 11 10 -16 64 -12 72 6 31 61 42 112 46 210 2 36 4 67 4 70
1 3 1 84 0 180 -1 235 13 401 40 451 11 22 20 52 20 67 0 22 7 32 34 45 27 12
33 20 29 36 -5 18 -1 21 30 21 43 0 67 23 40 39 -10 6 -13 11 -8 11 6 0 12 11
13 25 2 34 28 72 52 78 14 4 20 14 20 34 0 22 2 25 10 13 9 -13 10 -13 11 0 1
8 1 18 0 23 0 4 5 7 13 7 13 0 34 39 41 76 1 11 8 18 14 16 6 -1 14 6 18 15 3
10 15 28 27 41 20 22 20 23 1 16 -20 -7 -20 -7 0 9 11 8 24 13 29 10 5 -4 6
-1 1 6 -4 7 1 20 11 30 11 9 30 34 44 54 24 36 27 37 65 31 43 -7 80 -27 88
-48 8 -20 38 -13 97 25 126 81 98 76 287 51 283 -36 376 -50 515 -78 73 -14
146 -28 161 -31 16 -3 34 -14 40 -24 13 -21 52 -25 61 -6 4 8 5 7 4 -3 -1 -8
2 -41 7 -73 5 -40 4 -62 -4 -70 -6 -6 -11 -19 -11 -29 0 -10 -4 -18 -10 -18
-5 0 -10 -9 -10 -19 0 -11 -4 -22 -9 -25 -5 -3 -16 -29 -25 -57 -10 -29 -24
-58 -32 -66 -8 -8 -14 -23 -14 -34 0 -10 -7 -19 -15 -19 -8 0 -15 -4 -15 -9 0
-5 24 -11 53 -15 55 -6 82 -4 93 7 4 4 23 7 43 8 l36 1 -40 13 c-38 13 -39 13
-10 14 39 2 63 16 41 24 -9 4 -13 13 -10 22 3 8 1 15 -5 15 -6 0 -11 9 -11 20
0 11 3 20 8 20 4 0 23 28 41 63 19 34 38 64 41 67 12 9 20 70 10 70 -6 0 -10
4 -10 10 0 15 32 -1 58 -29 13 -15 27 -26 30 -27 19 -2 60 -24 82 -44 14 -12
36 -30 50 -38 14 -9 31 -25 39 -35 12 -17 14 -17 32 -1 10 9 19 23 19 31 0 7
5 13 10 13 6 0 25 24 43 53 48 76 84 179 57 162 -5 -3 -10 2 -10 12 0 13 -2
15 -9 5 -6 -10 -10 -10 -20 1 -7 9 -21 13 -33 9 -14 -3 -19 -1 -14 6 5 8 0 12
-13 12 -12 0 -21 4 -21 10 0 5 -12 13 -27 16 -39 9 -94 44 -88 55 3 4 -3 14
-15 21 -11 7 -20 21 -20 30 0 10 -4 18 -8 18 -5 0 -14 11 -20 24 -10 22 -16
24 -49 19 -21 -3 -56 -13 -78 -23 -61 -28 -141 -34 -210 -16 -65 16 -376 71
-490 87 -38 5 -124 16 -190 24 -163 20 -186 25 -180 34 2 5 -9 52 -26 106 -29
90 -33 98 -66 112 -51 21 -58 8 -39 -69 29 -115 20 -138 -51 -138 -40 0 -42 2
-49 35 -8 45 0 110 20 163 15 39 15 43 -2 60 -9 10 -28 37 -42 59 -19 31 -34
44 -62 51 -26 7 -38 7 -38 -1 0 -5 -8 -3 -18 6 -10 10 -28 17 -40 17 -12 0
-22 5 -22 10 0 15 -71 12 -104 -5 -33 -17 -62 -19 -71 -5 -4 7 -13 6 -26 -1
-12 -6 -22 -9 -23 -7 -1 2 -7 14 -13 28 -9 18 -12 20 -12 8 -1 -23 -6 -23 -36
4 -13 11 -21 26 -18 31 4 6 0 8 -11 4 -10 -4 -15 -3 -11 3 3 5 1 15 -5 22 -6
7 -16 21 -23 31 -12 17 -13 17 -32 -1 -17 -15 -28 -17 -69 -10 -27 4 -54 12
-60 18 -5 5 -24 10 -41 10 -21 0 -26 -3 -16 -9 10 -6 4 -12 -21 -20 -18 -6
-57 -27 -86 -46 -35 -22 -54 -30 -57 -22 -39 127 -52 155 -81 185 -24 24 -41
32 -67 32 -29 0 -40 -6 -59 -32 -22 -32 -23 -38 -23 -273 -1 -132 2 -287 5
-343 3 -57 3 -105 0 -107 -3 -1 -22 -5 -43 -9 -35 -7 -37 -6 -38 21 0 28 0 28
-10 5 -5 -13 -7 -27 -5 -31 3 -4 -30 -17 -72 -30 -100 -30 -176 -55 -407 -136
-104 -37 -237 -82 -295 -102 -94 -32 -428 -163 -570 -224 -82 -35 -389 -191
-437 -222 l-43 -27 0 -109 0 -110 92 62 c89 60 234 147 245 147 3 0 42 18 86
39 124 59 170 79 291 126 61 24 125 49 141 56 40 16 200 73 429 153 104 36
200 65 215 65 14 -1 33 1 42 5 14 6 15 1 8 -45 -5 -29 -17 -72 -29 -95 -11
-24 -20 -48 -20 -54 0 -5 -4 -10 -9 -10 -4 0 -14 -20 -21 -44 -8 -28 -19 -46
-31 -49 -10 -3 -19 -12 -19 -21 0 -10 -9 -16 -22 -17 -13 0 -32 -2 -43 -5 -11
-2 -49 -7 -85 -10 -69 -7 -116 -23 -70 -24 34 0 11 -15 -60 -36 -30 -9 -83
-30 -116 -45 -34 -16 -65 -29 -68 -29 -11 0 -76 -45 -76 -53 0 -4 -9 -17 -19
-29 -11 -11 -30 -46 -42 -77 -28 -69 -36 -81 -61 -81 -16 0 -19 -5 -14 -27 8
-41 -22 -73 -68 -73 l-36 0 0 -50 c0 -38 -4 -50 -15 -50 -13 0 -38 -22 -82
-74 -8 -10 -9 -17 -3 -21 6 -3 10 -3 10 2 0 4 5 0 11 -9 7 -12 7 -24 0 -35 -6
-10 -11 -14 -11 -9 0 5 -7 3 -15 -4 -9 -7 -18 -10 -21 -8 -5 6 -12 131 -18
341 -3 111 -10 148 -20 116 -3 -8 -7 -90 -10 -184 -6 -180 -13 -235 -27 -235
-5 0 -11 11 -15 25 -3 14 -10 25 -15 25 -4 0 -11 16 -15 35 -7 37 -13 42 -32
23 -9 -9 -12 -9 -12 3 0 12 -2 12 -10 -1 -5 -8 -10 -27 -10 -42 0 -30 -24 -39
-34 -13 -7 20 -16 19 -46 -5 -23 -18 -24 -19 -3 -14 20 5 22 2 25 -37 3 -37 6
-44 24 -43 17 0 26 -14 49 -73 16 -41 34 -73 41 -73 8 0 14 4 14 9 0 15 39 0
44 -18 2 -9 8 -35 11 -58 8 -50 5 -51 -68 -22 -124 50 -234 117 -324 196 l-63
55 0 -70 c0 -68 1 -71 37 -102 49 -43 150 -106 253 -159 98 -49 113 -61 82
-61 -20 0 -21 -4 -17 -67 5 -83 -13 -374 -25 -388 -14 -18 -8 -125 7 -125 12
0 18 -13 14 -34 -3 -13 10 -46 17 -46 7 0 33 131 36 180 1 14 4 30 7 35 4 6
10 49 14 98 5 65 10 87 21 87 11 0 14 -22 14 -112 0 -169 11 -311 23 -299 8 8
21 304 18 426 0 11 6 29 13 40 7 11 16 31 19 45 3 14 16 35 27 48 12 12 18 27
15 32 -3 6 1 10 9 10 22 0 20 17 -1 24 -10 3 18 3 62 1 44 -3 160 -7 257 -11
l177 -7 22 -56 c43 -109 147 -241 190 -241 13 0 32 -9 43 -19 12 -10 46 -26
76 -34 30 -8 63 -17 73 -22 12 -5 17 -3 17 10 0 12 5 15 21 10 13 -5 19 -3 15
3 -3 5 4 12 15 15 14 4 19 2 16 -8 -4 -9 1 -11 14 -8 10 3 27 2 36 -2 10 -5
23 -7 29 -6 7 1 16 -36 24 -96 11 -92 42 -262 55 -309 6 -20 2 -22 -97 -29
-191 -13 -342 -76 -454 -190 -58 -58 -76 -85 -100 -146 -26 -68 -29 -84 -28
-194 0 -104 4 -130 27 -194 15 -41 38 -93 52 -117 39 -67 121 -161 173 -199
63 -46 184 -108 252 -129 l55 -17 23 -81 c33 -121 116 -277 184 -352 10 -11
18 -28 18 -38 0 -10 6 -18 13 -18 7 0 46 -33 87 -73 41 -40 84 -80 96 -88 11
-8 42 -32 67 -53 26 -22 57 -44 69 -50 12 -6 23 -17 26 -24 3 -9 -19 -11 -100
-6 -87 5 -106 9 -121 27 -15 18 -20 19 -28 6 -5 -7 -9 -17 -9 -21 0 -13 -78
-9 -83 5 -3 7 -6 5 -6 -5 -1 -12 -9 -18 -27 -18 -77 0 -364 -99 -404 -140 -3
-3 -23 -17 -45 -31 -64 -42 -180 -155 -228 -222 -127 -178 -193 -406 -204
-708 -5 -122 -2 -177 12 -260 51 -309 195 -524 433 -646 36 -18 73 -33 83 -33
29 0 24 -14 -39 -99 -121 -162 -166 -293 -166 -481 -1 -140 12 -196 72 -315
56 -114 141 -207 261 -288 110 -74 182 -96 337 -104 106 -5 134 -3 215 17 52
13 99 26 104 30 6 4 27 13 49 20 21 7 76 34 122 61 l84 48 24 -23 c19 -20 29
-23 57 -17 31 6 34 10 34 41 0 32 -3 35 -27 35 -36 -1 -35 5 7 35 32 23 46 50
27 50 -13 0 -39 52 -46 92 -9 51 -23 56 -55 18 l-27 -33 -14 32 c-12 29 -16
32 -43 27 -17 -3 -33 -8 -35 -11 -3 -3 0 -30 7 -60 7 -30 10 -58 7 -63 -8 -14
-165 -124 -180 -126 -8 -1 -20 -7 -27 -13 -26 -20 -56 -32 -132 -53 -315 -84
-642 116 -712 434 -35 159 -10 307 78 457 44 75 64 100 149 186 51 52 69 63
105 69 24 3 43 12 43 18 0 7 22 29 50 50 35 27 50 45 50 61 0 26 15 41 25 25
4 -6 21 0 43 15 20 14 46 25 58 25 12 0 33 11 47 24 28 26 66 50 107 66 14 5
32 14 40 19 19 13 137 57 173 67 18 4 38 1 53 -7 22 -11 30 -10 60 6 18 10 34
22 34 26 0 4 24 10 53 14 28 3 65 9 81 12 23 4 28 2 23 -10 -4 -10 0 -13 12
-10 10 2 22 -2 28 -9 10 -12 22 -87 28 -168 2 -19 3 -41 4 -47 1 -7 14 -13 31
-13 28 0 30 -2 30 -39 0 -30 4 -40 20 -44 10 -3 18 -2 17 2 -1 3 9 22 22 41
30 45 123 89 146 70 8 -7 15 -19 15 -26 0 -8 6 -11 15 -8 8 4 15 2 15 -4 0 -6
-6 -12 -12 -15 -10 -3 -10 -8 2 -21 13 -16 15 -17 20 -1 5 13 9 12 30 -11 l25
-27 -30 7 -30 6 28 -21 c15 -11 27 -26 27 -33 0 -7 9 -24 21 -37 l21 -24 -8
29 c-6 25 -5 28 7 17 8 -8 15 -32 16 -55 1 -22 4 -62 6 -87 5 -45 4 -48 -49
-103 -30 -31 -54 -59 -54 -62 0 -3 7 -12 15 -20 8 -9 15 -11 15 -5 0 6 6 11
14 11 17 0 90 -94 77 -98 -6 -2 -11 -10 -11 -18 0 -8 -7 -17 -15 -20 -8 -4
-15 -15 -15 -26 0 -15 5 -19 20 -15 10 3 20 1 22 -4 2 -5 18 -5 37 1 41 12 50
6 29 -17 -9 -10 -19 -33 -23 -50 -3 -18 -17 -41 -30 -51 -12 -10 -26 -33 -30
-51 -4 -18 -13 -35 -19 -37 -16 -6 -9 -49 10 -65 11 -9 12 -15 2 -26 -9 -11
-9 -16 2 -23 10 -6 14 -52 18 -181 2 -96 9 -185 15 -199 13 -31 10 -55 -11
-94 -27 -49 -45 -70 -72 -84 -53 -27 -76 -42 -90 -59 -19 -23 -86 -63 -106
-63 -8 0 -14 -3 -14 -8 0 -4 -18 -13 -41 -20 -30 -9 -45 -10 -55 -2 -13 12
-149 9 -161 -4 -3 -3 -15 -6 -25 -6 -11 0 -31 -14 -45 -30 -19 -24 -28 -28
-39 -19 -7 6 -18 8 -24 4 -10 -6 -15 13 -12 48 1 9 -3 17 -8 17 -6 0 -10 -5
-10 -11 0 -6 -16 -9 -42 -7 -57 4 -62 -18 -9 -39 40 -16 53 -37 29 -46 -7 -3
5 -4 27 -4 30 2 40 -2 40 -13 0 -11 -9 -14 -32 -12 -25 3 -32 0 -27 -11 6 -17
-37 -32 -47 -15 -4 6 -9 2 -13 -10 -6 -19 -32 -34 -61 -38 -5 0 -17 -3 -25 -7
-8 -3 -25 -8 -38 -10 -18 -4 -21 -3 -12 8 8 9 8 15 0 20 -5 3 -10 19 -10 35 0
15 -3 35 -6 44 -13 34 -23 13 -26 -50 l-3 -66 -42 -4 c-37 -3 -45 0 -59 22
-12 18 -19 22 -25 13 -6 -10 -13 -9 -33 4 -30 20 -66 22 -66 5 -1 -8 -6 -6
-14 4 -13 18 -37 25 -35 11 3 -21 -3 -29 -23 -30 -13 -1 -28 -9 -34 -18 -11
-15 -13 -14 -19 4 -3 12 -11 19 -16 16 -5 -4 -12 1 -15 9 -5 12 -11 9 -30 -13
-13 -16 -24 -34 -24 -41 0 -7 -6 -6 -16 4 -19 19 -28 20 -43 3 -6 -8 -29 -14
-52 -15 -62 -3 -148 -32 -142 -49 3 -7 1 -13 -4 -13 -6 0 -24 -13 -41 -30 -17
-16 -44 -32 -59 -36 -15 -4 -35 -12 -43 -18 -8 -7 -32 -21 -53 -31 -20 -11
-37 -22 -37 -25 0 -3 -18 -25 -39 -49 -22 -24 -44 -63 -51 -88 -7 -24 -22 -51
-34 -58 -12 -7 -75 -19 -141 -25 -219 -20 -487 -71 -686 -129 -122 -36 -148
-38 -155 -14 -3 10 -12 31 -20 46 -7 16 -14 36 -14 45 0 10 -9 34 -20 55 -11
20 -20 45 -20 56 0 10 -11 43 -25 73 -14 29 -25 63 -25 74 0 12 -9 32 -19 45
-10 14 -21 36 -24 49 -2 14 -5 -64 -6 -173 0 -108 3 -205 8 -215 5 -9 16 -41
26 -70 l17 -53 -26 -39 -26 -40 0 -917 c0 -852 1 -923 18 -994 23 -96 78 -173
142 -200 42 -18 292 -67 438 -86 95 -12 205 -17 362 -18 236 0 350 10 558 50
l123 24 82 -36 c174 -75 372 -131 612 -173 167 -30 528 -22 715 16 443 89 761
265 1115 619 39 38 88 79 108 90 20 10 39 26 42 34 4 11 0 9 -15 -4 -29 -26
-38 -10 -10 20 15 16 26 21 30 14 7 -11 60 -1 120 21 14 6 50 12 80 14 30 3
55 6 55 7 0 0 27 6 60 13 55 10 60 13 58 36 -1 14 -5 34 -8 45 -4 13 1 28 14
42 12 12 21 29 21 38 0 12 6 15 19 10 20 -6 61 35 61 61 0 8 9 14 19 14 11 0
32 17 48 38 32 43 44 53 55 46 5 -3 11 3 15 13 12 33 54 82 67 77 15 -6 36 37
36 71 0 15 6 25 14 25 7 0 27 13 42 28 16 16 42 36 57 46 16 10 33 30 38 46 6
16 20 31 32 34 22 5 57 55 57 80 0 7 10 12 22 12 18 -1 23 6 30 42 9 52 15 63
31 56 14 -5 51 62 42 76 -7 12 24 30 53 30 4 0 0 5 -8 10 -12 7 -8 12 18 21
25 9 30 14 20 21 -10 7 -8 12 10 27 12 11 22 24 22 29 0 6 23 33 50 61 28 28
50 57 50 64 1 28 17 40 39 28 17 -10 21 -9 21 4 0 8 5 15 10 15 6 0 20 11 32
25 12 14 30 25 41 25 26 0 97 72 97 98 0 14 6 22 16 22 20 0 75 61 67 73 -3 6
8 8 25 5 17 -2 29 -1 27 2 -3 4 4 15 15 25 11 10 20 23 20 29 0 6 12 22 25 35
14 13 25 34 25 47 0 13 4 24 9 24 5 0 12 17 16 37 4 21 11 40 16 43 5 3 12 30
16 60 5 30 12 54 16 52 4 -1 14 3 21 10 20 18 1 38 -35 38 -40 0 -37 26 6 51
31 18 33 22 20 36 -34 34 -15 50 69 55 54 4 55 22 4 38 -58 18 -66 27 -42 45
16 13 17 16 4 25 -12 7 -8 11 18 16 32 6 33 9 27 38 -3 17 -9 47 -11 67 l-6
35 84 35 c71 30 83 38 86 60 2 15 14 37 28 50 28 27 31 44 7 58 -10 6 -13 11
-6 11 16 0 155 -68 209 -102 49 -32 215 -124 264 -148 19 -10 60 -29 90 -44
88 -42 174 -89 207 -113 17 -13 35 -23 41 -23 18 0 104 -83 92 -90 -6 -4 -12
-19 -14 -33 -1 -15 -6 -30 -9 -34 -14 -13 -6 -22 24 -28 l31 -7 -4 -88 c-2
-61 1 -91 10 -99 15 -15 16 -51 0 -51 -7 0 -5 -7 4 -17 13 -14 17 -54 22 -183
3 -91 10 -184 16 -208 6 -24 8 -47 5 -51 -2 -5 3 -27 12 -49 9 -25 12 -48 7
-59 -4 -10 -9 -25 -9 -33 -1 -8 -3 -21 -4 -29 -3 -29 -190 8 -291 59 -77 38
-90 46 -131 82 -10 10 -22 18 -25 18 -6 0 -103 97 -144 146 -70 82 -145 216
-187 333 -10 28 -23 51 -29 51 -6 0 -32 -16 -57 -35 -25 -19 -55 -35 -66 -35
-11 0 -22 -4 -25 -8 -12 -19 119 -257 193 -352 111 -142 268 -278 390 -339
121 -61 208 -83 331 -83 104 -1 105 -1 106 -25 1 -13 10 -30 19 -37 11 -8 18
-28 19 -55 1 -23 7 -46 13 -49 6 -4 14 -24 18 -45 4 -20 11 -37 16 -37 5 0 9
-18 9 -40 0 -27 4 -40 13 -40 14 0 37 -40 37 -65 0 -8 5 -15 10 -15 6 0 18
-15 27 -34 23 -49 73 -59 73 -16 0 32 18 32 25 0 4 -17 13 -30 21 -30 8 0 17
-7 21 -16 3 -8 12 -13 19 -10 8 3 14 2 14 -3 0 -5 23 -12 52 -15 28 -4 62 -16
75 -26 13 -10 30 -17 38 -14 7 3 25 -2 39 -11 14 -9 30 -14 35 -11 14 9 80
-25 84 -43 5 -27 -23 -62 -44 -56 -25 8 -36 -20 -18 -42 13 -15 40 -15 289 -8
151 4 316 9 365 11 50 2 138 4 198 5 85 1 107 4 107 16 0 35 21 -6 60 -116 23
-66 50 -133 60 -149 28 -45 92 -77 210 -105 96 -23 139 -31 314 -56 32 -5 99
-9 149 -10 50 -1 94 -4 97 -6 15 -9 411 16 525 34 141 22 296 55 314 65 8 5
11 338 11 1181 0 1284 5 1185 -56 1185 -17 0 -25 7 -30 27 -7 27 -7 27 -15 4
-16 -42 -26 -12 -33 101 -4 62 -16 185 -26 273 -11 88 -23 192 -25 230 -6 75
-18 221 -36 425 -6 69 -13 152 -15 185 -2 33 -13 166 -24 295 -10 129 -21 280
-25 335 -3 55 -8 123 -10 150 -2 28 -9 120 -15 205 -6 85 -15 202 -20 260 -5
58 -12 148 -15 200 -3 52 -8 118 -10 145 -7 70 -12 135 -25 325 -6 91 -16 217
-21 280 -20 233 -21 217 23 235 40 16 147 113 166 151 100 194 11 486 -224
734 l-52 55 -7 130 c-3 72 -8 153 -10 180 -3 28 -14 181 -25 340 -11 160 -27
378 -35 485 -8 107 -19 281 -25 385 -5 105 -15 269 -20 365 -15 271 -22 580
-12 580 5 0 14 -10 20 -22 6 -13 11 -17 11 -10 1 6 8 12 16 12 11 0 14 7 11
23 -3 12 -8 52 -11 90 -6 65 -21 88 -32 46 -5 -19 -7 -18 -23 8 -17 28 -32
115 -46 258 -3 39 -8 77 -9 85 -2 9 -9 60 -16 115 l-14 100 -3 -75 c-2 -41 -7
-79 -13 -86 -6 -8 -6 -13 0 -16 5 -1 11 -34 12 -73 2 -66 1 -70 -20 -73 -22
-3 -22 -1 -21 75 2 80 -4 108 -27 131 -11 11 -13 11 -13 0 -1 -22 -39 65 -40
90 0 28 -24 27 -110 -5 -23 -9 -67 -11 -77 -4 -6 3 -14 19 -20 35 -16 52 -111
84 -164 56 -10 -6 -38 -34 -61 -63 -34 -43 -40 -47 -34 -24 5 20 3 27 -8 27
-8 0 -16 -6 -19 -14 -6 -16 -34 -16 -45 0 -7 9 -71 34 -89 34 -5 0 -29 18 -52
40 -24 23 -52 40 -65 40 -37 0 -40 27 -5 34 53 10 21 27 -46 24 -36 -1 -67 1
-71 5 -4 4 11 8 34 8 23 1 47 3 52 4 6 1 26 3 45 4 40 1 46 17 12 32 -20 9
-22 16 -20 69 1 33 -2 60 -8 60 -5 0 -9 16 -9 35 0 20 -6 46 -14 58 -8 12 -17
40 -20 62 -4 22 -10 54 -15 70 -5 17 -15 61 -21 99 -12 72 -33 126 -50 126 -6
0 -10 7 -10 15 0 8 -7 15 -15 15 -8 0 -15 7 -15 15 0 9 -7 29 -16 46 -8 16
-16 47 -18 67 -4 42 -14 70 -32 92 -7 8 -14 26 -16 39 -1 14 -8 26 -15 28 -12
4 -12 -14 0 -34 5 -8 3 -13 -3 -13 -15 0 -2 -42 16 -53 18 -10 18 -27 0 -27
-9 0 -12 -8 -8 -25 2 -14 8 -23 12 -20 4 2 6 -22 6 -55 0 -32 -3 -57 -6 -55
-3 2 -4 -12 -2 -32 3 -23 0 -38 -9 -44 -11 -7 -11 -9 2 -9 13 0 18 -15 23 -64
3 -36 3 -84 0 -107 -6 -35 -8 -39 -17 -23 -6 11 -19 62 -28 114 -10 52 -22
113 -28 135 -5 22 -14 58 -20 80 -5 21 -18 46 -29 55 -11 9 -32 61 -51 125
-18 61 -54 155 -81 210 -46 96 -70 130 -293 413 -64 81 -215 301 -262 382 -32
54 -56 94 -112 183 -28 45 -73 125 -98 177 -26 52 -51 103 -57 113 -5 11 -7
22 -3 25 9 10 53 -50 59 -80 6 -32 26 -38 26 -9 0 10 7 21 14 24 12 5 9 13
-13 36 -16 17 -36 46 -45 66 -10 20 -44 68 -77 108 -77 95 -73 90 -98 107 -13
8 -36 33 -52 54 -16 22 -29 37 -29 33 0 -4 -21 17 -47 46 -151 167 -163 186
-173 261 -6 42 -3 55 16 83 12 19 26 48 29 65 6 24 9 27 17 17 7 -11 8 -9 4 5
-5 13 2 28 20 47 14 15 24 32 20 37 -3 5 3 17 13 26 10 9 33 49 51 89 19 40
40 83 49 96 8 13 16 30 17 38 2 8 14 31 28 52 14 20 26 45 26 54 0 9 5 17 11
17 6 0 9 9 6 20 -3 11 -1 23 5 26 5 3 18 25 29 48 11 22 26 52 34 66 21 37 75
166 75 181 0 5 -27 9 -59 9 -52 0 -62 -3 -80 -26 -12 -15 -21 -37 -21 -49 0
-12 -6 -28 -13 -34 -8 -6 -22 -37 -32 -70 -11 -32 -24 -57 -30 -55 -6 3 -12
-7 -13 -22 -3 -33 -11 -46 -23 -38 -6 3 -13 -3 -16 -15 -3 -12 -8 -21 -12 -21
-4 0 -15 -17 -26 -37 -10 -21 -28 -51 -40 -68 -11 -16 -27 -43 -35 -60 -8 -16
-26 -48 -40 -70 -13 -22 -36 -62 -51 -90 -51 -96 -57 -106 -85 -138 -33 -36
-245 -331 -261 -362 -13 -25 -57 -178 -88 -302 -28 -113 -30 -116 -57 -102
-18 10 -20 18 -16 79 8 109 5 109 -90 -4 -44 -53 -113 -168 -108 -182 3 -8 0
-11 -10 -7 -14 5 -19 -30 -14 -113 1 -17 -6 -38 -14 -47 -9 -9 -16 -32 -16
-51 0 -20 -3 -36 -7 -36 -5 0 -17 -18 -27 -40 -11 -22 -22 -40 -26 -40 -9 0
-34 -68 -49 -134 -12 -48 -3 -102 21 -133 5 -7 5 -14 -2 -18 -15 -9 -12 -35 5
-35 8 0 15 -6 15 -14 0 -7 -7 -19 -15 -26 -8 -7 -15 -27 -15 -45 0 -19 -5 -35
-11 -37 -6 -2 -15 -28 -20 -58 -5 -29 -13 -56 -18 -59 -5 -3 -12 -24 -15 -46
-4 -23 -3 -32 2 -22 4 10 12 19 17 19 16 1 41 22 48 41 4 11 3 16 -3 12 -6 -3
-10 1 -10 10 0 9 5 13 10 10 12 -7 35 42 45 98 4 21 13 37 21 37 8 0 14 3 14
8 1 46 25 141 41 158 11 11 17 27 14 35 -3 8 8 35 24 60 20 28 28 51 25 64 -4
13 -3 16 3 10 12 -12 42 -123 53 -190 4 -27 14 -95 23 -150 41 -257 50 -348
51 -520 1 -154 -2 -186 -17 -219 -10 -21 -27 -40 -37 -43 -11 -3 -17 -10 -13
-17 3 -6 -3 -3 -14 7 -21 18 -48 24 -38 7 4 -6 -6 -10 -23 -10 -16 0 -36 -8
-45 -18 -16 -18 -61 -208 -52 -222 3 -5 1 -11 -4 -14 -17 -11 -34 -148 -28
-225 l6 -75 55 -54 c37 -35 59 -67 66 -91 12 -47 11 -122 -4 -140 -7 -10 -6
-16 4 -25 21 -16 21 -16 22 -269 l1 -229 -69 -101 c-78 -114 -130 -181 -121
-154 4 10 3 25 -2 35 -49 97 -71 295 -38 345 13 21 16 42 12 108 -3 46 -9 86
-13 89 -4 3 -8 16 -10 30 -1 13 -15 37 -29 53 -23 24 -26 31 -15 47 16 27 15
57 -3 64 -8 3 -15 13 -15 22 0 9 -6 28 -13 42 -8 15 -25 61 -38 102 -19 55
-31 78 -49 87 -16 8 -26 22 -27 38 -1 15 -6 32 -11 38 -23 29 -58 155 -68 240
-5 50 21 192 37 203 5 3 9 16 9 29 0 13 5 27 10 30 6 3 10 17 10 30 0 12 7 25
15 29 18 7 20 32 3 40 -9 3 -8 8 6 16 24 16 66 112 66 154 0 22 6 36 16 40 9
3 14 13 10 21 -3 9 3 19 14 25 14 7 20 21 20 44 0 19 9 45 21 61 18 22 20 29
8 36 -8 5 -9 9 -4 9 6 0 16 9 23 20 19 31 -11 37 -41 8 -22 -20 -34 -53 -40
-109 -1 -9 -7 -15 -14 -12 -7 3 -13 -2 -13 -11 0 -9 -4 -16 -10 -16 -5 0 -14
-17 -20 -39 -5 -21 -21 -50 -35 -65 -14 -16 -25 -39 -25 -55 0 -16 -6 -31 -14
-34 -8 -3 -12 -14 -10 -25 3 -10 -2 -24 -10 -31 -9 -8 -16 -20 -16 -27 0 -8
-4 -14 -8 -14 -5 0 -15 -18 -22 -40 -7 -22 -19 -45 -27 -51 -7 -6 -13 -19 -13
-28 0 -9 -9 -22 -19 -28 -17 -11 -21 -9 -30 17 -6 19 -19 32 -35 36 -14 3 -26
11 -26 18 0 6 -5 4 -10 -4 -22 -34 -9 23 29 128 216 601 273 811 331 1212 13
86 22 113 47 138 29 29 63 80 63 93 0 8 -18 -6 -39 -31 -21 -25 -41 -43 -44
-40 -2 3 1 88 8 189 12 181 13 185 39 203 14 11 26 24 26 30 0 6 11 21 24 33
13 12 25 27 27 34 6 18 71 -45 92 -88 10 -19 17 -47 17 -64 0 -26 2 -28 16
-16 9 7 30 33 47 58 17 25 39 55 49 66 27 30 51 61 68 85 8 12 20 28 25 34 66
73 101 154 126 290 8 40 17 66 25 66 7 0 24 -15 39 -32 l26 -33 25 29 c18 21
24 36 20 55 -3 14 -3 20 0 14 11 -24 24 -12 82 75 137 203 168 262 202 382 17
63 45 152 61 198 16 46 29 85 29 88 0 2 -40 4 -88 4 l-88 0 -28 -60 c-16 -33
-32 -60 -37 -60 -4 0 -20 -25 -34 -56 -15 -32 -31 -62 -36 -68 -5 -6 -15 -19
-22 -28 -7 -9 -21 -18 -31 -20 -17 -3 -20 4 -21 57 -1 33 4 74 11 90 7 17 16
46 19 65 4 19 13 45 21 58 14 22 14 22 -39 22 -48 0 -54 -3 -70 -29 -9 -16
-17 -36 -17 -44 0 -26 -30 -47 -66 -47 -19 0 -34 5 -34 10 0 6 -21 33 -46 60
l-47 50 -103 0 c-57 0 -104 -2 -104 -4 0 -3 19 -24 43 -48 78 -81 128 -143
193 -239 49 -74 64 -104 64 -132 0 -20 -5 -39 -12 -43 -13 -8 -65 50 -74 83
-3 12 -12 24 -20 27 -8 3 -14 12 -14 20 0 8 -3 16 -7 18 -13 5 -89 101 -96
121 -3 9 -11 17 -18 17 -6 0 -8 7 -5 17 4 10 4 15 1 11 -4 -3 -23 12 -43 35
-20 23 -43 46 -50 50 -6 4 -19 21 -27 37 l-16 30 -144 0 c-147 0 -155 -2 -135
-38 21 -38 50 -107 50 -118 0 -7 9 -29 21 -48 15 -27 17 -36 7 -36 -9 -1 -7
-5 5 -14 10 -8 29 -53 43 -102 35 -124 35 -124 45 -124 4 0 11 -17 15 -37 4
-21 15 -55 25 -75 11 -21 19 -46 19 -56 0 -10 3 -22 7 -25 3 -4 14 -30 24 -58
36 -101 21 -445 -18 -432 -6 2 -21 -5 -32 -16 -12 -12 -25 -21 -31 -21 -5 0
-10 -8 -11 -17 -2 -41 -19 39 -34 162 -34 274 -127 649 -242 983 l-26 72 -88
0 c-49 0 -89 -4 -89 -9z m594 -162 c29 -15 54 -37 72 -66 15 -24 33 -47 39
-51 6 -4 41 -46 78 -94 72 -96 127 -201 127 -243 0 -33 -42 -110 -83 -151
l-31 -31 -38 39 c-21 22 -38 44 -38 49 0 5 -9 18 -20 29 -11 11 -20 28 -20 39
0 10 -7 38 -16 62 -9 24 -18 62 -20 84 -2 21 -11 43 -19 48 -9 4 -13 12 -11
16 3 4 -1 29 -9 56 -8 26 -16 67 -17 91 -1 25 -6 42 -12 41 -6 -1 -11 8 -10
20 0 12 -3 20 -7 18 -4 -3 -9 11 -11 30 -2 19 -3 35 -1 35 1 0 22 -10 47 -21z
m750 -984 c3 -8 12 -15 20 -15 12 0 51 -39 96 -96 34 -43 39 -85 33 -244 -5
-123 -2 -172 11 -237 18 -90 59 -188 81 -197 8 -3 15 -12 15 -19 0 -20 30 -77
40 -77 18 0 14 36 -7 80 -12 26 -27 68 -33 94 -17 79 -24 249 -12 313 7 32 12
81 13 110 2 60 11 60 54 1 42 -59 64 -99 169 -303 51 -99 113 -212 138 -250
25 -39 67 -107 94 -153 109 -184 209 -328 342 -495 168 -211 188 -239 227
-316 36 -73 76 -185 95 -269 8 -34 7 -47 -6 -66 -12 -20 -13 -32 -5 -63 16
-59 21 -137 25 -385 3 -124 9 -259 16 -300 10 -67 10 -76 -9 -113 -11 -22 -20
-32 -21 -22 0 20 -11 22 -28 5 -9 -9 -15 -9 -24 0 -7 7 -20 12 -30 12 -10 0
-18 5 -18 10 0 20 -38 10 -43 -11 -5 -20 -32 -23 -32 -3 -1 21 -18 34 -43 32
-47 -3 -95 54 -57 68 12 5 12 9 -2 30 -8 13 -21 24 -28 24 -8 0 -15 27 -19 83
-4 45 -14 123 -22 172 -8 50 -16 109 -19 132 -7 61 -40 192 -59 237 -20 49
-45 189 -56 316 -5 52 -13 114 -19 137 -6 24 -10 46 -9 50 2 14 -43 103 -52
103 -6 0 -10 9 -10 20 0 19 -27 40 -51 40 -8 0 -5 -7 6 -20 10 -11 15 -20 12
-20 -4 0 -2 -12 4 -27 11 -28 23 -93 36 -188 24 -175 -22 -987 -58 -1031 -9
-11 -5 -16 17 -25 27 -10 27 -12 9 -19 -18 -7 -19 -8 -2 -15 21 -9 22 -38 2
-55 -8 -7 -15 -25 -15 -40 0 -15 -7 -33 -15 -40 -8 -7 -15 -21 -15 -31 0 -12
-9 -19 -27 -21 -20 -2 -28 -8 -27 -20 1 -10 -1 -18 -5 -19 -61 -8 -151 -33
-151 -41 0 -5 -8 -8 -17 -9 -13 0 -14 -2 -4 -6 11 -5 11 -7 0 -15 -9 -6 81 -8
251 -5 309 6 321 -8 19 -22 -111 -5 -203 -11 -205 -13 -2 -3 98 -2 222 0 l225
5 -6 -36 c-6 -29 -4 -36 12 -39 10 -3 -3 -8 -29 -12 -41 -7 -48 -12 -48 -30 0
-19 -8 -24 -47 -33 l-48 -10 44 -2 c33 -1 50 -7 67 -26 23 -25 22 -29 -7 -26
-9 1 -22 -5 -29 -14 -8 -9 -8 -15 -2 -15 10 0 10 -32 3 -105 -1 -5 -5 -4 -10
4 -7 11 -15 11 -41 3 -39 -14 -51 -8 -110 54 -25 26 -39 44 -32 40 6 -4 12 -2
12 4 0 7 -7 10 -15 6 -8 -3 -38 8 -65 24 -28 17 -55 30 -60 30 -4 0 -10 4 -12
10 -1 5 -54 12 -115 16 l-113 7 0 30 c0 17 6 38 14 46 7 9 17 37 20 64 7 43 5
47 -13 47 -12 0 -21 5 -21 10 0 6 -4 10 -10 10 -5 0 -10 -10 -10 -22 0 -13 -3
-18 -8 -12 -8 12 -66 25 -126 27 -22 1 -41 8 -44 15 -2 7 -15 26 -28 41 -13
16 -24 36 -24 44 0 8 -7 30 -15 50 -8 19 -12 37 -9 40 3 3 -3 12 -15 19 -21
13 -29 58 -10 58 6 0 7 5 2 13 -4 6 -6 20 -5 30 2 9 -1 17 -7 17 -5 0 -17 25
-26 55 -15 52 -14 58 4 115 19 59 42 94 58 88 12 -5 25 74 18 112 -4 19 -9 53
-11 75 -3 22 -9 49 -13 60 -15 36 -102 300 -103 313 -1 6 -12 12 -24 12 -13 0
-26 5 -29 10 -4 6 -15 8 -25 5 -30 -9 -100 45 -116 91 -15 43 -53 189 -78 299
-41 187 -26 539 39 860 9 44 20 103 24 130 11 62 99 413 111 440 5 11 15 40
21 65 7 25 16 49 21 55 4 5 8 19 8 32 0 16 6 23 20 23 13 0 20 7 20 20 0 23
15 27 24 5z m-1129 -2625 c8 -16 15 -34 15 -40 0 -7 6 -26 14 -43 8 -18 29
-77 46 -132 17 -55 34 -109 39 -120 5 -11 21 -59 37 -107 22 -73 26 -99 21
-153 -3 -35 -15 -83 -25 -106 -15 -31 -17 -50 -11 -77 4 -20 6 -39 3 -43 -2
-4 3 -23 11 -43 8 -19 15 -46 15 -58 0 -13 12 -33 30 -48 17 -14 32 -34 34
-45 2 -11 7 -27 11 -36 5 -13 -2 -18 -32 -22 -47 -8 -308 -9 -315 -1 -5 5 1
28 46 170 l13 42 -27 -5 c-21 -3 -29 1 -33 17 -3 13 -13 20 -30 20 -67 0 -126
54 -152 137 -9 32 -32 101 -50 153 -34 97 -51 226 -54 407 l-1 73 68 20 c76
23 268 68 294 69 10 1 24 -12 33 -29z m-720 -35 c4 -22 24 -190 29 -247 2 -20
6 -41 10 -46 3 -5 1 -25 -5 -45 -11 -42 -30 -47 -78 -19 -30 16 -39 47 -14 47
6 0 15 3 19 8 4 4 0 7 -9 7 -9 0 -17 5 -17 10 0 6 -11 15 -25 20 -18 7 -25 17
-26 37 -4 79 2 122 20 163 11 25 21 55 21 67 0 12 10 29 22 38 21 14 24 14 36
-2 7 -10 15 -27 17 -38z m1492 -119 c40 -1 77 -6 82 -11 5 -6 23 -89 41 -185
32 -178 60 -305 86 -395 8 -27 17 -72 20 -100 5 -44 4 -48 -9 -32 -8 9 -24 17
-35 17 -12 0 -23 8 -27 20 -7 21 -21 27 -27 10 -1 -6 -3 24 -3 65 0 84 -2 87
-90 129 -76 37 -115 36 -159 -5 -21 -20 -35 -18 -19 3 12 16 15 256 3 279 -7
12 -4 22 10 34 20 18 20 18 0 52 -24 41 -25 53 -5 99 12 30 18 34 37 28 13 -4
56 -8 95 -8z m275 -33 c10 -28 13 -49 8 -51 -14 -5 -12 -29 3 -35 9 -4 8 -8
-3 -16 -12 -8 -9 -12 13 -20 22 -9 27 -17 27 -43 0 -45 23 -147 53 -238 14
-41 28 -88 32 -105 4 -16 9 -39 12 -50 3 -11 8 -39 10 -63 4 -38 2 -44 -16
-49 -11 -3 -18 -9 -16 -14 3 -4 -3 -7 -13 -6 -15 1 -26 30 -61 166 -36 141
-67 276 -88 381 -2 14 -11 54 -19 88 -14 59 -14 65 2 83 26 29 38 23 56 -28z
m2682 -370 c7 -37 14 -53 25 -53 10 0 12 -3 5 -8 -5 -4 -9 -29 -7 -57 3 -74 3
-129 -3 -134 -12 -12 -45 44 -51 86 -3 27 -13 56 -21 66 -16 18 -35 134 -25
150 3 4 19 7 36 5 30 -3 33 -6 41 -55z m-7629 -388 l0 -215 -22 0 c-13 0 -23
-4 -23 -10 0 -5 6 -10 14 -10 19 0 28 -40 32 -148 3 -81 1 -95 -16 -109 -17
-15 -18 -19 -4 -46 9 -16 13 -31 11 -34 -3 -3 -16 18 -30 46 -13 28 -18 46
-11 40 8 -6 14 -10 14 -8 0 2 2 39 4 82 3 46 0 77 -6 77 -5 0 -8 -12 -6 -27 2
-15 -2 -28 -11 -31 -10 -3 -12 7 -11 44 4 70 2 74 -17 67 -16 -6 -16 -5 -4 10
8 10 11 20 8 23 -3 3 -76 9 -163 13 l-159 8 113 1 c84 2 119 6 137 18 13 9 29
13 35 9 8 -5 9 9 4 45 -6 43 -4 53 12 65 16 12 16 14 3 15 -12 0 -15 8 -12 33
3 17 8 41 13 52 4 11 16 52 24 90 20 86 46 139 61 124 6 -6 10 -91 10 -224z
m5576 44 c23 -11 53 -31 66 -44 l25 -22 -40 -7 c-22 -3 -48 -3 -56 0 -12 4
-16 0 -16 -15 0 -12 -4 -21 -10 -21 -5 0 -10 7 -10 16 0 13 -7 15 -30 11 -23
-5 -32 -2 -40 13 -6 11 -8 20 -4 20 3 0 2 6 -3 13 -5 6 -10 25 -12 41 l-3 29
46 -6 c25 -4 65 -16 87 -28z m-4829 -141 c38 -29 79 -68 90 -86 15 -24 26 -32
39 -29 11 3 16 1 13 -4 -3 -6 11 -30 31 -55 40 -48 89 -115 130 -176 14 -22
22 -45 19 -55 -5 -15 -4 -15 4 -4 9 12 13 9 24 -15 7 -16 19 -35 26 -42 7 -8
19 -28 28 -45 l15 -32 -21 24 c-11 13 -20 18 -20 12 0 -7 -5 -9 -12 -5 -7 4
-8 3 -4 -4 4 -7 0 -12 -11 -13 -10 0 -3 -5 15 -10 34 -10 44 -29 14 -29 -10 0
-23 -5 -30 -12 -9 -9 -12 -9 -12 3 0 12 -2 12 -10 -1 -8 -13 -11 -13 -19 -1
-7 11 -10 10 -13 -5 -3 -16 -10 -13 -45 23 -22 23 -43 39 -47 36 -3 -4 -13 2
-21 13 -8 10 -14 15 -14 9 0 -17 27 -47 37 -41 5 3 15 -1 21 -8 10 -12 8 -14
-13 -12 -30 4 -56 23 -56 42 0 8 -4 14 -9 14 -27 0 -158 239 -199 365 -22 65
-39 195 -27 195 5 0 39 -24 77 -52z m3470 -73 c-3 -18 0 -25 12 -25 24 0 82
-41 99 -70 13 -21 13 -31 2 -63 -7 -21 -20 -46 -27 -55 -8 -9 -21 -33 -28 -52
-8 -19 -17 -37 -21 -40 -3 -3 -16 -23 -28 -45 -21 -38 -56 -91 -84 -125 -42
-52 -48 -71 -42 -125 5 -39 3 -59 -7 -74 -20 -28 -42 -12 -36 28 6 38 -4 40
-26 6 -9 -14 -21 -23 -26 -20 -4 3 -10 0 -12 -6 -3 -8 -17 -3 -41 12 -37 24
-55 49 -35 49 7 0 7 4 -1 14 -8 10 -9 16 -1 21 6 3 8 11 5 16 -4 5 -2 9 3 9 5
0 14 17 21 38 7 20 15 44 18 52 3 8 -15 -10 -41 -40 -25 -30 -49 -65 -52 -78
-13 -49 -80 -1 -87 63 -2 17 -9 40 -15 52 -15 27 -17 63 -8 149 7 61 5 72 -8
77 -12 5 -28 -10 -59 -53 -41 -57 -57 -71 -57 -49 0 12 72 186 100 241 10 20
22 52 25 72 8 42 5 42 276 44 l186 2 -5 -25z m-2794 -37 c56 -1 102 -5 102
-10 0 -4 -36 -8 -80 -8 -77 0 -80 -1 -80 -23 0 -12 -9 -30 -20 -40 -18 -15
-25 -36 -21 -60 1 -4 -6 -10 -14 -13 -8 -4 -15 -16 -15 -27 0 -21 -1 -21 -17
3 -12 17 -13 25 -5 28 7 2 10 8 7 12 -3 5 -12 7 -19 4 -7 -3 -19 2 -26 11 -7
8 -9 15 -5 15 3 0 -7 14 -24 30 -38 39 -37 68 4 75 68 11 81 12 95 9 9 -2 62
-5 118 -6z m4402 -164 c0 -13 0 -27 0 -31 0 -5 -5 -8 -12 -8 -6 0 -13 -6 -15
-12 -3 -7 2 -13 11 -13 21 0 21 -36 0 -44 -13 -5 -14 -9 -4 -21 19 -23 -18
-168 -47 -179 -9 -4 -13 -13 -9 -22 4 -10 -5 -36 -19 -60 -22 -37 -31 -44 -56
-44 -23 0 -30 -4 -25 -15 4 -12 -5 -14 -54 -13 -53 1 -59 4 -59 22 0 12 -2 40
-5 64 -4 40 -3 42 19 36 26 -6 43 12 26 29 -8 8 -14 8 -23 -1 -19 -19 -30 -14
-18 7 5 11 19 23 30 26 11 3 20 13 20 21 0 20 -27 29 -45 14 -12 -10 -15 -10
-15 3 0 8 11 18 25 21 30 8 32 27 4 44 l-20 13 23 19 c22 19 22 21 5 34 -15
12 -15 15 -2 26 13 11 13 16 -2 41 -12 21 -14 32 -6 40 6 6 57 13 114 16 57 3
105 6 107 8 2 1 14 3 27 3 20 0 25 -6 25 -24z m181 -204 c6 0 9 -10 7 -22 -4
-26 29 -38 44 -16 7 10 11 10 15 1 2 -7 13 -13 24 -13 22 0 26 -25 4 -34 -31
-11 -16 -29 20 -23 19 3 35 2 35 -2 0 -14 -24 -31 -43 -31 -16 0 -17 -3 -7
-15 10 -12 9 -20 -4 -40 -16 -24 -21 -25 -120 -25 -100 0 -104 1 -99 20 3 11
14 27 25 34 11 8 15 17 9 20 -12 8 25 149 40 155 6 1 15 9 22 16 10 11 13 9
15 -6 2 -10 8 -19 13 -19z m1718 23 c3 -66 9 -108 17 -106 5 1 10 -20 11 -45
2 -37 0 -42 -7 -24 -5 12 -11 22 -14 22 -4 0 1 -56 11 -110 3 -19 5 -42 4 -52
-1 -9 3 -19 9 -23 6 -3 7 -11 4 -17 -4 -6 2 -6 15 1 11 7 21 16 21 21 0 6 11
10 25 10 17 0 26 -7 30 -22 6 -32 32 -400 45 -648 17 -330 47 -773 55 -825 2
-16 7 -72 9 -124 l5 -94 -21 19 c-12 11 -34 29 -48 42 -14 12 -52 42 -84 65
-33 23 -68 50 -78 60 -11 10 -49 33 -84 52 -36 18 -60 35 -53 37 9 3 6 11 -9
26 -12 12 -17 22 -12 22 24 0 7 18 -20 22 -16 3 -30 1 -30 -4 0 -5 -10 -6 -22
-3 -18 5 -20 4 -8 -4 8 -6 23 -8 33 -5 19 6 24 -12 5 -19 -8 -4 -7 -6 3 -6 9
-1 23 -9 30 -18 12 -16 12 -17 -1 -7 -8 6 -51 23 -95 39 -44 15 -87 30 -95 33
-8 3 -22 4 -32 3 -9 -1 -19 3 -23 9 -3 5 -23 11 -43 11 -22 1 -29 3 -17 6 43
11 56 43 16 43 -12 0 -18 10 -19 37 -4 59 -20 62 -19 4 2 -46 4 -51 25 -51 12
0 22 -5 22 -11 0 -11 -38 -3 -53 11 -5 4 -9 28 -10 54 -2 33 -6 46 -17 46 -10
0 -11 3 -4 8 6 4 13 25 16 47 4 31 1 47 -14 65 -16 20 -21 21 -28 9 -8 -12
-12 -11 -27 4 -16 16 -16 17 7 19 14 0 31 1 38 1 6 -1 12 6 12 13 0 10 -8 13
-25 10 -60 -11 -80 -26 -55 -41 6 -3 10 -11 10 -17 0 -5 -9 0 -20 13 -15 19
-16 26 -6 34 7 6 11 15 9 20 -1 6 11 18 28 27 17 10 27 22 24 28 -10 16 5 50
21 50 8 0 14 7 14 15 0 8 -4 15 -10 15 -5 0 -10 18 -10 40 0 33 -3 40 -20 40
-17 0 -20 -7 -20 -45 0 -25 -4 -45 -10 -45 -6 0 -10 30 -10 71 l0 72 50 -5
c46 -5 51 -3 56 18 6 24 -1 44 -17 44 -5 0 -9 -7 -9 -15 0 -19 -2 -19 -45 2
-43 20 -44 27 -5 43 16 7 27 16 24 21 -3 5 2 12 10 15 21 8 20 34 -1 50 -11 8
-13 13 -5 14 7 0 12 15 12 40 0 25 -5 40 -12 40 -24 0 -58 47 -58 79 0 38 -9
39 -49 5 -17 -14 -31 -21 -31 -15 0 15 -137 15 -146 0 -4 -8 -9 -7 -15 2 -6
10 -9 7 -9 -10 0 -16 -3 -22 -10 -15 -15 15 -26 189 -12 180 8 -4 12 0 12 10
0 15 3 15 20 -4 26 -28 44 -28 69 -1 11 12 25 18 31 14 6 -4 18 -4 27 -1 12 5
13 9 4 20 -19 23 20 29 60 9 48 -24 88 -25 102 -2 14 23 27 25 27 3 0 -8 5
-12 11 -9 6 4 8 13 5 20 -3 9 7 15 30 20 20 3 32 10 28 16 -6 10 -120 8 -316
-7 -50 -4 -88 -3 -88 2 0 5 20 30 45 57 33 35 52 47 73 47 75 0 587 32 592 37
3 3 -47 2 -110 -1 -63 -3 -191 -8 -285 -11 -93 -3 -178 -7 -187 -9 -22 -5 -23
7 -3 24 10 9 15 9 15 1 0 -6 9 -11 21 -11 12 0 18 4 13 11 -7 12 13 29 35 29
7 0 11 -6 8 -15 -7 -16 8 -29 23 -20 7 4 7 12 0 24 -8 16 -4 19 38 25 26 3 67
17 91 31 51 29 52 30 45 10 -4 -9 0 -15 10 -15 9 0 16 8 16 19 0 26 107 61
191 62 35 0 73 4 84 9 14 7 -1 9 -50 9 -38 0 -74 0 -79 0 -16 2 57 51 75 51 9
0 20 10 23 23 6 21 7 21 20 5 21 -28 39 -23 31 9 -5 22 0 32 37 64 46 41 76
49 77 22z m-4854 -20 c28 -10 52 -21 53 -26 2 -4 8 -5 12 -2 12 8 26 -22 35
-71 l6 -42 -53 -7 c-29 -4 -60 -11 -70 -16 -11 -6 -18 -4 -22 6 -3 8 -16 15
-28 16 -13 0 -17 3 -9 6 9 4 -4 23 -40 60 l-54 54 24 20 c29 24 80 25 146 2z
m-3801 -64 c-3 -5 9 -6 26 -3 22 5 30 3 30 -8 0 -8 10 -24 23 -36 28 -26 34
-83 12 -106 -15 -15 -14 -16 12 -16 27 -1 27 -1 9 -15 -23 -17 -56 -20 -56 -5
0 6 -7 10 -16 10 -8 0 -12 -4 -9 -10 9 -15 -12 -12 -51 6 -81 38 -187 214
-129 214 8 0 15 4 15 9 0 5 18 7 40 4 29 -4 40 -2 40 8 0 7 13 0 30 -16 16
-15 27 -32 24 -36z m7716 15 c0 -8 -12 -10 -40 -7 -28 4 -41 2 -45 -8 -7 -19
8 -72 22 -76 13 -5 27 28 16 36 -16 12 -11 41 7 41 11 0 20 -10 23 -27 5 -22
0 -34 -24 -55 -32 -30 -26 -30 -255 -33 -60 -1 -115 -5 -122 -9 -7 -4 -12 -1
-12 8 0 9 9 16 20 16 10 0 23 8 29 18 9 16 11 16 25 -3 12 -16 18 -18 33 -9
10 7 17 21 16 33 -3 27 13 28 20 1 5 -20 31 -27 41 -11 3 4 1 22 -3 39 -12 40
2 52 61 52 47 0 64 -14 32 -27 -15 -5 -15 -7 0 -15 9 -5 16 -20 16 -33 0 -16
6 -25 15 -25 11 0 15 12 15 49 0 55 4 58 68 58 27 0 42 -5 42 -13z m-6965
-137 c15 -28 41 -79 57 -112 17 -33 35 -66 42 -74 6 -8 12 -45 12 -82 1 -37 5
-76 9 -86 7 -17 8 -17 15 2 8 18 9 18 9 2 1 -10 5 -16 11 -12 11 7 1 36 -19
51 -8 6 -11 18 -8 27 3 9 2 19 -3 22 -6 4 -10 11 -10 17 0 6 9 3 20 -7 16 -14
17 -20 8 -27 -12 -7 -9 -9 8 -7 11 1 24 -25 24 -49 0 -13 4 -21 8 -18 4 2 6
-10 4 -28 -2 -20 -9 -33 -18 -33 -8 0 -14 4 -14 9 0 5 -4 7 -8 4 -5 -3 -15 6
-22 19 -7 14 -17 25 -22 25 -4 0 -8 21 -8 48 0 26 -7 56 -15 66 -8 11 -15 28
-15 38 0 10 -7 18 -15 18 -10 0 -15 -10 -15 -30 0 -38 -32 -41 -48 -5 -15 32
-15 38 -2 30 6 -4 10 6 10 22 0 22 -2 25 -10 13 -6 -9 -10 -10 -10 -3 0 6 4
14 9 18 6 3 8 15 6 26 -4 18 0 20 20 16 14 -2 25 -1 25 4 0 22 -15 39 -34 39
-34 0 -45 13 -55 63 -5 26 -5 44 0 41 5 -3 9 0 9 6 0 21 18 0 45 -53z m-256
-150 c8 -10 7 -17 -2 -26 -9 -11 -9 -14 1 -18 6 -3 12 -20 12 -38 0 -19 6 -38
14 -42 8 -5 16 -33 19 -71 4 -34 13 -77 22 -95 8 -18 17 -48 20 -66 2 -19 13
-42 24 -53 12 -10 21 -28 21 -38 0 -11 5 -20 12 -20 6 0 3 -7 -8 -15 -19 -14
-18 -14 4 -15 12 0 22 -4 22 -9 0 -4 -17 -5 -37 0 -158 34 -153 31 -134 83 8
18 6 28 -5 37 -12 10 -13 32 -8 124 5 76 3 123 -5 146 -11 33 -5 129 9 129 4
0 12 -6 19 -13z m5681 -89 c35 -24 37 -28 66 -93 12 -27 13 -40 5 -43 -6 -2
-11 -9 -11 -15 -1 -7 -19 -25 -40 -42 -22 -16 -52 -40 -67 -53 -16 -13 -41
-30 -58 -39 -16 -9 -33 -21 -37 -27 -5 -8 -8 -7 -8 2 0 7 -14 33 -30 58 -29
41 -34 44 -78 44 -91 0 -90 22 1 103 81 72 166 127 197 127 15 0 42 -10 60
-22z m-3704 -215 c25 -40 43 -77 39 -83 -13 -22 -98 -72 -114 -67 -32 8 -24
-46 14 -99 19 -27 38 -56 42 -64 4 -8 35 -61 70 -116 65 -104 77 -144 45 -144
-9 0 -23 -9 -30 -20 -14 -22 -49 -26 -72 -7 -18 15 -87 106 -126 167 -16 25
-31 47 -34 50 -3 3 -9 13 -15 22 -14 24 -133 201 -143 213 -16 20 -34 74 -27
84 9 15 91 71 104 71 6 0 11 -12 11 -27 1 -27 1 -27 16 -8 13 17 16 18 24 5 5
-8 10 -21 10 -28 0 -7 11 -18 25 -24 15 -6 29 -24 34 -42 7 -25 9 -26 10 -9 1
21 -33 92 -49 103 -17 12 -17 51 1 74 10 13 19 29 19 34 0 6 12 20 26 31 l27
21 24 -32 c13 -18 44 -66 69 -105z m5283 -45 l1 -98 -28 0 c-15 0 -34 -8 -43
-18 -11 -13 -26 -17 -62 -14 -40 3 -47 7 -48 26 -2 20 -2 20 -6 -2 -3 -13 -9
-19 -15 -16 -6 4 -8 2 -5 -4 4 -5 3 -21 -2 -34 l-10 -23 -2 25 c-3 41 -4 44
-11 56 -4 6 3 21 16 33 13 12 26 19 28 14 3 -4 3 -2 2 4 -2 7 31 49 74 94 42
45 81 88 87 98 14 24 22 -24 24 -141z m-3594 -177 c3 -11 15 -18 30 -18 14 0
22 3 19 8 -3 5 -12 9 -20 9 -8 0 -14 5 -14 10 0 6 11 10 25 10 14 0 24 -3 24
-7 -4 -23 4 -32 27 -30 15 1 29 -3 31 -10 3 -9 -16 -12 -67 -12 -40 0 -74 -2
-78 -5 -3 -3 44 -5 104 -5 60 1 100 3 89 6 -31 7 -36 17 -26 44 7 17 10 19 10
7 1 -14 10 -18 44 -19 23 -1 50 0 60 1 15 1 17 -3 12 -19 -5 -15 -2 -21 9 -21
19 0 22 -20 4 -20 -250 -7 -422 -3 -426 8 -3 9 4 13 19 12 65 -6 89 0 89 20 0
11 -7 20 -15 20 -9 0 -12 -6 -9 -15 5 -12 -5 -15 -60 -15 -54 0 -64 -3 -60
-15 4 -11 -1 -15 -17 -15 -18 0 -20 3 -11 12 7 7 12 20 12 31 0 16 5 18 30 12
23 -5 30 -3 28 7 -2 9 12 15 42 19 80 11 88 10 95 -10z m-3779 -116 c22 -7 48
-109 51 -200 4 -131 -2 -153 -53 -210 -84 -93 -146 -235 -169 -382 -8 -50 -16
-52 -98 -24 -157 54 -284 152 -331 255 -35 75 -40 205 -9 252 7 11 10 23 7 26
-3 3 4 25 16 47 33 65 81 118 140 154 19 11 37 24 40 27 9 11 163 53 220 60
50 7 158 4 186 -5z m6264 -38 c0 -36 10 -53 64 -110 20 -21 36 -44 36 -52 0
-12 -72 -107 -111 -146 -15 -15 -18 -14 -33 13 -22 37 -57 69 -68 62 -4 -3 -8
4 -8 16 0 25 -17 60 -30 60 -9 0 -31 -13 -183 -103 -43 -26 -82 -47 -86 -47
-5 0 -11 -5 -13 -12 -2 -6 -20 -12 -40 -12 -24 -1 -34 -5 -31 -13 3 -7 -2 -13
-11 -13 -9 0 -16 3 -16 8 1 10 27 43 34 43 30 -2 66 14 66 30 0 11 7 19 15 19
8 0 15 -4 15 -10 0 -5 -5 -10 -12 -10 -6 0 -8 -3 -5 -6 4 -4 14 -1 22 6 13 11
13 15 3 21 -10 7 -10 11 0 21 6 6 12 20 12 30 0 10 7 21 15 24 8 4 15 15 15
26 0 10 5 16 10 13 6 -4 10 5 10 19 0 28 45 86 67 86 7 0 23 10 35 22 18 18
33 22 100 22 59 1 81 5 94 18 23 23 34 14 34 -25z m-1487 -20 c11 -4 16 -3 12
3 -10 16 16 11 67 -12 48 -23 77 -55 38 -43 -30 9 -24 -2 10 -20 35 -18 48
-19 32 -3 -17 17 -15 30 5 26 11 -2 18 -12 18 -27 0 -13 6 -26 13 -28 7 -3 10
1 6 11 -3 9 -1 16 6 16 6 0 10 -8 8 -17 -1 -10 1 -24 5 -30 13 -20 -26 -16
-49 5 -20 19 -96 50 -79 33 17 -17 167 -92 173 -87 3 3 -3 8 -12 12 -21 8 -21
30 0 38 12 4 15 2 10 -9 -3 -8 -1 -15 4 -15 6 0 10 5 10 10 0 6 5 10 10 10 6
0 10 -7 10 -16 0 -13 3 -14 14 -5 7 6 21 9 30 5 14 -5 13 -9 -6 -29 -12 -13
-29 -21 -37 -19 -9 3 -5 -1 9 -8 31 -16 50 -33 50 -47 0 -15 1 -16 -91 35 -91
51 -222 120 -269 143 -30 14 -41 41 -18 41 6 0 3 7 -8 15 -25 19 -35 19 -28 0
4 -10 0 -15 -15 -15 -27 0 -26 8 2 35 17 17 25 19 37 10 8 -7 23 -15 33 -18z
m-4222 -197 c5 -17 7 -19 8 -7 1 20 32 20 38 1 5 -16 -29 -23 -69 -15 -30 7
-31 8 -10 15 30 10 18 26 -20 26 -25 0 -28 -3 -19 -14 9 -10 8 -15 -1 -19 -19
-7 -11 -97 8 -97 8 0 14 -10 14 -25 0 -20 5 -25 25 -25 20 0 25 5 25 25 0 20
5 25 25 25 23 0 25 4 25 40 0 29 4 40 15 40 8 0 15 -8 16 -17 3 -104 8 -138
18 -141 6 -2 11 -14 11 -27 0 -26 15 -41 25 -25 10 17 25 11 25 -9 0 -11 4
-21 8 -23 5 -1 12 -29 16 -61 4 -39 3 -56 -4 -52 -6 4 -10 -5 -10 -19 0 -14 4
-26 9 -26 11 0 21 -63 14 -89 -6 -24 -33 -29 -33 -6 0 19 -70 21 -71 3 0 -10
-2 -10 -6 0 -10 25 -33 12 -33 -18 0 -16 -4 -30 -10 -30 -5 0 -10 -6 -10 -14
0 -21 -15 -27 -42 -17 -17 7 -18 10 -5 10 9 1 17 7 17 15 0 15 -74 31 -91 20
-7 -4 -10 24 -10 82 1 49 1 98 0 109 -1 11 -1 38 0 60 1 22 -1 75 -5 118 -5
58 -3 77 6 77 9 0 11 14 8 50 -3 30 -1 51 6 55 7 3 6 7 -3 11 -23 11 9 25 49
22 27 -2 36 -8 41 -28z m688 3 c12 -10 32 -42 46 -70 20 -45 22 -54 9 -61 -10
-6 -4 -11 23 -21 21 -8 55 -25 75 -38 44 -29 44 -28 -33 -158 -71 -122 -80
-133 -104 -125 -26 9 -50 2 -71 -21 -17 -19 -16 -21 5 -50 12 -16 20 -37 17
-47 -7 -19 -67 -46 -75 -34 -4 4 -22 18 -41 29 -19 12 -50 37 -69 57 -32 33
-33 37 -28 93 4 32 7 67 7 78 0 11 18 40 40 65 22 25 40 50 40 56 0 5 -14 20
-31 33 -28 21 -30 26 -24 64 8 45 52 100 115 142 42 29 71 31 99 8z m-841 -25
c0 -7 4 -147 8 -311 6 -271 6 -297 -9 -291 -9 3 -19 16 -23 27 -3 12 -12 29
-19 37 -14 17 -45 142 -45 181 0 14 5 30 11 36 6 6 14 43 17 82 2 39 9 71 13
71 5 0 6 18 3 39 -5 34 -3 40 15 46 11 3 21 14 21 23 -1 15 -2 15 -15 -1 -7
-10 -22 -17 -32 -15 -14 3 -11 7 15 21 17 10 32 22 32 27 0 18 -20 21 -36 6
-15 -16 -34 -21 -34 -11 0 6 62 45 71 45 3 0 6 -6 7 -12z m-220 -164 c3 -10 4
-64 3 -119 -1 -89 15 -219 34 -267 5 -12 1 -20 -11 -24 -11 -3 -27 -10 -36
-15 -27 -14 -47 -11 -71 12 -20 18 -22 32 -27 147 -4 99 -2 132 9 150 12 21
12 25 0 33 -11 7 -11 9 -1 9 7 0 10 5 7 10 -9 15 12 39 49 56 25 11 26 13 6 8
-24 -6 -24 -6 -5 10 24 19 37 16 43 -10z m-123 -263 c0 -88 -3 -162 -7 -166
-4 -4 -30 -4 -59 0 l-52 7 7 60 c3 32 18 89 33 126 25 65 63 132 73 132 3 0 5
-72 5 -159z m5595 -59 c22 -40 41 -64 48 -58 2 3 -5 17 -17 32 -23 29 -29 54
-8 32 31 -32 77 -97 77 -108 0 -7 -7 -10 -15 -6 -19 7 -19 1 1 -29 14 -21 14
-25 2 -25 -8 0 -23 18 -34 40 -10 22 -22 40 -27 40 -4 0 -12 11 -17 25 -5 14
-14 25 -19 25 -14 0 -1 -30 22 -55 10 -11 26 -33 34 -50 9 -16 19 -32 22 -35
3 -3 12 -17 20 -32 18 -36 77 -103 61 -70 -12 24 -6 42 14 42 7 0 12 -10 12
-22 -1 -17 5 -24 24 -27 23 -3 39 -16 40 -32 0 -12 -37 -17 -54 -7 -10 6 -16
5 -16 -1 0 -14 22 -26 43 -23 9 2 17 -2 17 -8 0 -7 -7 -9 -16 -6 -13 5 -15 2
-11 -14 11 -43 -12 -27 -54 38 -23 37 -69 107 -101 155 -32 49 -58 91 -58 95
0 3 -9 16 -21 28 -21 23 -18 51 4 37 7 -4 4 4 -5 19 -17 25 -14 42 5 35 6 -2
18 -17 27 -35z m2341 -68 c60 -24 193 -95 197 -106 2 -4 10 -8 17 -8 20 0 172
-118 251 -196 l72 -69 1 -72 c1 -40 6 -130 12 -200 20 -264 23 -392 8 -410 -8
-9 -9 -14 -3 -10 7 4 14 -2 17 -13 6 -24 6 -24 -62 -40 -70 -16 -237 -8 -311
16 l-55 18 35 7 c30 5 31 7 8 8 -15 0 -30 5 -33 11 -3 6 1 7 9 4 18 -7 23 21
6 31 -5 3 -10 17 -10 31 0 17 -5 24 -20 24 -10 0 -24 9 -30 20 -12 23 -86 64
-100 55 -6 -3 -10 4 -10 17 0 12 -12 32 -27 45 -22 18 -24 22 -10 23 13 0 17
9 17 40 0 39 -1 40 -37 41 l-38 0 38 16 c20 8 37 18 37 22 0 4 -15 15 -32 24
l-33 16 43 0 42 1 0 40 c0 29 -4 40 -15 40 -8 0 -15 5 -15 10 0 7 6 7 19 0 27
-14 51 -13 51 4 0 7 9 25 21 40 l20 26 -25 0 c-26 0 -26 1 -26 80 0 64 -3 80
-15 80 -9 0 -15 -9 -15 -25 0 -22 -4 -25 -40 -25 l-40 0 0 45 c0 25 -4 45 -8
45 -5 0 -14 12 -21 27 -17 37 -5 173 15 173 21 0 17 9 -17 41 -17 16 -28 33
-24 39 3 5 1 10 -5 10 -21 0 -38 23 -26 36 12 13 92 -3 167 -32z m-710 -141
c7 -29 16 -53 22 -53 5 0 7 -6 4 -14 -3 -7 5 -57 19 -111 13 -54 24 -108 24
-120 0 -15 -19 -37 -60 -70 -33 -26 -60 -51 -60 -55 0 -4 -12 -13 -27 -21 -16
-7 -44 -26 -63 -41 -19 -16 -38 -28 -43 -28 -4 0 -19 -8 -34 -17 -14 -10 -32
-18 -39 -19 -8 -1 -45 -14 -83 -29 -97 -38 -112 -33 -139 52 -43 135 -37 176
29 223 17 13 34 32 39 44 8 19 9 19 9 2 1 -15 4 -16 16 -6 10 8 13 20 9 34
-23 69 22 147 120 210 38 24 55 42 59 62 7 32 57 67 137 95 l45 16 2 -51 c2
-28 8 -75 14 -103z m-6884 -148 c23 -15 23 -16 23 -260 0 -228 -1 -244 -17
-238 -27 9 -53 34 -47 44 3 5 -1 7 -8 4 -15 -6 -124 73 -120 87 1 5 -2 7 -7 4
-5 -4 -38 25 -72 63 l-63 69 -4 96 c-5 111 1 143 26 149 9 2 73 2 142 0 88 -2
131 -8 147 -18z m73 -119 c5 -5 6 0 3 13 -4 16 -1 21 13 21 11 0 26 -5 34 -11
12 -9 11 -10 -7 -6 -13 3 -23 1 -23 -4 0 -5 4 -9 10 -9 5 0 7 -6 4 -13 -11
-29 58 -49 77 -23 4 4 15 -6 25 -23 10 -17 22 -31 27 -31 4 0 5 4 2 10 -4 6 1
7 11 3 16 -6 16 -7 0 -18 -27 -20 -20 -38 13 -33 17 2 28 1 26 -2 -3 -4 5 -16
16 -26 14 -13 22 -15 27 -7 5 8 13 9 22 3 12 -8 12 -10 -4 -10 -28 0 -2 -26
33 -33 18 -4 32 -15 36 -27 4 -13 15 -20 31 -20 20 0 24 -5 24 -28 0 -17 9
-34 25 -46 19 -14 22 -22 15 -37 -6 -10 -10 -36 -10 -59 0 -48 -20 -62 -51
-34 -17 16 -21 16 -35 3 -9 -9 -26 -14 -44 -11 -27 4 -29 8 -35 57 -4 30 -4
58 0 64 3 6 -1 11 -9 11 -11 0 -16 -10 -16 -30 0 -28 -2 -30 -22 -19 -19 10
-25 8 -43 -15 -27 -34 -35 -33 -35 3 0 42 -10 44 -50 9 -19 -16 -29 -27 -23
-23 9 4 11 1 7 -10 -5 -12 -9 -13 -20 -4 -10 8 -14 8 -14 0 0 -22 -40 -11 -52
15 -10 21 -9 27 3 35 10 6 10 9 2 9 -10 0 -13 49 -11 218 0 119 3 201 5 182 3
-19 8 -39 13 -44z m8143 -82 c22 -31 36 -61 33 -70 -3 -8 -1 -12 4 -9 12 8 52
-57 74 -120 27 -76 33 -205 12 -259 -18 -46 -105 -141 -118 -128 -8 8 -34 221
-42 357 -3 50 -9 128 -12 175 -3 47 -7 93 -10 102 -10 33 20 9 59 -48z m-1133
-98 c0 -15 -10 -28 -32 -39 -18 -10 -55 -31 -83 -48 -27 -16 -58 -33 -67 -36
-10 -3 -18 -9 -18 -14 0 -6 -8 -13 -17 -16 -10 -4 -35 -17 -57 -31 -63 -39
-186 -101 -186 -93 0 22 87 91 114 91 22 0 136 59 136 71 0 5 9 9 19 9 11 0
21 3 23 8 2 4 35 31 73 61 39 30 72 58 73 63 7 15 22 -3 22 -26z m-3983 -91
c26 -13 63 -53 63 -69 0 -3 -13 -1 -29 4 -16 4 -32 6 -35 2 -3 -3 -6 0 -6 6 0
6 -8 11 -17 11 -10 0 -31 2 -48 6 -22 4 -25 3 -10 -3 18 -8 17 -10 -12 -16
-17 -4 -35 -15 -39 -24 -12 -28 -12 -76 1 -97 11 -19 11 -62 0 -74 -3 -2 -18
8 -34 23 -69 66 -51 182 34 226 47 24 91 25 132 5z m3299 -255 c1 -8 3 -17 4
-20 9 -26 13 -64 26 -324 5 -99 4 -127 -5 -121 -8 4 -11 27 -10 61 2 29 0 57
-4 61 -8 7 -10 -8 -7 -49 1 -22 -3 -28 -19 -28 -16 0 -21 -6 -21 -25 0 -14 -4
-25 -10 -25 -5 0 -10 24 -10 53 0 28 -5 59 -10 67 -6 10 -7 3 -3 -24 4 -26 3
-37 -4 -33 -14 9 -26 92 -17 120 7 21 7 21 15 2 6 -15 8 -11 8 18 1 44 17 49
26 7 7 -33 1 -50 -21 -50 -8 0 -14 -4 -14 -10 0 -5 9 -10 19 -10 15 0 21 -9
24 -37 4 -28 -1 309 -5 347 -3 28 4 41 20 38 9 -2 18 -10 18 -18z m-5068 -335
c-3 -124 -8 -228 -12 -232 -4 -4 -11 -1 -16 7 -6 10 -9 6 -12 -15 -2 -16 -9
-30 -16 -33 -10 -3 -12 13 -10 69 2 48 7 74 16 77 9 3 12 -6 10 -32 -1 -19 1
-38 5 -42 4 -4 7 87 7 203 0 115 3 213 7 216 22 23 25 -8 21 -218z m-1393 183
c87 -23 90 -24 93 -55 4 -36 -12 -42 -93 -38 -27 2 -78 1 -112 -2 l-62 -5 6
-47 6 -46 -21 22 c-12 12 -24 33 -28 47 -4 19 -13 26 -30 26 -23 0 -24 -3 -24
-59 0 -57 1 -59 31 -70 18 -6 49 -11 70 -11 35 0 41 4 74 55 21 30 41 52 46
49 13 -8 11 -58 -3 -73 -23 -22 28 -51 90 -51 l52 0 1 -212 c0 -117 2 -389 5
-603 l5 -391 -43 -18 c-80 -35 -149 -70 -270 -138 -13 -7 -26 -17 -29 -22 -4
-5 -12 -5 -18 -2 -6 4 -11 1 -11 -6 -1 -7 -24 -29 -51 -48 -28 -19 -87 -63
-131 -97 -92 -72 -96 -72 -215 -18 -170 78 -295 257 -343 495 -41 200 -17 575
49 767 46 134 105 227 206 328 130 129 279 209 428 230 43 6 47 4 48 -14 2
-33 4 -39 12 -47 4 -4 7 11 7 33 0 22 2 42 5 45 13 13 167 -2 250 -24z m7559
-17 c3 -5 18 -12 33 -16 15 -3 30 -10 33 -13 8 -11 199 -71 280 -88 73 -15
219 -14 307 2 l31 6 6 -74 c3 -40 8 -113 11 -163 11 -194 26 -396 30 -407 2
-7 7 -65 10 -128 9 -175 14 -240 30 -425 9 -93 20 -226 25 -295 5 -69 14 -172
19 -230 10 -103 28 -318 56 -690 8 -102 17 -194 20 -205 2 -11 7 -63 10 -115
3 -52 10 -138 15 -190 16 -160 29 -310 35 -405 3 -49 11 -134 17 -188 6 -53 8
-100 5 -103 -3 -4 -57 -1 -119 5 -120 11 -301 22 -431 24 -80 2 -102 13 -92
48 6 20 -65 85 -75 69 -5 -8 -12 -6 -24 5 -9 9 -14 20 -11 24 2 5 -8 8 -24 7
-20 -1 -27 -5 -23 -15 4 -10 -4 -12 -36 -9 -25 2 -42 -1 -42 -7 0 -5 -6 -3
-13 6 -19 24 -46 31 -40 10 2 -9 -1 -30 -8 -46 -11 -26 -13 -27 -17 -10 -6 28
-42 65 -64 65 -10 0 -18 5 -18 10 0 6 -7 10 -15 10 -10 0 -15 10 -15 29 0 18
-8 35 -18 43 -26 18 -30 41 -37 228 -8 200 -10 234 -20 283 -4 22 -3 37 2 37
5 0 10 6 10 13 0 6 3 32 6 57 l6 45 -14 -40 -13 -40 -3 43 c-1 23 -2 48 -3 55
-1 6 5 11 12 9 19 -3 14 16 -8 35 -15 13 -19 25 -14 49 4 20 1 34 -7 39 -10 7
-11 -28 -4 -166 4 -96 9 -194 11 -219 2 -25 6 -103 9 -175 3 -71 7 -157 10
-190 3 -48 1 -56 -8 -40 -11 20 -13 30 -16 120 -1 36 -4 46 -11 35 -5 -8 -7
-26 -4 -40 4 -22 3 -22 -5 -5 -5 11 -10 28 -10 38 -1 10 -16 42 -35 72 -19 29
-32 56 -29 59 4 3 -2 6 -13 6 -22 0 -50 36 -32 42 8 3 8 10 -1 25 -14 27 -14
43 0 43 6 0 9 -7 5 -15 -3 -9 0 -15 9 -15 11 0 12 6 4 30 -6 17 -13 30 -15 30
-2 0 -10 -13 -19 -30 -9 -16 -12 -30 -9 -30 4 0 -2 -10 -14 -23 -12 -13 -19
-28 -15 -33 5 -5 4 -6 0 -2 -5 3 -21 -8 -37 -25 -40 -45 -47 -29 -9 19 81 102
136 276 125 398 -6 69 -51 218 -67 224 -20 8 -7 29 29 47 20 11 39 22 42 25 9
9 65 32 70 28 2 -1 5 -9 7 -16 3 -23 13 -27 13 -5 0 38 22 85 37 79 8 -3 12
-2 9 3 -3 4 17 29 44 55 27 26 52 55 55 66 4 13 31 27 88 45 45 15 106 40 134
56 29 16 59 29 67 29 8 0 17 6 19 13 4 9 8 8 17 -3 9 -12 10 -11 5 8 -3 12 -2
22 3 22 6 0 33 18 61 40 56 44 58 45 64 28 2 -7 3 -3 1 8 -4 23 18 48 31 36 5
-4 5 -1 1 6 -4 6 -3 12 2 12 5 0 14 11 20 25 7 14 30 49 52 78 21 29 47 71 56
92 9 22 22 54 29 70 8 17 23 59 33 95 11 36 21 57 21 47 1 -25 21 -11 21 14 0
11 -4 17 -10 14 -6 -4 -10 28 -10 89 0 57 4 96 10 96 6 0 10 9 10 20 0 11 -4
20 -8 20 -8 0 -33 84 -36 120 -1 8 -11 36 -23 61 -12 25 -20 57 -17 70 4 20 3
21 -4 5 -8 -18 -9 -18 -15 -2 -4 10 -5 22 -2 27 4 5 -2 6 -11 2 -14 -5 -16 -2
-11 23 3 16 4 23 1 16 -4 -8 -28 11 -67 53 -33 37 -88 85 -121 107 -44 29 -53
38 -33 34 24 -6 27 -3 27 18 0 13 -7 26 -15 30 -8 3 -15 16 -15 30 0 14 7 31
15 40 8 8 15 24 15 35 0 23 -30 91 -41 91 -3 0 -12 -14 -20 -32 l-13 -31 -15
31 c-17 37 -43 41 -59 10 l-11 -23 0 22 c-1 12 4 23 10 25 9 3 9 10 0 26 -9
17 -21 22 -51 22 -36 0 -40 -3 -40 -25 0 -19 -5 -25 -22 -25 -22 -1 -21 -2 5
-16 19 -10 27 -22 27 -42 0 -19 -3 -23 -9 -13 -6 10 -13 11 -29 2 -44 -24 -52
-16 -52 54 l0 65 -39 0 c-30 0 -40 -4 -43 -17 -3 -15 -8 -13 -33 12 l-30 30
33 3 c49 5 43 32 -8 32 -36 0 -40 3 -40 25 0 16 6 25 15 25 8 0 15 7 15 15 0
9 12 18 30 21 16 4 32 15 35 25 8 25 42 24 50 -1 3 -11 10 -20 15 -20 13 0 21
33 10 44 -5 5 -10 18 -10 29 0 26 -24 47 -54 47 -24 0 -26 4 -26 40 0 36 6 44
30 42 3 0 10 15 16 34 12 36 6 41 -27 24 -16 -9 -19 -7 -19 8 0 15 6 17 35 14
22 -3 35 0 35 8 0 7 -8 9 -20 5 -11 -3 -28 -1 -37 5 -15 9 -13 10 10 5 19 -4
26 -2 22 5 -3 5 -2 10 4 10 5 0 12 -4 15 -9z m-7078 -226 c4 -8 17 -15 30 -15
16 0 24 -6 24 -17 0 -15 2 -16 10 -3 9 14 11 12 9 -7 0 -4 8 -10 19 -14 19 -7
20 -14 15 -90 -4 -46 -11 -93 -18 -106 -9 -18 -9 -35 4 -85 9 -35 20 -67 26
-71 5 -4 35 -7 65 -6 74 2 76 1 96 -18 14 -15 18 -15 28 -2 14 19 44 31 51 20
3 -5 -2 -12 -11 -15 -14 -5 -15 -19 -10 -94 5 -61 4 -83 -3 -72 -7 10 -11 11
-11 3 0 -7 -7 -13 -15 -13 -8 0 -15 5 -15 10 0 6 -9 10 -20 10 -11 0 -20 -4
-20 -10 0 -5 7 -10 15 -10 12 0 15 -15 17 -72 0 -40 3 -58 5 -40 3 20 10 32
19 32 8 0 12 5 9 10 -4 6 -11 8 -16 5 -5 -4 -9 -1 -9 4 0 6 12 11 26 11 15 0
36 10 47 23 16 17 19 18 14 4 -4 -10 -7 -27 -7 -38 0 -12 -7 -19 -20 -19 -23
0 -28 -37 -10 -71 12 -22 4 -24 -35 -9 -17 7 -24 7 -20 0 3 -6 13 -10 21 -10
8 0 12 -5 9 -11 -4 -6 -13 -8 -21 -5 -8 3 -14 1 -14 -3 0 -5 -16 -18 -35 -30
-19 -11 -35 -16 -35 -11 0 5 8 13 17 19 10 5 15 12 11 16 -9 9 -50 -33 -43
-44 2 -5 -11 -16 -30 -25 -19 -9 -35 -21 -35 -26 0 -6 -5 -10 -11 -10 -6 0
-53 -31 -104 -70 -64 -47 -100 -68 -112 -64 -15 5 -15 4 -3 -5 12 -8 12 -11
-4 -17 -11 -4 -41 -29 -69 -55 -45 -43 -134 -89 -173 -89 -12 0 -14 57 -16
358 -1 196 -1 366 -1 377 1 11 2 118 3 238 1 181 4 217 16 217 8 0 14 -4 14
-10 0 -5 10 -10 23 -10 14 0 18 -3 9 -8 -13 -9 -20 -112 -8 -130 3 -6 2 -32
-4 -58 -8 -34 -8 -49 0 -54 7 -5 6 -11 -5 -20 -22 -18 -20 -53 3 -46 15 5 17
-4 19 -82 1 -50 7 -88 13 -90 5 -2 10 -21 10 -43 0 -28 4 -39 15 -39 9 0 15 9
15 25 0 20 5 25 25 25 15 0 25 6 25 14 0 18 32 76 42 76 4 0 4 23 1 50 -5 46
-4 50 16 50 15 0 21 6 21 24 0 13 -7 29 -15 36 -12 10 -12 17 2 52 13 32 14
42 3 48 -11 7 -11 14 0 39 7 18 11 54 8 86 -5 54 4 68 28 46 16 -15 82 -23 89
-10 5 6 0 10 -11 9 -33 -4 -45 0 -39 10 4 6 11 8 16 5 5 -4 9 -1 9 4 0 6 -8
11 -17 11 -15 0 -16 2 -3 10 21 14 30 12 36 -5z m3635 -234 c36 -36 39 -43 39
-96 0 -47 -5 -65 -26 -93 -28 -35 -77 -62 -116 -62 -12 0 -41 9 -64 21 -53 25
-89 90 -79 141 18 92 58 126 149 127 55 1 61 -1 97 -38z m-921 -1 c26 -13 49
-18 65 -14 15 4 25 2 25 -5 0 -6 -9 -11 -20 -11 -22 0 -26 -10 -10 -26 5 -5
12 -30 15 -54 11 -80 -41 -145 -126 -160 -58 -11 -123 20 -151 70 -24 44 -20
124 8 163 40 55 127 71 194 37z m471 -200 c13 -7 19 -21 19 -43 -1 -27 -2 -30
-13 -16 -9 11 -20 14 -39 8 -16 -4 -63 -9 -105 -11 l-78 -3 -3 38 -3 37 101 0
c56 0 110 -5 121 -10z m-901 -150 c0 -15 7 -20 26 -20 52 0 11 -20 -44 -21
-54 -2 -55 -2 -17 -9 57 -9 27 -18 -82 -24 -84 -4 -91 -3 -96 15 -4 14 -14 19
-36 19 -17 0 -31 5 -31 10 0 6 8 10 17 10 12 0 14 3 6 11 -15 15 -33 2 -33
-24 0 -25 -20 -62 -20 -38 0 11 -3 11 -15 1 -12 -10 -15 -10 -15 4 0 9 -4 16
-10 16 -5 0 -10 -7 -10 -15 0 -21 -39 -19 -47 3 -4 9 -14 22 -22 29 -11 8 -12
12 -3 13 6 0 12 4 12 10 0 5 -7 7 -15 4 -9 -4 -15 0 -15 10 0 14 25 16 225 16
218 0 225 -1 225 -20z m4403 -34 c9 -7 17 -25 17 -39 0 -20 4 -25 15 -20 9 3
15 2 13 -3 -1 -5 4 -27 11 -49 11 -29 11 -40 2 -43 -9 -3 -9 -7 0 -18 19 -23
-18 -7 -71 31 -25 17 -66 44 -92 59 -44 25 -68 56 -34 43 7 -3 18 -1 23 4 9 9
84 48 93 48 3 0 13 -6 23 -13z m579 -24 c-23 -7 -12 -19 13 -14 17 3 30 -1 39
-13 11 -15 14 -16 27 -2 18 17 49 5 49 -20 0 -9 6 -13 15 -9 19 7 107 -110
130 -174 9 -25 24 -61 33 -80 25 -54 24 -315 -2 -390 -42 -122 -97 -217 -175
-302 -38 -42 -56 -55 -71 -51 -18 5 -25 -4 -21 -29 1 -13 -109 -79 -121 -72
-6 4 -8 3 -5 -3 3 -5 -9 -17 -28 -26 -41 -19 -44 -11 -20 46 39 95 48 264 21
397 -18 85 -86 228 -146 308 -23 30 -37 58 -34 65 4 7 4 9 0 6 -7 -7 -40 21
-66 56 -14 20 -14 20 7 1 21 -18 22 -18 20 2 0 11 -4 20 -7 20 -3 0 -12 0 -20
1 -12 1 -12 4 3 12 9 5 22 7 27 4 6 -3 10 0 10 7 0 28 45 154 59 165 9 7 31
13 49 13 18 0 47 8 65 17 18 9 36 17 42 18 5 0 12 11 16 25 6 23 7 24 15 5 4
-11 18 -29 31 -41 l24 -22 23 21 c28 28 25 32 -13 19 -24 -8 -31 -8 -31 1 0
22 31 58 43 50 8 -5 8 -8 -1 -11z m-2165 -59 c4 -10 11 -21 17 -25 8 -5 7 -14
-3 -30 -10 -16 -10 -23 -2 -26 17 -6 14 -23 -15 -80 -18 -36 -32 -52 -45 -52
-11 0 -22 -7 -25 -15 -4 -8 -10 -12 -16 -9 -5 3 -7 13 -4 21 4 9 1 13 -6 11
-23 -8 -20 -35 4 -41 13 -4 25 -2 26 3 4 12 32 14 32 3 -1 -18 -19 -35 -33
-30 -20 8 -63 -51 -48 -66 16 -16 14 -30 -3 -24 -19 8 -33 -32 -16 -43 18 -11
5 -39 -17 -39 -10 0 -35 -2 -55 -5 -27 -5 -38 -3 -37 6 0 7 44 99 97 203 86
169 100 190 120 187 26 -4 29 6 6 22 -9 7 -12 18 -8 29 8 22 23 22 31 0z
m1313 -46 c99 -40 194 -98 235 -143 22 -24 44 -44 48 -44 4 0 23 -10 42 -22
l35 -23 -1 -85 c0 -81 10 -262 31 -530 17 -224 19 -300 10 -300 -6 0 -11 10
-11 23 -1 16 -2 18 -6 5 -4 -14 -15 -18 -56 -17 -70 1 -142 20 -142 38 0 8 -6
16 -12 19 -7 2 -13 -3 -13 -12 0 -21 -8 -21 -117 6 -83 21 -93 25 -93 46 0 13
6 22 15 22 8 0 15 6 15 14 0 7 12 21 26 31 22 14 28 15 35 4 6 -9 9 -1 9 24 0
41 24 107 38 107 5 0 17 -15 26 -32 l16 -33 0 42 c0 23 -4 43 -9 45 -5 2 -10
21 -11 43 -3 54 -1 62 9 47 6 -11 15 -10 44 4 21 10 37 21 37 25 0 4 -20 15
-45 26 -42 17 -45 20 -45 56 0 20 5 37 10 37 14 0 13 67 -1 76 -7 4 -10 25 -7
54 4 39 1 49 -14 59 -20 13 -58 6 -58 -10 0 -5 -6 -9 -13 -9 -7 0 -13 -8 -14
-17 -3 -52 -9 -73 -21 -73 -7 0 -10 4 -7 10 3 6 -1 7 -9 4 -9 -3 -16 -13 -16
-21 0 -10 -6 -13 -16 -9 -10 4 -14 2 -11 -6 2 -7 10 -12 16 -10 16 3 14 -8 -6
-30 -13 -14 -13 -18 -2 -18 9 -1 8 -4 -5 -11 -14 -9 -20 -8 -27 2 -12 19 -11
43 2 56 5 5 11 21 13 34 1 14 6 31 10 38 7 10 0 12 -28 8 -21 -3 -40 -8 -43
-11 -4 -3 0 -59 7 -123 8 -65 14 -182 14 -260 1 -79 4 -143 9 -143 4 0 7 -11
7 -25 0 -19 -5 -25 -22 -25 -17 0 -19 3 -10 9 11 7 11 9 -2 14 -8 3 -16 1 -18
-5 -3 -8 -21 -5 -57 7 -40 15 -48 21 -34 26 17 7 17 8 1 8 -14 1 -18 10 -18
41 0 22 -4 40 -10 40 -5 0 -10 18 -10 41 l0 41 -44 -3 c-32 -3 -42 -1 -39 9 4
8 29 12 79 12 l74 0 0 30 c0 26 -4 30 -26 30 -20 0 -24 4 -20 18 4 10 -4 28
-18 44 l-25 26 30 33 c29 33 30 34 9 37 -15 3 -20 10 -18 25 2 18 10 22 38 22
49 0 49 29 0 33 -19 2 -39 7 -45 11 -5 5 -25 7 -42 5 -23 -2 -33 2 -33 12 0 8
5 14 10 14 6 0 5 8 -2 20 -7 11 -20 20 -29 20 -21 0 -39 49 -39 104 0 23 -9
65 -20 94 -11 29 -20 74 -20 100 0 58 8 63 120 88 41 9 79 20 85 25 5 5 20 9
35 9 14 0 32 5 40 10 27 18 122 11 180 -13z m-605 -351 c0 -13 -2 -23 -5 -21
-3 2 -10 -8 -17 -21 -6 -14 -7 -26 -2 -30 5 -3 9 -15 8 -27 -1 -21 -1 -20 -8
2 -7 24 -7 24 -31 -15 -13 -21 -23 -42 -22 -46 1 -4 -9 -19 -23 -32 -14 -14
-25 -34 -25 -44 0 -11 -7 -25 -15 -32 -8 -7 -15 -17 -15 -23 0 -15 -71 -117
-82 -117 -4 0 -8 2 -8 5 0 3 45 96 101 206 70 138 108 203 122 209 12 5 22 9
22 9 0 1 0 -10 0 -23z m1087 -56 c2 -8 12 -25 23 -37 26 -30 71 -154 79 -218
3 -27 9 -73 12 -102 4 -33 2 -63 -6 -83 -14 -34 -34 -30 -27 6 2 13 0 24 -4
24 -5 0 -9 -14 -9 -31 0 -24 -4 -30 -15 -25 -9 3 -15 0 -15 -9 0 -8 6 -15 14
-15 7 0 17 -10 21 -22 l8 -23 4 23 c7 36 19 25 15 -13 -2 -19 -8 -35 -14 -35
-5 0 -7 -4 -3 -9 8 -13 -32 -114 -55 -141 -26 -30 -33 -22 -15 14 18 33 19 46
5 46 -5 0 -10 -8 -10 -18 0 -20 -36 -59 -46 -49 -3 3 1 16 10 29 20 29 20 40
-1 36 -14 -3 -17 8 -20 65 -4 65 -1 73 30 68 4 0 7 6 7 14 0 9 -9 15 -25 15
-25 0 -25 2 -25 78 0 42 -5 131 -10 196 -7 87 -7 123 1 133 18 21 39 -3 39
-46 0 -29 4 -37 19 -38 15 -1 18 6 18 38 0 29 -3 39 -13 35 -10 -4 -12 8 -10
50 2 30 -1 57 -7 61 -6 4 -8 0 -4 -9 3 -9 -1 -24 -9 -35 -13 -17 -14 -16 -8
12 11 57 13 60 29 44 7 -8 15 -21 17 -29z m-3053 -4 c48 -51 19 -126 -49 -126
-51 0 -72 19 -77 69 -3 35 0 46 18 62 31 27 80 25 108 -5z m-3354 -56 c-3 -4
-1 -10 4 -12 10 -4 61 -77 61 -88 0 -13 -38 -18 -51 -6 -8 7 -8 4 1 -9 8 -11
15 -22 17 -24 1 -2 10 4 19 13 12 13 20 14 28 6 8 -8 8 -13 -1 -18 -7 -5 -9
-13 -4 -21 6 -9 11 -10 15 -2 5 7 16 1 32 -18 19 -22 23 -36 18 -60 -6 -27 -9
-29 -22 -19 -14 12 -14 11 -1 -10 8 -12 15 -18 17 -12 5 15 22 12 22 -5 0 -7
7 -18 16 -23 9 -5 16 -22 16 -38 0 -16 5 -34 10 -41 5 -7 8 -18 6 -24 -2 -7
-17 9 -34 35 -49 79 -78 107 -37 36 20 -36 45 -76 55 -89 20 -26 26 -97 7 -85
-6 3 -8 17 -5 30 5 17 2 24 -9 24 -8 0 -15 5 -15 11 0 6 -33 66 -74 133 -87
145 -112 191 -97 182 6 -4 11 -2 11 4 0 6 -7 13 -15 16 -10 4 -15 20 -15 48 0
29 -3 37 -10 26 -8 -12 -11 -13 -22 -2 -11 11 -8 18 15 38 26 22 55 25 42 4z
m2078 -30 c20 0 60 -37 53 -49 -3 -5 -2 -11 3 -13 4 -1 5 -12 0 -23 -7 -18 -9
-17 -20 13 -8 17 -16 32 -20 32 -13 0 -16 -52 -5 -81 23 -62 -37 -90 -93 -43
-29 24 -41 27 -124 30 -73 2 -96 -1 -109 -13 -16 -15 -18 -15 -18 0 0 12 -9
17 -27 17 -19 0 -24 3 -16 11 6 6 73 12 161 14 83 1 155 6 160 9 5 3 13 36 17
73 6 53 9 63 16 46 5 -13 15 -23 22 -23z m2618 -282 c22 -12 39 -25 39 -29 0
-4 9 -9 20 -12 29 -7 29 -72 0 -80 -11 -3 -27 1 -35 10 -13 13 -15 12 -15 -5
0 -11 6 -23 13 -25 9 -4 9 -6 0 -6 -6 -1 -15 4 -18 9 -9 14 -44 -6 -76 -44
-24 -28 -29 -29 -53 -18 -33 15 -33 32 -1 66 14 15 25 36 25 47 0 28 42 109
57 109 3 0 23 -10 44 -22z m-4186 -221 c23 -67 15 -99 -27 -120 -33 -16 -33
-16 -58 13 -14 17 -31 30 -39 30 -10 0 -11 -3 -2 -14 18 -21 -43 -55 -86 -49
-28 5 -31 8 -22 24 5 10 17 19 27 20 10 0 12 3 5 6 -21 8 -15 20 22 43 20 12
42 29 51 37 14 14 92 61 105 62 3 1 14 -23 24 -52z m894 -1 c21 -13 75 -44
122 -69 169 -89 194 -106 192 -124 -1 -9 6 -22 14 -28 9 -7 13 -17 9 -23 -4
-7 -18 -4 -41 11 -37 24 -44 37 -19 37 24 0 0 26 -31 34 -14 4 -25 11 -25 16
0 6 -9 10 -19 10 -11 0 -22 4 -26 9 -3 6 -18 16 -34 24 -27 14 -28 13 -28 -17
0 -17 7 -36 16 -43 14 -11 14 -12 1 -13 -25 0 -43 17 -37 34 4 10 -2 22 -18
32 -31 20 -33 38 -4 29 15 -5 19 -4 15 4 -4 6 -14 11 -22 11 -8 0 -14 4 -14 9
0 5 -9 11 -20 14 -11 3 -20 1 -20 -4 0 -5 7 -9 15 -9 21 0 19 -27 -4 -39 -16
-9 -18 -8 -14 9 4 14 0 20 -12 20 -16 0 -45 22 -45 35 0 4 10 5 22 2 20 -6 20
-5 4 11 -14 14 -20 15 -37 4 -24 -15 -41 -6 -19 9 11 8 12 12 3 16 -7 2 -13 9
-13 15 0 15 45 1 89 -26z m4246 -206 c11 -5 14 -9 8 -9 -18 -1 -16 -41 2 -41
9 0 12 6 8 16 -5 13 0 14 31 9 20 -4 60 -19 89 -34 l52 -26 8 -64 c11 -87 8
-92 -50 -85 -43 6 -141 40 -153 53 -9 11 -71 41 -83 41 -22 0 -57 47 -55 73 1
14 6 23 10 21 5 -3 6 -10 3 -15 -4 -5 1 -9 9 -9 8 0 18 9 21 20 4 11 10 18 14
15 4 -2 14 7 21 20 14 26 31 30 65 15z m440 -40 c33 -5 87 -11 120 -14 33 -2
68 -7 78 -11 10 -4 17 -3 17 4 0 6 8 11 17 11 14 0 13 -4 -6 -24 -15 -16 -30
-22 -44 -19 -16 3 -18 2 -9 -5 13 -9 8 -15 -54 -59 -31 -23 -54 -31 -73 -26
-11 3 -21 9 -21 13 0 5 -28 38 -63 74 -70 73 -70 73 38 56z m-1018 -26 c12 -8
28 -14 34 -14 6 0 38 -18 70 -40 32 -22 61 -40 65 -40 3 0 34 -20 68 -45 35
-25 72 -46 82 -48 11 -1 35 -13 53 -27 19 -13 57 -29 85 -36 28 -7 44 -13 36
-13 -13 -1 -13 -2 0 -11 21 -13 94 -12 108 2 8 8 15 8 24 1 7 -6 20 -10 28
-11 8 0 43 -3 76 -7 l62 -8 6 -43 c3 -24 9 -118 12 -209 8 -175 8 -174 -40
-155 -18 6 -39 5 -71 -4 l-45 -14 0 29 0 29 -80 0 c-50 0 -80 -4 -80 -11 0 -5
-4 -7 -10 -4 -5 3 -10 2 -10 -3 0 -5 -13 -9 -30 -9 -18 0 -30 6 -30 14 0 10
-18 13 -70 13 l-70 0 0 40 c0 22 -4 40 -10 40 -5 0 -10 -19 -11 -42 l0 -43
-16 33 c-9 17 -19 32 -23 32 -4 0 -14 -15 -23 -32 -9 -20 -16 -26 -16 -16 -1
15 -5 15 -33 6 -18 -6 -36 -16 -40 -22 -5 -6 -8 -1 -8 12 0 19 -5 22 -40 22
-29 0 -40 -4 -40 -15 0 -8 -7 -15 -15 -15 -11 0 -15 11 -15 40 0 36 3 40 25
40 18 0 25 5 25 19 0 10 3 46 6 80 6 55 5 61 -12 61 -15 0 -16 2 -5 9 10 6 10
10 1 16 -6 4 -9 14 -6 22 3 8 1 11 -4 8 -6 -3 -22 1 -37 9 -30 17 -121 56
-130 56 -7 0 4 -170 14 -213 5 -27 4 -28 -23 -25 -26 3 -29 8 -36 50 -11 79
-20 395 -13 453 9 67 28 72 52 14 14 -36 17 -39 26 -23 6 11 23 32 39 47 30
30 50 30 95 1z m1034 -292 c8 -9 28 -49 44 -87 26 -61 30 -81 30 -168 0 -76
-3 -100 -15 -107 -11 -7 -12 -10 -2 -10 18 0 9 -25 -9 -26 -8 0 -22 -4 -31 -7
-38 -14 -49 -16 -63 -11 -8 4 -15 16 -16 28 -1 20 -1 19 -12 -4 -14 -30 -62
-38 -91 -17 -20 15 -30 94 -41 325 l-4 82 42 1 c23 0 62 4 87 8 25 5 50 9 55
10 6 0 17 -7 26 -17z m-5395 -148 c30 -21 57 -70 56 -104 -1 -24 -102 -253
-134 -301 -8 -13 -23 -42 -32 -64 -51 -120 -200 -400 -218 -412 -8 -4 -9 0 -5
11 9 24 -2 66 -17 60 -17 -6 -15 84 2 95 8 5 13 11 13 15 -2 10 23 46 32 46 5
0 7 -14 5 -32 -4 -42 21 -48 43 -10 13 22 13 30 3 40 -10 9 -14 8 -17 -6 -3
-12 -5 -11 -6 6 0 12 -4 22 -7 22 -10 0 -49 -23 -69 -41 -66 -59 -94 -77 -124
-84 -32 -7 -34 -6 -26 16 9 30 10 52 1 109 -4 27 0 81 8 130 8 46 13 87 10 91
-2 4 -13 5 -24 2 -14 -4 -20 0 -20 11 0 9 8 16 18 17 17 0 43 4 94 13 26 5 45
-15 33 -34 -3 -5 -2 -11 3 -14 14 -8 33 10 38 38 4 21 1 26 -12 24 -9 -2 -19
3 -21 10 -3 6 0 12 6 12 6 0 11 7 11 15 0 13 -10 15 -57 10 -40 -3 -53 -2 -43
5 9 6 10 10 3 10 -7 0 -17 -9 -23 -20 -13 -25 -42 -27 -33 -2 3 9 14 26 23 37
9 11 27 43 40 70 18 40 33 57 74 80 62 37 124 72 196 113 64 37 134 43 176 16z
m3677 -29 c4 -8 15 -15 25 -15 10 0 27 -10 38 -21 10 -12 46 -41 79 -65 33
-23 77 -61 98 -83 41 -45 104 -64 132 -41 13 10 15 9 15 -8 0 -11 7 -23 16
-26 8 -3 13 -10 10 -15 -3 -5 13 -14 37 -20 57 -15 83 -39 106 -100 19 -51 19
-51 -1 -92 -10 -22 -48 -69 -84 -104 l-65 -63 -50 24 c-27 14 -52 31 -55 39
-4 8 -11 15 -16 15 -22 0 -87 37 -168 95 -47 33 -137 95 -201 137 -142 95
-147 100 -128 136 8 15 16 29 19 32 3 3 16 25 29 50 13 25 33 56 43 69 10 13
18 30 18 37 0 8 7 14 15 14 8 0 15 8 15 18 0 10 3 21 6 25 9 9 61 -20 67 -38z
m-1635 -298 c14 -16 14 -19 2 -27 -11 -7 -5 -9 20 -9 19 1 27 3 18 6 -10 2
-18 11 -18 18 0 26 12 44 26 38 8 -3 14 1 15 8 0 8 5 3 11 -11 9 -21 12 -22
15 -7 3 9 14 17 26 17 15 0 18 -3 10 -11 -6 -6 -9 -18 -6 -26 3 -8 0 -19 -8
-24 -9 -6 0 -9 29 -9 31 0 42 -4 42 -15 0 -13 -24 -15 -152 -16 -84 0 -186 -3
-226 -5 -68 -4 -74 -3 -79 16 -7 26 -23 26 -23 0 0 -13 -7 -20 -20 -20 -21 0
-28 24 -10 35 6 3 10 14 10 25 0 13 5 17 20 13 10 -3 26 2 34 10 14 14 78 24
168 26 28 1 38 -3 43 -19 3 -11 11 -20 17 -20 5 0 7 7 4 16 -3 9 -3 21 1 27 4
7 8 6 11 -3 3 -8 12 -23 20 -33z m-1665 -173 c9 -4 17 -12 17 -19 0 -7 23 -37
50 -66 28 -29 50 -60 51 -68 1 -35 10 -67 25 -90 19 -27 47 -221 38 -257 -3
-13 -12 -24 -19 -24 -12 0 -22 -53 -25 -134 -2 -41 -29 -74 -67 -83 -21 -5
-38 -15 -38 -23 0 -7 -13 -17 -30 -22 -48 -15 -125 -51 -125 -59 0 -4 9 -10
19 -14 10 -3 21 -17 24 -30 4 -24 2 -25 -43 -25 -44 0 -48 2 -42 22 4 17 2 20
-11 15 -12 -5 -17 -1 -17 13 0 10 8 21 18 23 9 3 -2 5 -25 6 -56 1 -73 -7 -73
-35 0 -19 -5 -24 -25 -24 -16 0 -25 -6 -25 -15 0 -15 -31 -19 -106 -15 -22 1
-33 -4 -38 -17 -5 -11 -9 -14 -14 -6 -11 18 -64 4 -58 -16 10 -29 -7 -43 -39
-31 -19 7 -31 7 -40 0 -8 -7 -21 -7 -36 -1 -13 5 -21 11 -16 12 4 1 12 3 17 4
6 1 12 4 15 5 3 1 8 3 13 4 44 10 62 19 62 31 0 8 -6 15 -13 15 -8 0 -22 9
-32 20 -17 19 -17 21 -2 38 10 10 17 25 17 32 0 22 31 50 56 50 13 0 26 5 29
10 4 6 -6 10 -24 10 -16 0 -32 6 -35 13 -5 10 -7 10 -12 0 -3 -7 -10 -13 -15
-13 -5 0 -2 11 7 25 8 13 13 32 10 42 -6 21 18 58 33 49 5 -4 12 2 16 13 3 11
16 22 28 24 19 3 17 5 -10 12 -18 4 -33 10 -33 12 0 11 28 31 35 25 5 -4 5 1
2 11 -7 18 28 67 222 322 52 68 90 104 110 105 9 0 11 8 7 25 -5 21 -1 27 26
39 23 10 27 15 14 15 -18 1 -18 2 -2 20 15 16 22 18 37 8 13 -8 15 -13 6 -19
-8 -5 -6 -8 6 -8 14 0 17 5 12 19 -6 20 21 45 40 36 6 -3 18 -8 28 -11z m2598
-20 c6 -7 8 -17 5 -23 -3 -5 1 -12 10 -15 23 -9 24 -8 24 24 0 35 5 36 48 10
26 -16 32 -17 32 -5 0 19 11 19 36 0 11 -8 14 -15 7 -15 -8 0 -13 -14 -13 -36
0 -19 -5 -44 -10 -55 -10 -17 -13 -18 -26 -4 -9 8 -28 15 -44 15 -16 0 -30 5
-32 11 -3 8 -13 7 -33 -4 l-30 -16 33 6 c36 6 47 -15 12 -24 -11 -3 -17 -9
-14 -14 3 -5 12 -5 22 0 9 4 23 6 31 3 10 -3 3 -11 -20 -21 -32 -16 -35 -16
-61 2 -15 11 -24 26 -21 33 3 9 0 12 -8 9 -26 -9 -40 9 -33 44 5 25 11 32 25
28 11 -3 19 -1 19 3 0 5 -13 11 -30 15 -33 7 -32 7 -24 28 7 18 80 19 95 1z
m-1996 -174 c3 -5 21 -10 39 -10 40 0 71 -29 61 -58 -7 -24 10 -38 28 -23 9 7
19 6 34 -2 68 -40 102 -55 131 -62 31 -6 32 -9 32 -54 0 -51 -42 -150 -86
-204 -13 -15 -29 -45 -35 -67 -10 -33 -9 -43 4 -63 14 -22 21 -24 69 -20 l53
4 1 -61 c0 -33 -3 -60 -8 -60 -14 0 -8 -20 8 -27 9 -3 20 0 25 8 15 24 11 -38
-5 -76 -8 -19 -13 -35 -11 -35 4 0 -54 -168 -74 -215 -4 -11 -18 -47 -31 -80
-12 -33 -29 -76 -37 -95 -30 -67 -84 -185 -97 -210 -45 -85 -100 -186 -106
-195 -4 -5 -21 -35 -38 -65 -61 -114 -87 -159 -165 -290 -69 -116 -95 -155
-140 -215 -107 -142 -309 -371 -329 -373 -69 -5 -89 -9 -100 -20 -9 -9 -3 -12
30 -12 23 0 42 -4 42 -8 0 -15 -121 -122 -131 -116 -5 3 -9 0 -9 -6 0 -7 -6
-10 -13 -7 -7 3 -22 -2 -32 -10 -19 -14 -18 -15 14 -9 l34 6 -34 -30 c-36 -31
-60 -41 -39 -15 16 20 7 29 -20 20 -27 -9 -60 -57 -42 -63 21 -7 14 -18 -28
-46 -42 -28 -47 -27 -30 5 13 22 -2 26 -20 4 -7 -8 -17 -12 -24 -9 -6 3 -2 -1
8 -10 16 -13 17 -18 6 -31 -7 -8 -18 -15 -24 -15 -6 0 -26 -13 -44 -29 -31
-29 -36 -27 -33 15 2 16 -6 24 -26 29 -15 5 -34 7 -40 6 -7 -1 -13 7 -13 17 0
10 -3 22 -6 25 -18 17 -104 -61 -104 -93 0 -23 32 -31 89 -23 44 6 45 5 31
-12 -13 -17 -13 -18 0 -10 8 4 23 15 33 23 18 16 34 11 22 -8 -9 -14 -218
-114 -308 -146 -199 -72 -407 -98 -712 -91 -205 5 -230 8 -370 40 -203 47
-246 60 -242 70 1 5 48 25 102 44 93 32 113 34 173 20 48 -12 241 -17 328 -10
50 5 124 6 165 3 43 -4 77 -2 80 3 5 6 23 6 50 -1 47 -11 109 -6 109 9 0 14
78 11 83 -3 3 -10 12 -9 35 5 17 9 51 17 76 17 27 0 46 5 46 11 0 8 24 9 78 4
66 -6 80 -4 92 10 11 14 12 18 0 25 -11 7 -10 11 3 25 10 9 17 25 17 36 0 14
7 19 25 19 19 0 25 5 25 21 0 20 -4 21 -56 17 -39 -3 -61 -11 -70 -23 -8 -10
-24 -17 -39 -15 -89 7 -309 -2 -316 -12 -4 -6 -17 -3 -33 7 -20 14 -39 16 -76
12 -40 -5 -50 -3 -50 8 0 12 -19 15 -92 17 -119 3 -281 0 -385 -7 -83 -5 -83
-5 -83 19 0 14 7 58 16 98 8 40 26 133 39 207 14 74 27 137 31 140 3 3 40 5
82 3 56 -1 91 3 134 19 61 21 83 18 75 -11 -3 -12 2 -20 16 -24 12 -3 23 -3
26 -1 2 3 -2 5 -10 5 -8 1 -3 7 11 15 34 20 89 19 112 -2 18 -16 19 -16 25 6
5 22 10 23 65 19 52 -4 61 -2 77 18 l18 23 46 -22 c25 -12 49 -30 52 -39 9
-25 42 -22 50 3 5 16 9 18 15 9 6 -9 13 -4 24 18 15 30 15 31 -7 35 -12 2 -1
5 25 6 31 1 52 -4 63 -15 14 -15 30 -13 30 4 0 4 24 31 53 60 46 47 52 58 52
95 0 31 5 45 20 54 10 7 24 30 29 50 27 105 33 134 35 198 3 66 6 83 26 130 7
17 21 153 22 221 0 15 6 20 17 18 9 -2 63 -16 120 -30 96 -23 115 -25 230 -19
69 4 146 11 171 15 197 37 402 173 558 369 l19 25 13 -40 c7 -21 21 -55 31
-74 24 -43 26 -189 5 -270 -17 -64 -12 -75 15 -40 10 14 23 30 29 37 5 7 10
17 10 23 0 13 22 53 33 61 5 3 8 9 7 13 -1 3 2 36 5 72 7 60 5 77 -20 154 -1
3 -5 24 -10 47 -4 23 -14 44 -21 47 -8 3 -15 20 -15 38 -1 24 -3 27 -6 11 -4
-23 -23 -33 -23 -12 0 6 20 49 45 97 45 89 85 176 85 187 0 3 -10 -1 -22 -9
-31 -22 -101 -20 -148 4 -43 22 -44 21 -55 -30 -4 -19 -11 -41 -15 -50 -5 -8
-21 -41 -36 -73 -15 -31 -29 -55 -31 -53 -3 2 0 14 7 25 7 14 7 21 0 21 -5 0
-10 -4 -10 -9 0 -11 -42 -2 -51 11 -3 5 -29 4 -57 -3 -73 -15 -68 -49 8 -49
42 0 80 -17 80 -36 0 -29 -78 -123 -102 -124 -5 0 -8 7 -8 15 0 20 -16 19 -24
-2 -4 -9 -1 -20 6 -25 36 -24 -217 -165 -343 -192 -136 -28 -172 -26 -401 21
-28 5 -88 81 -88 110 0 7 -7 13 -15 13 -8 0 -15 5 -15 11 0 7 10 9 24 5 22 -5
24 -3 21 24 -2 17 1 30 7 30 6 0 8 8 6 18 -6 23 24 44 48 35 14 -5 16 -3 11
11 -5 12 0 19 17 26 13 5 25 12 27 17 2 4 22 17 44 29 43 22 139 74 245 133
180 101 233 121 348 132 60 5 113 9 118 7 21 -5 54 15 54 33 0 10 4 19 10 19
5 0 12 16 16 35 3 19 12 35 19 35 7 0 18 7 26 16 10 13 10 22 -1 52 -15 42
-21 112 -11 127 28 41 38 123 26 216 -7 50 -5 58 14 76 13 12 31 19 41 16 11
-3 24 4 33 17 10 15 22 20 32 16 11 -4 21 4 33 25 39 71 70 96 87 69z m2431
-105 c-3 -8 3 -23 13 -32 11 -10 22 -39 26 -65 7 -46 16 -55 49 -49 5 1 5 -17
1 -41 -4 -24 -7 -51 -7 -61 1 -17 -1 -17 -23 -3 -13 9 -31 16 -40 16 -8 0 -15
4 -15 8 0 5 -16 16 -35 25 -19 9 -35 22 -35 29 0 6 -3 9 -6 5 -4 -3 -12 -1
-19 6 -7 7 -33 24 -59 39 -25 15 -46 31 -46 35 0 9 149 83 168 83 6 0 12 5 12
10 0 6 5 10 11 10 6 0 9 -7 5 -15z m-1413 -422 c28 -5 37 -30 13 -39 -8 -3
-12 -13 -9 -25 6 -22 -22 -59 -44 -59 -7 0 -22 -6 -33 -12 -16 -10 -22 -10
-28 -1 -5 8 -13 9 -22 3 -20 -13 -60 -13 -60 0 0 6 5 10 10 10 6 0 10 20 10
45 0 25 -4 45 -10 45 -5 0 -10 4 -10 8 0 19 124 36 183 25z m-74 -165 c50 -11
51 -12 51 -48 0 -46 -15 -63 -42 -47 -15 10 -20 9 -28 -3 -7 -11 -5 -17 7 -21
12 -4 13 -8 5 -13 -8 -4 -20 2 -32 16 -18 21 -19 21 -20 4 0 -20 -27 -56 -42
-56 -4 0 -8 11 -8 25 0 16 -6 25 -15 25 -11 0 -15 -11 -15 -40 0 -27 -4 -40
-14 -40 -17 0 -26 -28 -36 -110 -7 -60 -13 -93 -42 -237 -7 -32 -16 -53 -25
-53 -7 0 -13 -4 -13 -9 0 -5 -9 -13 -21 -16 -16 -5 -19 -12 -15 -31 4 -13 2
-24 -3 -24 -6 0 -18 -13 -28 -30 -9 -16 -25 -30 -34 -30 -9 0 -27 -20 -41 -47
-18 -36 -30 -48 -46 -47 -12 0 -22 -4 -22 -10 0 -6 -15 -27 -33 -46 -18 -19
-42 -49 -52 -67 -10 -17 -24 -29 -30 -26 -7 2 -17 -9 -24 -27 -6 -18 -20 -34
-31 -37 -11 -3 -20 -12 -20 -19 0 -8 -6 -14 -13 -14 -8 0 -19 -11 -25 -25 -7
-14 -19 -28 -27 -31 -8 -4 -15 -17 -15 -29 0 -19 -7 -24 -41 -30 -36 -6 -40
-10 -36 -30 5 -29 1 -35 -40 -64 -18 -12 -32 -25 -30 -29 1 -4 -1 -7 -5 -7 -4
0 -15 -10 -23 -22 -9 -13 -23 -23 -31 -23 -17 0 -19 -16 -1 -23 7 -3 5 -6 -5
-6 -9 -1 -22 -9 -27 -18 -9 -15 -10 -15 -11 -2 0 8 3 19 8 25 4 5 -3 -2 -15
-16 -13 -14 -23 -31 -23 -37 0 -7 -9 -18 -20 -25 -11 -7 -20 -18 -20 -24 0 -6
-7 -17 -14 -24 -11 -8 -9 0 4 29 11 22 25 43 31 46 5 4 15 17 20 28 16 35 36
69 46 76 4 3 28 47 53 96 24 50 57 113 74 140 16 28 47 84 69 125 23 41 51 93
64 115 23 41 37 69 105 215 46 98 178 423 178 439 0 6 5 11 10 11 6 0 10 7 10
15 0 8 6 12 14 9 8 -3 16 4 21 18 l7 23 7 -25 c6 -22 8 -23 17 -8 8 15 14 16
47 6 20 -6 37 -17 37 -25 0 -7 2 -13 5 -13 13 0 94 90 86 95 -5 3 -11 -1 -14
-7 -2 -7 -8 -10 -12 -5 -5 4 -3 13 3 19 7 7 12 26 12 44 0 30 3 33 58 47 73
19 71 19 131 5z m-2891 -710 c5 -7 13 -43 16 -79 7 -61 5 -69 -16 -94 -22 -25
-32 -28 -124 -36 -135 -11 -171 -18 -185 -35 -26 -32 -95 -49 -175 -45 l-30 1
1 120 c1 71 6 125 12 131 15 15 171 23 202 12 15 -6 46 -5 90 5 173 36 194 38
209 20z m-1 -310 c45 -42 22 -111 -59 -173 -21 -16 -64 -51 -95 -77 -31 -27
-60 -48 -64 -48 -4 0 -13 -17 -20 -37 -12 -38 -165 -203 -188 -203 -6 0 -11
12 -11 28 0 15 -12 65 -25 111 -14 47 -25 88 -25 91 0 4 16 23 35 43 19 20 35
34 35 31 0 -3 21 13 46 35 26 23 55 41 66 41 10 0 22 10 27 23 5 14 42 43 92
72 46 27 86 51 89 55 7 7 52 28 64 29 6 1 20 -9 33 -21z m6127 -535 c26 -4 41
-2 47 8 6 10 9 10 9 2 0 -7 8 -13 18 -13 18 0 42 -58 42 -101 0 -19 -4 -21
-50 -17 -27 3 -50 1 -50 -4 0 -5 -4 -7 -10 -3 -5 3 -7 12 -3 20 7 21 -17 19
-32 -2 -11 -15 -17 -15 -39 -5 -20 9 -37 9 -70 0 -35 -9 -48 -9 -60 1 -9 7
-13 17 -10 22 3 5 0 9 -5 9 -6 0 -11 7 -11 15 0 16 42 30 65 21 8 -3 15 -1 15
4 0 6 11 10 25 10 18 0 29 8 37 25 8 18 17 24 27 19 9 -3 33 -8 55 -11z
m-8704 -703 c33 -33 27 -85 -15 -126 -41 -39 -69 -43 -102 -12 -33 31 -30 75
8 121 35 43 77 49 109 17z"/>
<path d="M9933 11340 c-7 -10 -11 -32 -9 -47 2 -15 1 -20 -1 -10 -3 11 -14 17
-35 17 l-30 0 7 -80 c7 -74 6 -80 -11 -80 -15 0 -14 -3 6 -13 16 -8 25 -21 25
-37 0 -14 4 -30 8 -37 4 -7 5 -24 1 -39 -5 -20 -2 -31 12 -41 16 -12 17 -15 4
-23 -10 -7 -11 -10 -2 -10 6 0 12 -7 12 -15 0 -19 36 -38 60 -30 12 4 20 15
20 29 0 12 6 28 13 35 10 11 10 14 0 18 -7 3 -13 12 -13 21 1 15 2 15 14 0 29
-39 36 -21 30 75 -5 69 -10 96 -23 107 -10 9 -21 37 -24 63 -7 52 -32 117 -44
117 -5 0 -14 -9 -20 -20z"/>
<path d="M1992 9443 c-11 -10 -23 -29 -27 -41 -6 -20 -4 -23 12 -20 11 2 31
-9 52 -29 18 -18 37 -33 42 -33 4 0 5 -8 2 -17 -5 -12 -2 -15 10 -10 22 8 22
7 -8 -33 -14 -19 -25 -42 -25 -51 0 -10 -6 -19 -12 -22 -10 -3 -10 -7 1 -20
21 -26 44 -22 37 7 -5 21 -1 25 39 37 48 14 52 23 39 88 -5 22 -11 30 -20 27
-8 -3 -14 -1 -14 4 0 6 -7 10 -15 10 -8 0 -15 5 -15 11 0 5 5 7 10 4 19 -12
10 14 -16 44 -14 17 -32 31 -40 31 -8 0 -14 7 -14 15 0 20 -13 19 -38 -2z"/>
<path d="M1880 9421 c-16 -32 -11 -82 14 -136 26 -57 41 -72 85 -85 26 -7 33
-5 41 10 16 31 12 45 -18 56 -21 8 -31 20 -35 44 -5 22 -11 30 -21 27 -16 -6
-26 20 -26 71 0 37 -23 44 -40 13z"/>
<path d="M6060 9248 c-34 -57 -38 -114 -6 -102 7 3 19 -2 26 -11 10 -13 9 -15
-6 -15 -15 -1 -12 -4 9 -16 29 -16 63 -12 52 5 -3 5 3 16 12 23 10 7 24 25 30
40 11 24 9 31 -14 59 -22 26 -31 30 -56 25 -23 -5 -28 -3 -23 9 10 26 -3 16
-24 -17z"/>
<path d="M5202 9220 c-12 -5 -27 -20 -33 -34 -10 -20 -8 -30 11 -56 19 -26 20
-34 9 -41 -11 -6 -8 -9 9 -9 12 0 22 5 22 10 0 6 7 10 15 10 8 0 12 -6 9 -14
-4 -11 0 -13 15 -9 12 3 20 11 19 19 -2 7 1 13 6 12 13 0 26 24 26 49 0 26
-44 73 -68 72 -9 0 -27 -4 -40 -9z"/>
<path d="M4173 5334 c-10 -7 -28 -14 -39 -14 -24 0 -40 -38 -24 -54 16 -16 11
-36 -15 -60 l-25 -23 28 4 c15 2 53 7 85 10 31 3 57 9 57 14 0 14 -40 30 -60
24 -17 -6 -20 -2 -20 31 0 35 1 36 14 19 14 -19 15 -19 42 8 18 18 33 25 45
22 26 -9 43 3 29 20 -15 18 -93 17 -117 -1z"/>
<path d="M7825 3949 c-5 -7 -23 -9 -51 -5 -25 3 -44 2 -44 -4 0 -5 -35 -7 -81
-5 -44 2 -90 0 -101 -4 -11 -4 -43 -4 -71 0 -32 4 -65 3 -85 -4 -26 -9 -35 -9
-42 2 -5 9 -14 11 -26 6 -11 -5 -34 -9 -52 -10 -18 -1 -38 -7 -45 -14 -8 -8
63 -10 288 -6 165 3 310 8 323 11 15 3 22 11 20 21 -4 21 -24 28 -33 12z"/>
<path d="M6970 3918 c-199 -9 -437 -22 -488 -26 -13 -1 -21 -6 -18 -11 5 -8
125 -7 306 3 30 2 137 4 236 6 179 2 221 8 193 26 -17 11 -32 11 -229 2z"/>
<path d="M7161 2383 c0 -24 -5 -43 -11 -43 -5 0 -10 -18 -10 -40 0 -49 -22
-54 -40 -10 -7 17 -16 30 -19 30 -14 0 -41 -72 -40 -108 0 -20 3 -31 6 -24 3
8 28 12 75 12 60 0 69 -2 64 -16 -3 -9 -6 -32 -6 -53 0 -32 -3 -37 -22 -37
-21 0 -23 4 -19 43 l3 43 -36 0 c-20 0 -36 -4 -36 -10 0 -5 5 -10 10 -10 6 0
10 -7 10 -16 0 -18 -23 -44 -39 -44 -6 0 -11 -4 -11 -10 0 -15 -70 -12 -86 4
-8 8 -14 31 -14 50 0 29 -4 36 -20 36 -17 0 -20 -7 -20 -40 0 -38 -1 -40 -32
-40 -44 -1 -68 -35 -75 -105 -4 -38 -10 -55 -20 -55 -7 0 -16 -6 -19 -14 -10
-25 -32 -26 -36 -2 -4 19 -1 22 14 18 15 -4 18 2 18 37 l0 41 -40 0 c-39 0
-40 -1 -40 -35 0 -42 2 -51 13 -47 4 1 7 -11 7 -28 0 -16 -4 -30 -10 -30 -14
0 -13 -97 2 -102 13 -5 4 -38 -10 -38 -16 0 -32 50 -32 96 l0 45 -37 -3 c-31
-2 -39 -7 -41 -26 -3 -22 -5 -23 -21 -8 -17 15 -20 15 -42 -3 -23 -19 -23 -21
-7 -37 14 -15 22 -16 43 -6 24 11 25 10 25 -18 0 -28 -2 -30 -40 -30 -29 0
-40 4 -40 15 0 8 -4 15 -10 15 -5 0 -10 19 -10 43 l0 43 38 -1 c52 -2 62 3 62
33 l0 25 -116 -6 c-64 -4 -118 -8 -120 -10 -2 -2 -1 -31 2 -65 5 -42 11 -62
20 -62 10 0 14 13 14 40 0 22 4 40 9 40 10 0 20 -87 13 -108 -8 -22 -36 -8
-52 25 -12 27 -21 33 -47 33 -22 0 -33 -5 -36 -17 -3 -11 -5 -7 -6 10 -1 25
-4 27 -41 27 -29 0 -40 4 -40 15 0 8 -7 15 -15 15 -8 0 -15 -6 -15 -14 0 -13
-20 -26 -41 -26 -5 0 -9 6 -9 14 0 7 -7 26 -15 42 -12 24 -15 26 -21 10 -4
-11 -2 -21 6 -26 10 -6 7 -14 -13 -34 -14 -14 -21 -26 -14 -26 7 0 4 -6 -5
-14 -10 -7 -18 -23 -18 -35 0 -18 -6 -21 -40 -21 l-40 0 0 50 0 50 -40 0 c-22
0 -40 -4 -40 -10 0 -5 -18 -10 -40 -10 -29 0 -40 -4 -40 -15 0 -11 -11 -15
-40 -15 -29 0 -40 4 -40 15 0 11 -11 15 -40 15 l-40 0 0 -53 c0 -51 -1 -54
-35 -70 -20 -9 -38 -17 -40 -17 -3 0 -5 25 -5 55 0 42 3 55 15 55 11 0 15 11
15 40 0 36 3 40 25 40 14 0 25 5 25 10 0 6 -4 10 -9 10 -5 0 -13 9 -16 20 -3
11 -10 20 -15 20 -5 0 -12 -9 -15 -20 -8 -26 -40 -26 -73 1 l-27 21 -3 -71 -3
-71 -39 0 c-29 0 -40 4 -40 15 0 8 -4 15 -10 15 -5 0 -10 -7 -10 -15 0 -9 -9
-15 -25 -15 -16 0 -25 6 -25 15 0 11 -12 15 -45 15 -41 0 -45 2 -45 25 0 14
-4 25 -10 25 -5 0 -10 -18 -10 -40 0 -22 5 -40 10 -40 6 0 10 -7 10 -15 0 -11
-11 -15 -39 -15 -36 0 -40 3 -46 31 -4 17 -4 33 -1 36 3 4 6 -3 6 -15 0 -12 4
-22 9 -22 6 0 9 18 9 40 l0 40 -49 0 c-46 0 -49 -2 -49 -25 0 -22 -4 -25 -40
-25 -29 0 -40 -4 -40 -15 0 -8 -8 -15 -17 -15 -10 0 -29 -12 -42 -25 -19 -21
-33 -25 -77 -25 -41 0 -54 -4 -54 -15 0 -9 -9 -15 -25 -15 -22 0 -25 -4 -25
-40 0 -40 0 -40 -38 -40 -34 0 -39 4 -54 38 -9 22 -12 39 -6 43 9 6 -10 59
-22 59 -3 0 -14 -15 -23 -32 -14 -29 -16 -30 -16 -10 -1 12 -5 22 -10 22 -21
0 -41 -13 -41 -26 0 -8 -10 -14 -24 -14 -21 0 -25 -5 -28 -37 -2 -31 -7 -39
-25 -41 -21 -3 -23 1 -23 37 0 39 -2 41 -30 41 -24 0 -33 -6 -42 -27 l-12 -28
-4 28 c-2 15 -5 27 -7 27 -11 0 -75 -35 -75 -40 0 -4 18 -15 40 -25 22 -10 40
-24 40 -32 0 -9 -13 -13 -40 -13 -29 0 -40 4 -40 15 0 11 -11 15 -40 15 -29 0
-40 4 -40 15 0 11 -11 15 -40 15 -29 0 -40 -4 -40 -15 0 -20 -10 -19 -26 3
-12 16 -14 16 -33 -5 -12 -13 -21 -36 -21 -54 0 -39 -20 -109 -32 -109 -4 0
-8 16 -8 35 0 29 -4 35 -21 35 -22 0 -22 0 -2 -62 3 -10 0 -18 -6 -18 -6 0
-11 5 -11 10 0 6 -18 10 -40 10 l-40 0 0 -40 c0 -43 -16 -52 -43 -25 -12 11
-17 12 -20 2 -3 -6 -6 0 -6 16 -1 15 -5 27 -11 27 -5 0 -10 18 -10 40 0 29 4
40 15 40 8 0 15 5 15 10 0 6 -4 10 -9 10 -6 0 -13 -4 -16 -10 -3 -5 -15 -10
-26 -10 -16 0 -19 -7 -19 -40 0 -29 -4 -40 -15 -40 -9 0 -15 -9 -15 -25 0 -22
-4 -25 -40 -25 -29 0 -40 -4 -40 -15 0 -8 -7 -15 -15 -15 -11 0 -15 -11 -15
-40 0 -22 -4 -40 -10 -40 -5 0 -10 -7 -10 -15 0 -8 -7 -15 -15 -15 -8 0 -15 5
-15 10 0 6 -17 27 -37 48 l-38 37 -3 -72 c-3 -69 -4 -73 -26 -73 -23 0 -24 -5
-31 -80 -7 -79 -25 -112 -25 -46 0 46 -9 66 -29 66 -20 -1 -51 -24 -51 -39 0
-7 -27 -11 -80 -11 -64 0 -80 -3 -80 -15 0 -11 -11 -15 -40 -15 -33 0 -40 -3
-40 -20 0 -13 -7 -20 -18 -20 -16 0 -62 -49 -62 -65 0 -4 -7 -13 -15 -21 -11
-12 -13 -29 -8 -75 5 -56 5 -59 -16 -59 -18 0 -21 6 -21 39 0 22 -5 41 -12 43
-9 3 -8 9 5 22 9 10 17 26 17 37 0 15 -7 19 -39 19 -59 0 -71 -8 -71 -46 0
-24 -5 -34 -15 -34 -20 0 -19 -34 2 -55 14 -14 14 -18 2 -26 -23 -14 -39 -10
-39 10 0 26 -10 51 -21 51 -5 0 -9 -7 -9 -15 0 -8 -7 -15 -15 -15 -8 0 -15 -7
-15 -15 0 -9 -9 -15 -25 -15 -16 0 -25 6 -25 15 0 8 -4 15 -10 15 -5 0 -10 -7
-10 -15 0 -12 -13 -15 -55 -15 -54 0 -55 0 -55 -30 0 -16 5 -30 10 -30 6 0 10
-4 10 -10 0 -5 -11 -10 -25 -10 -19 0 -25 -5 -26 -22 l0 -23 -9 22 c-7 17 -18
23 -38 23 -36 0 -57 21 -40 38 16 16 4 25 -32 25 -37 0 -47 -8 -31 -27 8 -10
9 -16 1 -21 -5 -3 -10 -27 -11 -53 0 -41 -2 -44 -11 -25 -14 28 -28 29 -35 3
-3 -11 -12 -20 -19 -20 -10 0 -14 -13 -14 -40 0 -40 0 -40 -39 -40 -37 0 -40
2 -43 32 l-3 33 -27 -27 c-22 -22 -28 -36 -28 -73 0 -45 0 -45 -35 -45 -34 0
-35 -1 -35 -38 0 -25 -7 -45 -18 -55 -23 -21 -42 -22 -42 -2 0 9 -9 15 -24 15
-13 0 -26 6 -29 13 -4 9 -7 9 -18 0 -11 -11 -10 -13 4 -13 11 0 17 -8 17 -25
0 -14 6 -25 13 -25 8 0 14 -7 14 -15 0 -8 -6 -15 -14 -15 -9 0 -13 -15 -13
-49 0 -41 4 -51 20 -56 20 -6 28 -25 11 -25 -5 0 -17 -7 -25 -16 -15 -14 -16
-14 -16 6 0 17 -2 19 -14 8 -10 -9 -11 -15 -2 -20 6 -4 -4 -8 -21 -8 -27 0
-33 4 -34 23 l0 22 -11 -22 c-6 -13 -17 -23 -25 -23 -9 0 -13 -13 -13 -40 0
-51 -27 -57 -32 -8 l-3 33 -30 -30 c-26 -26 -28 -30 -12 -33 13 -3 16 -9 12
-20 -17 -41 -17 -54 1 -67 24 -18 54 -19 54 -2 0 9 2 9 8 -1 7 -10 683 -12
3648 -9 2001 2 3680 7 3729 11 50 4 96 13 103 18 8 7 12 7 12 -1 0 -12 141
-16 153 -5 3 3 131 7 284 9 191 2 278 6 281 14 2 6 8 11 13 11 6 0 7 -5 4 -10
-4 -7 63 -8 207 -5 248 7 258 9 258 35 0 23 15 27 24 5 3 -8 1 -15 -5 -15 -6
0 -7 -5 -3 -11 4 -7 46 -9 128 -5 66 3 133 5 149 6 l27 0 0 108 c0 73 -4 112
-12 121 -10 10 -10 15 -2 18 14 5 20 513 7 513 -4 0 -9 11 -9 25 -1 14 2 25 7
25 5 0 9 25 9 55 0 30 -4 55 -10 55 -5 0 -10 18 -10 40 0 22 5 40 10 40 6 0
10 39 10 96 0 94 0 95 -22 88 -30 -8 -36 -16 -20 -21 7 -3 12 -21 12 -43 0
-32 -4 -38 -24 -42 -28 -6 -55 7 -43 19 5 4 13 1 18 -7 17 -25 -1 142 -18 168
-13 21 -13 26 3 43 10 11 12 19 6 19 -7 0 -12 7 -12 15 0 8 -9 15 -20 15 -11
0 -20 -7 -20 -15 0 -9 -9 -15 -22 -14 -13 0 -17 3 -10 6 6 2 12 13 12 24 0 10
5 19 10 19 6 0 10 7 10 15 0 8 -4 15 -10 15 -5 0 -10 20 -10 44 0 39 3 45 30
56 17 7 30 16 30 20 0 11 -60 34 -68 26 -4 -4 -7 -32 -7 -62 0 -30 -3 -54 -6
-54 -13 0 -31 29 -24 40 3 5 -2 10 -14 10 -11 0 -21 7 -23 15 -3 13 -6 13 -32
0 -15 -8 -50 -15 -77 -15 -42 0 -49 3 -49 20 0 12 -7 20 -16 20 -12 0 -15 -7
-11 -27 4 -21 -2 -33 -24 -54 -16 -15 -29 -34 -29 -43 0 -9 -4 -16 -10 -16 -5
0 -10 5 -10 10 0 6 -13 10 -30 10 -22 0 -30 -5 -30 -17 -1 -38 -30 20 -30 59
l0 38 61 0 c59 0 61 1 56 23 -9 33 8 55 31 41 15 -10 21 -8 30 7 7 10 12 29
12 41 1 20 2 20 14 -7 l13 -30 8 40 c4 22 16 56 27 75 l19 35 -5 -45 c-2 -25
-1 -54 3 -65 7 -18 9 -17 37 10 25 25 26 30 12 33 -14 3 -18 13 -18 43 0 35 3
39 25 39 24 0 25 2 25 68 0 37 4 72 10 78 6 6 -12 10 -50 11 l-60 2 0 -40 c0
-21 5 -39 10 -39 6 0 10 -18 10 -40 0 -47 -11 -52 -27 -10 -14 38 -28 38 -45
0 -18 -41 -28 -38 -28 10 0 22 -4 40 -10 40 -5 0 -10 -18 -10 -40 0 -33 -3
-40 -20 -40 -14 0 -20 7 -20 21 0 11 -4 17 -10 14 -5 -3 -10 0 -10 7 -1 7 -10
2 -22 -12 l-20 -25 21 -3 c19 -3 21 -10 21 -83 l0 -79 -30 0 c-20 0 -30 5 -30
15 0 11 -11 15 -40 15 -22 0 -40 5 -40 10 0 6 -16 10 -36 10 -19 0 -42 7 -50
15 -14 13 -5 15 75 15 l91 0 -1 55 c-1 30 -6 55 -10 55 -5 0 -9 -7 -9 -15 0
-9 -9 -15 -25 -15 -18 0 -23 4 -19 15 5 12 -4 15 -45 15 -48 0 -67 -12 -38
-23 6 -3 -6 -4 -28 -3 l-40 3 4 -43 c2 -35 0 -44 -13 -44 -9 0 -16 -7 -16 -15
0 -8 6 -15 14 -15 13 0 26 -20 26 -41 0 -5 -9 -9 -20 -9 -13 0 -22 9 -26 28
-3 15 -7 33 -10 40 -2 6 1 12 6 12 6 0 10 4 10 9 0 4 -11 6 -25 3 -16 -3 -25
-11 -25 -23 0 -28 -17 -23 -24 6 -5 21 -12 25 -46 25 -22 0 -40 -4 -40 -10 0
-5 18 -10 40 -10 22 0 40 -4 40 -10 0 -5 -18 -10 -40 -10 -33 0 -40 -3 -40
-20 0 -17 7 -20 40 -20 22 0 40 -4 40 -10 0 -5 -11 -10 -25 -10 -22 0 -25 -4
-25 -40 0 -29 -4 -40 -15 -40 -9 0 -15 9 -15 24 0 16 -7 27 -20 31 -14 4 -19
13 -16 23 3 9 8 50 12 90 6 69 6 72 -15 72 -18 0 -21 -6 -21 -40 0 -22 -4 -40
-10 -40 -5 0 -10 -18 -10 -40 0 -29 -4 -40 -15 -40 -12 0 -15 16 -15 84 0 69
-3 85 -17 90 -9 4 -21 2 -27 -4 -5 -5 -17 -10 -26 -10 -8 0 -24 -10 -35 -22
l-20 -23 -3 23 c-3 16 -10 22 -28 22 -21 0 -24 -4 -24 -40 0 -36 3 -40 25 -40
16 0 25 -6 25 -15 0 -11 -11 -15 -40 -15 -29 0 -40 -4 -40 -15 0 -11 -11 -15
-40 -15 -33 0 -40 3 -40 20 0 17 7 20 40 20 l40 0 0 50 0 50 -40 0 -40 0 0
-40 c0 -29 -4 -40 -15 -40 -12 0 -15 16 -15 80 0 64 -3 80 -15 80 -8 0 -15 6
-15 14 0 8 -4 17 -9 21 -6 3 -9 -21 -8 -57 l2 -62 -35 0 c-26 -1 -37 -7 -44
-22 -13 -28 -66 -29 -66 -1 0 29 -25 47 -64 47 -29 0 -36 4 -36 20 0 17 7 20
40 20 22 0 40 5 40 10 0 6 20 10 45 10 39 0 45 3 45 21 0 13 4 18 12 13 7 -4
8 -3 4 5 -4 6 -12 9 -17 6 -5 -4 -9 1 -9 9 0 12 -10 16 -40 16 -22 0 -40 -4
-40 -10 0 -5 -18 -10 -40 -10 -29 0 -40 4 -40 15 0 11 13 15 53 16 69 1 101
11 105 32 4 20 -19 22 -51 6 -16 -9 -22 -9 -25 0 -2 6 -21 11 -43 11 -28 0
-39 4 -39 15 0 11 -11 15 -40 15 -23 0 -40 5 -40 11 0 8 -5 8 -15 -1 -9 -7
-15 -29 -15 -51 0 -35 -3 -39 -25 -39 -24 0 -25 -2 -25 -65 l0 -65 -40 0 c-36
0 -40 3 -40 25 0 14 -4 25 -10 25 -5 0 -10 18 -10 40 0 33 -3 40 -20 40 -17 0
-20 -7 -20 -40 0 -39 -1 -40 -35 -40 -34 0 -35 -1 -35 -40 0 -29 4 -40 15 -40
11 0 15 -11 15 -40 0 -33 -3 -40 -20 -40 -17 0 -20 7 -20 40 0 22 -4 40 -10
40 -5 0 -10 7 -10 15 0 8 -6 15 -14 15 -7 0 -19 -7 -26 -15 -7 -8 -19 -15 -26
-15 -19 0 -18 56 1 64 13 5 13 8 -2 26 -12 13 -30 20 -55 20 -21 0 -38 5 -38
10 0 6 -8 10 -19 10 -10 0 -24 7 -31 15 -11 13 -8 15 19 15 30 0 31 2 31 40 0
36 3 40 25 40 18 0 25 5 25 20 0 10 11 30 25 44 14 14 21 28 15 31 -6 3 -10 1
-10 -4 0 -6 -11 -11 -24 -11 -18 0 -25 -7 -29 -29 -7 -32 -52 -57 -86 -46 -15
4 -31 -5 -65 -40 -37 -36 -52 -45 -81 -45 -34 0 -35 1 -35 40 0 36 3 40 25 40
17 0 23 4 19 14 -3 9 4 19 17 26 19 11 20 14 6 21 -23 14 -68 0 -66 -20 3 -31
-1 -41 -17 -41 -8 0 -22 -7 -30 -15 -9 -8 -20 -15 -25 -15 -5 0 -9 7 -9 15 0
8 -4 15 -10 15 -5 0 -10 18 -10 40 0 22 5 40 10 40 6 0 10 18 10 40 l0 40 -80
0 -79 0 -3 -72 -3 -73 -32 33 c-30 31 -34 32 -107 32 l-76 0 0 -40 c0 -22 -4
-40 -10 -40 -5 0 -10 -15 -11 -32 l0 -33 -16 33 c-9 17 -19 32 -23 32 -4 0
-14 -15 -23 -32 l-16 -33 0 48 -1 47 -40 0 -40 0 0 -54 c0 -49 2 -55 23 -59
20 -3 20 -4 3 -12 -24 -10 -36 9 -36 58 0 31 -3 37 -21 37 -19 0 -21 -5 -17
-45 2 -33 -1 -46 -12 -50 -8 -4 -16 -1 -18 4 -2 6 -15 11 -28 11 -21 0 -24 -4
-24 -40 0 -29 -4 -40 -15 -40 -11 0 -15 11 -15 40 0 29 4 40 15 40 11 0 15 11
15 40 0 37 -2 40 -26 40 -26 0 -26 -2 -22 -49 5 -54 -3 -78 -22 -66 -7 4 -9
17 -5 32 10 42 -5 163 -21 163 -8 0 -14 5 -14 10 0 6 -18 10 -40 10 -33 0 -40
3 -40 20 0 17 7 20 40 20 33 0 40 3 40 20 0 15 -7 20 -25 20 -14 0 -25 -4 -25
-10 0 -5 -13 -10 -30 -10 -20 0 -30 5 -30 15 0 8 -11 17 -25 21 -16 4 -25 13
-25 25 0 14 -7 19 -25 19 -22 0 -25 -4 -25 -40 0 -29 -4 -40 -15 -40 -11 0
-15 11 -15 40 0 22 -4 40 -9 40 -4 0 -13 37 -18 83 -7 57 -10 69 -12 40z"/>
</g>
</svg>
